<?xml version="1.0" encoding="UTF-8"?>
<!--Generator: Apple Native CoreSVG 232.5-->
<!DOCTYPE svg
PUBLIC "-//W3C//DTD SVG 1.1//EN"
       "http://www.w3.org/Graphics/SVG/1.1/DTD/svg11.dtd">
<svg version="1.1" xmlns="http://www.w3.org/2000/svg" xmlns:xlink="http://www.w3.org/1999/xlink" width="35.2692" height="36.6303">
 <g>
  <rect height="36.6303" opacity="0" width="35.2692" x="0" y="0"/>
  <path d="M18.2999 34.9838L33.7173 19.5297C34.8282 18.4189 34.9136 17.8207 34.9136 16.1606L34.9136 10.1669C34.9136 8.58002 34.584 8.10395 33.3878 6.91986L29.7257 3.25775C28.5416 2.06147 28.0655 1.73188 26.4786 1.73188L20.4849 1.73188C18.8248 1.73188 18.2266 1.81732 17.1158 2.92816L1.63727 18.3456C-0.53558 20.5185-0.559994 22.789 1.64948 24.9863L11.6592 34.9716C13.8809 37.1933 16.127 37.1689 18.2999 34.9838ZM16.835 33.3725C15.6265 34.5932 14.3448 34.6054 13.0997 33.3603L3.27301 23.5336C2.0279 22.2885 2.05231 20.9946 3.26081 19.7983L18.6417 4.45404C18.9957 4.10004 19.3741 3.89252 19.9478 3.89252L26.5762 3.89252C27.1133 3.89252 27.4918 4.08783 27.8702 4.45404L32.1915 8.77533C32.5577 9.15375 32.753 9.53217 32.753 10.0693L32.753 16.6977C32.753 17.2714 32.5455 17.6498 32.1915 18.0038ZM24.6719 13.9755C25.8194 13.9755 26.6739 13.0966 26.6739 11.9736C26.6739 10.8505 25.8194 9.97162 24.6719 9.97162C23.5245 9.97162 22.67 10.8505 22.67 11.9736C22.67 13.0966 23.5245 13.9755 24.6719 13.9755Z" fill="#000000" fill-opacity="0.85"/>
 </g>
</svg>
