<?xml version="1.0" encoding="UTF-8"?>
<!--Generator: Apple Native CoreSVG 326-->
<!DOCTYPE svg
PUBLIC "-//W3C//DTD SVG 1.1//EN"
       "http://www.w3.org/Graphics/SVG/1.1/DTD/svg11.dtd">
<svg version="1.1" xmlns="http://www.w3.org/2000/svg" xmlns:xlink="http://www.w3.org/1999/xlink" viewBox="0 0 68.4814 67.2295">
 <g>
  <rect height="67.2295" opacity="0" width="68.4814" x="0" y="0"/>
  <path d="M34.0576 63.2168C34.8633 63.2168 35.6689 63.1924 36.4746 63.1191L38.1104 66.1953C38.5254 66.9766 39.1357 67.2695 39.9902 67.1475C40.8447 67.001 41.2842 66.4883 41.4062 65.6338L41.9189 62.1914C43.4814 61.752 44.9707 61.1904 46.4355 60.5313L48.999 62.8506C49.6338 63.4609 50.3662 63.4854 51.0986 63.0947C51.8555 62.6797 52.124 62.0205 51.9287 61.166L51.1963 57.7481C52.5146 56.8447 53.7354 55.7949 54.8828 54.6963L58.1055 55.9902C58.9355 56.3076 59.5947 56.1123 60.1807 55.4775C60.7422 54.8428 60.7666 54.1348 60.3027 53.3779L58.4473 50.4238C59.3506 49.1055 60.1562 47.7383 60.8398 46.2979L64.3066 46.4199C65.1855 46.4443 65.7715 46.0537 66.0645 45.2236C66.3818 44.4424 66.1865 43.7588 65.5029 43.2217L62.7197 41.0977C63.1348 39.5596 63.4277 37.9971 63.5742 36.3613L66.8701 35.2871C67.7246 35.0186 68.1396 34.457 68.1396 33.6025C68.1396 32.7481 67.7246 32.1621 66.8701 31.8936L63.5742 30.8438C63.4277 29.208 63.1348 27.6211 62.7197 26.083L65.4785 23.959C66.1865 23.4219 66.333 22.7627 66.0889 21.9326C65.7715 21.1025 65.1611 20.7607 64.3066 20.7852L60.8398 20.8828C60.1562 19.4424 59.3506 18.0508 58.4473 16.7324L60.2783 13.8027C60.7666 13.0703 60.6689 12.3623 60.1807 11.7031C59.5947 11.0195 58.8867 10.8975 58.1299 11.1904L54.8828 12.5088C53.7354 11.3369 52.4902 10.3359 51.1963 9.40821L51.9287 6.03907C52.0996 5.16016 51.8311 4.5254 51.123 4.08594C50.3418 3.67091 49.6338 3.76856 49.0234 4.33009L46.4111 6.64942C44.9707 5.96583 43.457 5.45313 41.8945 5.01368L41.4062 1.5713C41.2842 0.69239 40.7959 0.228523 39.9902 0.0332104C39.1357-0.113274 38.501 0.228523 38.1104 0.985359L36.4502 4.06153C35.6689 4.0127 34.8633 3.96387 34.0576 3.96387C33.252 3.96387 32.4707 4.0127 31.665 4.06153L30.0293 0.985359C29.6143 0.204109 28.9795-0.0644458 28.1494 0.0332104C27.2949 0.179695 26.8311 0.716804 26.709 1.54688L26.1963 5.01368C24.6338 5.45313 23.1445 6.01466 21.6797 6.67384L19.1406 4.33009C18.4814 3.74415 17.7734 3.69532 17.0166 4.08594C16.2842 4.5254 16.0156 5.18458 16.1865 6.01466L16.9189 9.45704C15.6006 10.3604 14.3799 11.3857 13.2568 12.5088L10.0342 11.1904C9.22852 10.8731 8.52051 11.0684 7.95898 11.7031C7.39746 12.3623 7.37305 13.0703 7.83691 13.8027L9.69238 16.7568C8.76465 18.0752 7.9834 19.4668 7.27539 20.9072L3.83301 20.7607C2.92969 20.7363 2.34375 21.1514 2.05078 21.957C1.75781 22.7627 1.97754 23.4219 2.66113 23.959L5.41992 26.1074C4.98047 27.6455 4.71191 29.208 4.56543 30.8438L1.24512 31.8936C0.415039 32.1621 0 32.7481 0 33.6025C0 34.457 0.415039 35.0186 1.24512 35.2871L4.56543 36.3613C4.71191 37.9971 4.98047 39.5596 5.41992 41.0977L2.66113 43.2461C1.97754 43.7832 1.80664 44.4424 2.05078 45.2481C2.36816 46.0781 2.92969 46.4199 3.80859 46.3955L7.27539 46.2979C7.9834 47.7627 8.76465 49.1299 9.69238 50.4482L7.83691 53.3779C7.37305 54.1348 7.44629 54.8428 7.95898 55.502C8.54492 56.1611 9.22852 56.3076 10.0098 55.9902L13.2568 54.6719C14.3799 55.8193 15.625 56.8447 16.9189 57.7725L16.2109 61.166C16.04 62.0449 16.3086 62.6797 17.0166 63.1191C17.7979 63.5342 18.4814 63.4609 19.1162 62.875L21.7285 60.5313C23.1689 61.2149 24.6582 61.752 26.2207 62.1914L26.709 65.6338C26.8311 66.4883 27.3193 66.9766 28.1494 67.1475C29.0039 67.294 29.6143 66.9766 30.0293 66.2197L31.665 63.1191C32.4707 63.1924 33.252 63.2168 34.0576 63.2168ZM34.0576 58.7734C20.166 58.7734 8.88672 47.4941 8.88672 33.6025C8.88672 19.6865 20.166 8.40723 34.0576 8.40723C47.9736 8.40723 59.2529 19.6865 59.2529 33.6025C59.2529 47.4941 47.9736 58.7734 34.0576 58.7734ZM28.9795 28.8174L32.2266 26.8154L21.6064 8.57813L18.2373 10.458ZM40.7959 35.4092L61.9385 35.4092L61.9385 31.625L40.7959 31.625ZM32.3486 40.4385L29.1504 38.3877L18.0176 56.6494L21.3379 58.6025ZM34.1064 41.415C38.4277 41.415 41.9189 37.9238 41.9189 33.6025C41.9189 29.2813 38.4277 25.7656 34.1064 25.7656C29.7852 25.7656 26.2695 29.2813 26.2695 33.6025C26.2695 37.9238 29.7852 41.415 34.1064 41.415ZM34.1064 37.3623C32.0068 37.3623 30.3467 35.6777 30.3467 33.6025C30.3467 31.5274 32.0068 29.8428 34.1064 29.8428C36.1816 29.8428 37.8662 31.5274 37.8662 33.6025C37.8662 35.6777 36.1816 37.3623 34.1064 37.3623Z" fill="black" fill-opacity="0.85"/>
 </g>
</svg>
