<?xml version="1.0" encoding="UTF-8"?>
<!--Generator: Apple Native CoreSVG 232.5-->
<!DOCTYPE svg
PUBLIC "-//W3C//DTD SVG 1.1//EN"
       "http://www.w3.org/Graphics/SVG/1.1/DTD/svg11.dtd">
<svg version="1.1" xmlns="http://www.w3.org/2000/svg" xmlns:xlink="http://www.w3.org/1999/xlink" width="34.0576" height="29.2603">
 <g>
  <rect height="29.2603" opacity="0" width="34.0576" x="0" y="0"/>
  <path d="M32.7881 5.16357L30.6274 14.27C30.4321 14.9536 29.8096 15.2344 29.3213 14.7583L26.5747 11.9995L19.8242 18.7866C19.165 19.458 18.5181 19.7754 17.8223 19.7754C17.1265 19.7754 16.4551 19.458 15.8081 18.7866L9.81445 12.7319C9.61914 12.5366 9.43604 12.439 9.25293 12.439C9.06982 12.439 8.88672 12.5366 8.69141 12.7319L2.16064 19.3099L2.16064 16.0792L7.25098 10.9619C7.93457 10.2783 8.55713 9.98535 9.25293 9.98535C9.94873 9.98535 10.6079 10.2905 11.2549 10.9619L17.2607 17.0288C17.4561 17.2241 17.6392 17.3096 17.8223 17.3096C18.0054 17.3096 18.1885 17.2119 18.3838 17.0288L24.9512 10.376L22.2168 7.62939C21.7285 7.15332 22.0093 6.53076 22.6929 6.34766L31.7993 4.1748C32.4219 4.01611 32.9468 4.5166 32.7881 5.16357Z" fill="#000000" fill-opacity="0.85"/>
  <path d="M0 28.125C0 28.8086 0.45166 29.2603 1.13525 29.2603L32.6172 29.2603C33.2031 29.2603 33.7036 28.7964 33.7036 28.186C33.7036 27.5757 33.2031 27.1118 32.6172 27.1118L2.56348 27.1118C2.2583 27.1118 2.16064 27.0142 2.16064 26.709L2.16064 1.23291C2.16064 0.65918 1.69678 0.146484 1.08643 0.146484C0.476074 0.146484 0 0.65918 0 1.23291Z" fill="#000000" fill-opacity="0.85"/>
 </g>
</svg>
