<?xml version="1.0" encoding="UTF-8"?>
<!--Generator: Apple Native CoreSVG 326-->
<!DOCTYPE svg
PUBLIC "-//W3C//DTD SVG 1.1//EN"
       "http://www.w3.org/Graphics/SVG/1.1/DTD/svg11.dtd">
<svg version="1.1" xmlns="http://www.w3.org/2000/svg" xmlns:xlink="http://www.w3.org/1999/xlink" viewBox="0 0 64.8438 54.7119">
 <g>
  <rect height="54.7119" opacity="0" width="64.8438" x="0" y="0"/>
  <path d="M11.1084 54.7119C13.5742 54.7119 14.8682 52.9785 15.5518 50.7568L29.6387 4.78516L61.9629 4.78516C63.4766 4.78516 64.502 3.83301 64.502 2.39258C64.502 0.976562 63.4766 0.0488281 61.9629 0.0488281L29.5654 0.0488281C26.8799 0.0488281 25.6592 1.0498 24.9268 3.34473L11.4258 48.3643L10.9619 48.3643L4.90723 27.1973C4.49219 25.7324 3.71094 25.0488 2.44141 25.0488C1.0498 25.0488 0 26.0498 0 27.3682C0 27.8809 0.12207 28.3691 0.268555 28.8086L6.98242 51.0498C7.6416 53.1982 8.83789 54.7119 11.1084 54.7119ZM35.6689 48.6328C36.6455 48.6328 37.1582 48.291 37.915 47.2412L45.4834 36.3281L45.6299 36.3281L53.1494 47.2412C53.9062 48.291 54.4189 48.6328 55.3955 48.6328C56.7383 48.6328 57.7148 47.7295 57.7148 46.46C57.7148 45.8496 57.5684 45.4102 57.1777 44.873L48.5596 32.8857L57.251 20.8496C57.666 20.2881 57.8125 19.8242 57.8125 19.2627C57.8125 18.0908 56.8604 17.1875 55.5664 17.1875C54.6143 17.1875 54.0527 17.5293 53.3691 18.5059L46.0205 29.4434L45.874 29.4434L38.3789 18.4814C37.6953 17.5293 37.1338 17.1875 36.1084 17.1875C34.8389 17.1875 33.7891 18.1641 33.7891 19.4092C33.7891 20.0439 33.96 20.4834 34.4238 21.0938L42.7246 32.7637L34.0088 45.0439C33.5938 45.5811 33.4717 45.9717 33.4717 46.582C33.4717 47.7295 34.4238 48.6328 35.6689 48.6328Z" fill="black" fill-opacity="0.85"/>
 </g>
</svg>
