<?xml version="1.0" encoding="UTF-8"?>
<!--Generator: Apple Native CoreSVG 232.5-->
<!DOCTYPE svg
PUBLIC "-//W3C//DTD SVG 1.1//EN"
       "http://www.w3.org/Graphics/SVG/1.1/DTD/svg11.dtd">
<svg version="1.1" xmlns="http://www.w3.org/2000/svg" xmlns:xlink="http://www.w3.org/1999/xlink" width="37.1094" height="26.5747">
 <g>
  <rect height="26.5747" opacity="0" width="37.1094" x="0" y="0"/>
  <path d="M6.83594 21.2769L10.6934 21.2769C11.6211 21.2769 12.2437 20.6543 12.2437 19.7754L12.2437 16.8457C12.2437 15.9668 11.6211 15.3442 10.6934 15.3442L6.83594 15.3442C5.9082 15.3442 5.28564 15.9668 5.28564 16.8457L5.28564 19.7754C5.28564 20.6543 5.9082 21.2769 6.83594 21.2769ZM1.12305 9.53369L35.6689 9.53369L35.6689 5.99365L1.12305 5.99365ZM4.74854 26.5747L31.9946 26.5747C35.1562 26.5747 36.7554 24.9756 36.7554 21.8628L36.7554 4.74854C36.7554 1.63574 35.1562 0.0366211 31.9946 0.0366211L4.74854 0.0366211C1.59912 0.0366211 0 1.62354 0 4.74854L0 21.8628C0 24.9878 1.59912 26.5747 4.74854 26.5747ZM4.79736 24.4019C3.08838 24.4019 2.16064 23.4985 2.16064 21.7529L2.16064 4.8584C2.16064 3.10059 3.08838 2.19727 4.79736 2.19727L31.958 2.19727C33.6304 2.19727 34.5825 3.10059 34.5825 4.8584L34.5825 21.7529C34.5825 23.4985 33.6304 24.4019 31.958 24.4019Z" fill="#000000" fill-opacity="0.85"/>
 </g>
</svg>
