<?xml version="1.0" encoding="UTF-8"?>
<!--Generator: Apple Native CoreSVG 326-->
<!DOCTYPE svg
PUBLIC "-//W3C//DTD SVG 1.1//EN"
       "http://www.w3.org/Graphics/SVG/1.1/DTD/svg11.dtd">
<svg version="1.1" xmlns="http://www.w3.org/2000/svg" xmlns:xlink="http://www.w3.org/1999/xlink" viewBox="0 0 76.4893 33.1299">
 <g>
  <rect height="33.1299" opacity="0" width="76.4893" x="0" y="0"/>
  <path d="M76.1475 8.22754C76.1475 2.85645 73.2666 0 67.8223 0L8.25195 0C2.83203 0 0 2.85645 0 8.22754L0 24.9023C0 30.2734 2.85645 33.1299 8.27637 33.1299L67.8467 33.1299C73.291 33.1299 76.1475 30.2734 76.1475 24.9023ZM71.7773 8.95996L71.7773 24.1943C71.7773 27.1973 70.1172 28.8086 67.2119 28.8086L8.88672 28.8086C5.98145 28.8086 4.32129 27.1973 4.32129 24.1943L4.32129 8.95996C4.32129 5.95703 5.98145 4.32129 8.91113 4.32129L67.2363 4.32129C70.1172 4.32129 71.7773 5.95703 71.7773 8.95996ZM11.4014 2.7832L9.0332 2.7832L9.0332 19.0918C9.0332 19.7998 9.57031 20.2637 10.2295 20.2637C10.9131 20.2637 11.4014 19.7754 11.4014 19.0674ZM16.9678 2.7832L14.624 2.7832L14.624 13.5986C14.624 14.3066 15.1367 14.7705 15.7959 14.7705C16.5039 14.7705 16.9678 14.2822 16.9678 13.5742ZM22.5342 2.7832L20.1904 2.7832L20.1904 13.5986C20.1904 14.3066 20.7031 14.7705 21.3623 14.7705C22.0703 14.7705 22.5342 14.2822 22.5342 13.5742ZM28.0762 2.7832L25.7324 2.7832L25.7324 13.5986C25.7324 14.3066 26.2451 14.7705 26.9043 14.7705C27.6123 14.7705 28.0762 14.2822 28.0762 13.5742ZM33.667 2.7832L31.3232 2.7832L31.3232 13.5986C31.3232 14.3066 31.8359 14.7705 32.4951 14.7705C33.2031 14.7705 33.667 14.2822 33.667 13.5742ZM39.2578 2.7832L36.9141 2.7832L36.9141 19.0918C36.9141 19.7998 37.4268 20.2637 38.0859 20.2637C38.7939 20.2637 39.2578 19.7754 39.2578 19.0674ZM44.8242 2.7832L42.4561 2.7832L42.4561 13.5986C42.4561 14.3066 42.9932 14.7705 43.6523 14.7705C44.3359 14.7705 44.8242 14.2822 44.8242 13.5742ZM50.3906 2.7832L48.0469 2.7832L48.0469 13.5986C48.0469 14.3066 48.5596 14.7705 49.2188 14.7705C49.9268 14.7705 50.3906 14.2822 50.3906 13.5742ZM55.957 2.7832L53.6133 2.7832L53.6133 13.5986C53.6133 14.3066 54.126 14.7705 54.7852 14.7705C55.4688 14.7705 55.957 14.2822 55.957 13.5742ZM61.5234 2.7832L59.1797 2.7832L59.1797 13.5986C59.1797 14.3066 59.6924 14.7705 60.3516 14.7705C61.0596 14.7705 61.5234 14.2822 61.5234 13.5742ZM67.0898 2.7832L64.7461 2.7832L64.7461 19.0918C64.7461 19.7998 65.2588 20.2637 65.918 20.2637C66.626 20.2637 67.0898 19.7754 67.0898 19.0674Z" fill="black" fill-opacity="0.85"/>
 </g>
</svg>
