<?xml version="1.0" encoding="UTF-8"?>
<!--Generator: Apple Native CoreSVG 326-->
<!DOCTYPE svg
PUBLIC "-//W3C//DTD SVG 1.1//EN"
       "http://www.w3.org/Graphics/SVG/1.1/DTD/svg11.dtd">
<svg version="1.1" xmlns="http://www.w3.org/2000/svg" xmlns:xlink="http://www.w3.org/1999/xlink" viewBox="0 0 39.0869 30.7739">
 <g>
  <rect height="30.7739" opacity="0" width="39.0869" x="0" y="0"/>
  <path d="M3.8208 25.7568L34.9243 25.7568C37.3047 25.7568 38.7329 24.3286 38.7329 21.9482L38.7329 3.80859C38.7329 1.42822 37.3047 0 34.9243 0L3.8208 0C1.44043 0 0 1.42822 0 3.80859L0 21.9482C0 24.3286 1.44043 25.7568 3.8208 25.7568ZM3.85742 23.5962C2.79541 23.5962 2.16064 22.9736 2.16064 21.9116L2.16064 3.85742C2.16064 2.7832 2.79541 2.16064 3.85742 2.16064L34.8755 2.16064C35.9375 2.16064 36.5723 2.7832 36.5723 3.85742L36.5723 21.9116C36.5723 22.9736 35.9375 23.5962 34.8755 23.5962ZM11.5601 30.7617L27.1851 30.7617C27.7832 30.7617 28.2715 30.2734 28.2715 29.6753C28.2715 29.0649 27.7832 28.5767 27.1851 28.5767L11.5601 28.5767C10.9497 28.5767 10.4614 29.0649 10.4614 29.6753C10.4614 30.2734 10.9497 30.7617 11.5601 30.7617Z" fill="black" fill-opacity="0.85"/>
  <path d="M15.2588 19.458C15.7715 19.458 16.1865 19.1162 16.1865 18.4692L16.1865 16.6382L16.8579 16.6382C17.395 16.6382 17.6514 16.2964 17.6514 15.8203C17.6514 15.3809 17.4072 15.0269 16.8579 15.0269L16.1865 15.0269L16.1865 7.8125C16.1865 6.83594 15.5518 6.32324 14.6729 6.32324C13.6963 6.32324 13.2446 6.83594 12.854 7.69043L9.79004 14.1724C9.55811 14.7095 9.47266 15.0757 9.47266 15.5029C9.47266 16.1743 9.93652 16.6382 10.6201 16.6382L14.2944 16.6382L14.2944 18.4692C14.2944 19.1772 14.7949 19.458 15.2588 19.458ZM14.3311 15.0635L11.1816 15.0635L11.1816 14.978L14.27 8.12988L14.3311 8.12988ZM20.6665 19.4824C21.3501 19.4824 21.6919 19.0063 21.6919 18.4326L21.6919 15.3564L22.7783 13.6841L25.7812 18.7256C26.0498 19.2017 26.3184 19.4458 26.8433 19.4458C27.3926 19.4458 27.7466 19.043 27.7466 18.5181C27.7466 18.2129 27.6733 18.0298 27.5024 17.7124L24.2188 12.2803L27.0996 8.06885C27.2583 7.83691 27.356 7.62939 27.356 7.2998C27.356 6.83594 27.0386 6.39648 26.4526 6.39648C25.9521 6.39648 25.7446 6.65283 25.5615 6.9458L21.7651 12.6953L21.6675 12.6953L21.6675 7.39746C21.6675 6.81152 21.3135 6.35986 20.6665 6.35986C20.0317 6.35986 19.6655 6.7749 19.6655 7.39746L19.6655 18.4326C19.6655 19.0552 20.0439 19.4824 20.6665 19.4824Z" fill="black" fill-opacity="0.85"/>
 </g>
</svg>
