<?xml version="1.0" encoding="UTF-8"?>
<!--Generator: Apple Native CoreSVG 326-->
<!DOCTYPE svg
PUBLIC "-//W3C//DTD SVG 1.1//EN"
       "http://www.w3.org/Graphics/SVG/1.1/DTD/svg11.dtd">
<svg version="1.1" xmlns="http://www.w3.org/2000/svg" xmlns:xlink="http://www.w3.org/1999/xlink" viewBox="0 0 37.0972 26.5015">
 <g>
  <rect height="26.5015" opacity="0" width="37.0972" x="0" y="0"/>
  <path d="M0 19.6655C0 23.4985 2.99072 26.5015 7.12891 26.5015L29.6265 26.5015C33.7524 26.5015 36.7432 23.4985 36.7432 19.6655C36.7432 18.5303 36.4014 17.4927 36.0107 16.5283L30.4932 3.6499C29.4922 1.26953 27.4902 0.0366211 24.8413 0.0366211L11.9019 0.0366211C9.26514 0.0366211 7.26318 1.26953 6.26221 3.6499L0.732422 16.5283C0.341797 17.4805 0 18.5303 0 19.6655ZM2.16064 19.6655C2.16064 17.0288 4.18701 15.0024 7.12891 15.0024L29.6265 15.0024C32.5562 15.0024 34.5825 17.0288 34.5825 19.6655C34.5825 22.5464 32.5562 24.3286 29.6265 24.3286L7.12891 24.3286C4.18701 24.3286 2.16064 22.3022 2.16064 19.6655ZM4.52881 13.3789L8.3374 4.22363C8.97217 2.70996 10.2295 1.94092 11.9751 1.94092L24.7803 1.94092C26.5137 1.94092 27.7832 2.70996 28.4058 4.22363L32.2021 13.3667C31.4331 13.0371 30.5542 12.8296 29.6265 12.8296L7.12891 12.8296C6.18896 12.8296 5.31006 13.0371 4.52881 13.3789ZM27.6489 19.6655C27.6489 20.752 28.54 21.582 29.6021 21.582C30.6274 21.582 31.5063 20.7275 31.5063 19.6655C31.5063 18.6401 30.6274 17.749 29.6021 17.749C28.54 17.749 27.6489 18.6401 27.6489 19.6655Z" fill="black" fill-opacity="0.85"/>
 </g>
</svg>
