<?xml version="1.0" encoding="UTF-8"?>
<!--Generator: Apple Native CoreSVG 232.5-->
<!DOCTYPE svg
PUBLIC "-//W3C//DTD SVG 1.1//EN"
       "http://www.w3.org/Graphics/SVG/1.1/DTD/svg11.dtd">
<svg version="1.1" xmlns="http://www.w3.org/2000/svg" xmlns:xlink="http://www.w3.org/1999/xlink" width="29.0527" height="28.7231">
 <g>
  <rect height="28.7231" opacity="0" width="29.0527" x="0" y="0"/>
  <path d="M4.74854 28.7231L23.938 28.7231C27.0996 28.7231 28.6987 27.1362 28.6987 24.0234L28.6987 4.73633C28.6987 1.62354 27.0996 0.0366211 23.938 0.0366211L4.74854 0.0366211C1.59912 0.0366211 0 1.61133 0 4.73633L0 24.0234C0 27.1484 1.59912 28.7231 4.74854 28.7231ZM4.79736 26.5625C3.08838 26.5625 2.16064 25.6592 2.16064 23.9136L2.16064 4.84619C2.16064 3.10059 3.08838 2.19727 4.79736 2.19727L23.9014 2.19727C25.5737 2.19727 26.5381 3.10059 26.5381 4.84619L26.5381 23.9136C26.5381 25.6592 25.5737 26.5625 23.9014 26.5625Z" fill="#000000" fill-opacity="0.85"/>
  <path d="M7.76367 4.96826C6.45752 4.96826 5.49316 5.98145 5.49316 7.36084C5.49316 9.48486 7.77588 11.3647 9.32617 12.3901C9.46045 12.4756 9.59473 12.5488 9.69238 12.5488C9.79004 12.5488 9.91211 12.4756 10.0464 12.3901C11.5967 11.438 13.8672 9.48486 13.8672 7.36084C13.8672 5.98145 12.9028 4.96826 11.5601 4.96826C10.7422 4.96826 10.0586 5.48096 9.68018 6.17676C9.28955 5.48096 8.61816 4.96826 7.76367 4.96826ZM6.35986 17.688L22.0337 17.688C22.522 17.688 22.8882 17.3096 22.8882 16.8213C22.8882 16.3574 22.522 15.9912 22.0337 15.9912L6.35986 15.9912C5.85938 15.9912 5.49316 16.3574 5.49316 16.8213C5.49316 17.3096 5.85938 17.688 6.35986 17.688ZM6.35986 22.9858L17.7612 22.9858C18.2495 22.9858 18.6157 22.6196 18.6157 22.1558C18.6157 21.6675 18.2495 21.2891 17.7612 21.2891L6.35986 21.2891C5.85938 21.2891 5.49316 21.6675 5.49316 22.1558C5.49316 22.6196 5.85938 22.9858 6.35986 22.9858Z" fill="#000000" fill-opacity="0.85"/>
 </g>
</svg>
