<?xml version="1.0" encoding="UTF-8"?>
<!--Generator: Apple Native CoreSVG 326-->
<!DOCTYPE svg
PUBLIC "-//W3C//DTD SVG 1.1//EN"
       "http://www.w3.org/Graphics/SVG/1.1/DTD/svg11.dtd">
<svg version="1.1" xmlns="http://www.w3.org/2000/svg" xmlns:xlink="http://www.w3.org/1999/xlink" viewBox="0 0 62.8906 57.4463">
 <g>
  <rect height="57.4463" opacity="0" width="62.8906" x="0" y="0"/>
  <path d="M9.49707 57.4463L53.0273 57.4463C59.3506 57.4463 62.5488 54.2725 62.5488 48.0469L62.5488 9.47266C62.5488 3.24707 59.3506 0.0732422 53.0273 0.0732422L9.49707 0.0732422C3.19824 0.0732422 0 3.22266 0 9.47266L0 48.0469C0 54.2969 3.19824 57.4463 9.49707 57.4463ZM9.15527 53.125C6.03027 53.125 4.32129 51.4648 4.32129 48.2422L4.32129 19.1162C4.32129 15.8691 6.03027 14.2334 9.15527 14.2334L53.3447 14.2334C56.4453 14.2334 58.2031 15.8691 58.2031 19.1162L58.2031 48.2422C58.2031 51.4648 56.4453 53.125 53.3447 53.125ZM25.0488 25.4639L26.9043 25.4639C27.9541 25.4639 28.2471 25.1709 28.2471 24.1455L28.2471 22.3145C28.2471 21.2891 27.9541 21.0205 26.9043 21.0205L25.0488 21.0205C24.0234 21.0205 23.7305 21.2891 23.7305 22.3145L23.7305 24.1455C23.7305 25.1709 24.0234 25.4639 25.0488 25.4639ZM35.6689 25.4639L37.5244 25.4639C38.5498 25.4639 38.8428 25.1709 38.8428 24.1455L38.8428 22.3145C38.8428 21.2891 38.5498 21.0205 37.5244 21.0205L35.6689 21.0205C34.6191 21.0205 34.3262 21.2891 34.3262 22.3145L34.3262 24.1455C34.3262 25.1709 34.6191 25.4639 35.6689 25.4639ZM46.2646 25.4639L48.1201 25.4639C49.1455 25.4639 49.4629 25.1709 49.4629 24.1455L49.4629 22.3145C49.4629 21.2891 49.1455 21.0205 48.1201 21.0205L46.2646 21.0205C45.2393 21.0205 44.9219 21.2891 44.9219 22.3145L44.9219 24.1455C44.9219 25.1709 45.2393 25.4639 46.2646 25.4639ZM14.4531 35.8887L16.3086 35.8887C17.334 35.8887 17.6514 35.6201 17.6514 34.5947L17.6514 32.7393C17.6514 31.7383 17.334 31.4453 16.3086 31.4453L14.4531 31.4453C13.4277 31.4453 13.1104 31.7383 13.1104 32.7393L13.1104 34.5947C13.1104 35.6201 13.4277 35.8887 14.4531 35.8887ZM25.0488 35.8887L26.9043 35.8887C27.9541 35.8887 28.2471 35.6201 28.2471 34.5947L28.2471 32.7393C28.2471 31.7383 27.9541 31.4453 26.9043 31.4453L25.0488 31.4453C24.0234 31.4453 23.7305 31.7383 23.7305 32.7393L23.7305 34.5947C23.7305 35.6201 24.0234 35.8887 25.0488 35.8887ZM35.6689 35.8887L37.5244 35.8887C38.5498 35.8887 38.8428 35.6201 38.8428 34.5947L38.8428 32.7393C38.8428 31.7383 38.5498 31.4453 37.5244 31.4453L35.6689 31.4453C34.6191 31.4453 34.3262 31.7383 34.3262 32.7393L34.3262 34.5947C34.3262 35.6201 34.6191 35.8887 35.6689 35.8887ZM46.2646 35.8887L48.1201 35.8887C49.1455 35.8887 49.4629 35.6201 49.4629 34.5947L49.4629 32.7393C49.4629 31.7383 49.1455 31.4453 48.1201 31.4453L46.2646 31.4453C45.2393 31.4453 44.9219 31.7383 44.9219 32.7393L44.9219 34.5947C44.9219 35.6201 45.2393 35.8887 46.2646 35.8887ZM14.4531 46.3379L16.3086 46.3379C17.334 46.3379 17.6514 46.0693 17.6514 45.0439L17.6514 43.1885C17.6514 42.1631 17.334 41.8945 16.3086 41.8945L14.4531 41.8945C13.4277 41.8945 13.1104 42.1631 13.1104 43.1885L13.1104 45.0439C13.1104 46.0693 13.4277 46.3379 14.4531 46.3379ZM25.0488 46.3379L26.9043 46.3379C27.9541 46.3379 28.2471 46.0693 28.2471 45.0439L28.2471 43.1885C28.2471 42.1631 27.9541 41.8945 26.9043 41.8945L25.0488 41.8945C24.0234 41.8945 23.7305 42.1631 23.7305 43.1885L23.7305 45.0439C23.7305 46.0693 24.0234 46.3379 25.0488 46.3379ZM35.6689 46.3379L37.5244 46.3379C38.5498 46.3379 38.8428 46.0693 38.8428 45.0439L38.8428 43.1885C38.8428 42.1631 38.5498 41.8945 37.5244 41.8945L35.6689 41.8945C34.6191 41.8945 34.3262 42.1631 34.3262 43.1885L34.3262 45.0439C34.3262 46.0693 34.6191 46.3379 35.6689 46.3379Z" fill="black" fill-opacity="0.85"/>
 </g>
</svg>
