<?xml version="1.0" encoding="UTF-8"?>
<!--Generator: Apple Native CoreSVG 326-->
<!DOCTYPE svg
PUBLIC "-//W3C//DTD SVG 1.1//EN"
       "http://www.w3.org/Graphics/SVG/1.1/DTD/svg11.dtd">
<svg version="1.1" xmlns="http://www.w3.org/2000/svg" xmlns:xlink="http://www.w3.org/1999/xlink" viewBox="0 0 63.9404 63.6475">
 <g>
  <rect height="63.6475" opacity="0" width="63.9404" x="0" y="0"/>
  <path d="M31.7871 63.5986C49.3408 63.5986 63.5986 49.3652 63.5986 31.8115C63.5986 14.2578 49.3408 0 31.7871 0C14.2334 0 0 14.2578 0 31.8115C0 49.3652 14.2334 63.5986 31.7871 63.5986ZM31.7871 59.0576C16.7236 59.0576 4.54102 46.875 4.54102 31.8115C4.54102 16.748 16.7236 4.56543 31.7871 4.56543C46.8506 4.56543 59.0332 16.748 59.0332 31.8115C59.0332 46.875 46.8506 59.0576 31.7871 59.0576Z" fill="black" fill-opacity="0.85"/>
  <path d="M31.7871 42.5293C34.4238 42.5293 37.0605 41.6016 38.7695 39.9414C39.7217 38.9893 40.5518 37.5 40.5518 36.4502C40.5518 35.5225 39.8438 35.0342 39.0869 35.0342C38.3057 35.0342 37.9639 35.5469 37.6465 36.1084C36.4746 38.5254 34.6436 39.8193 31.8115 39.8193C27.2217 39.8193 24.9756 36.3281 24.9756 31.665C24.9756 26.9775 27.2705 23.5107 31.7627 23.5107C34.4971 23.5107 36.5723 24.7314 37.6221 27.2217C37.915 27.9053 38.4277 28.2959 39.0869 28.2959C39.917 28.2959 40.5029 27.7588 40.5029 26.8799C40.5029 25.708 39.6484 24.3652 38.6963 23.3887C37.0117 21.7285 34.4971 20.8008 31.7383 20.8008C25.415 20.8008 21.7529 25.3662 21.7529 31.665C21.7529 38.3545 25.708 42.5293 31.7871 42.5293ZM31.6406 46.167C32.2021 46.167 32.6172 45.752 32.6172 45.1904L32.6172 18.1152C32.6172 17.5781 32.2021 17.1387 31.6406 17.1387C31.1035 17.1387 30.6641 17.5781 30.6641 18.1152L30.6641 45.1904C30.6641 45.752 31.1035 46.167 31.6406 46.167Z" fill="black" fill-opacity="0.85"/>
 </g>
</svg>
