<?xml version="1.0" encoding="UTF-8"?>
<!--Generator: Apple Native CoreSVG 326-->
<!DOCTYPE svg
PUBLIC "-//W3C//DTD SVG 1.1//EN"
       "http://www.w3.org/Graphics/SVG/1.1/DTD/svg11.dtd">
<svg version="1.1" xmlns="http://www.w3.org/2000/svg" xmlns:xlink="http://www.w3.org/1999/xlink" viewBox="0 0 77.8076 61.5479">
 <g>
  <rect height="61.5479" opacity="0" width="77.8076" x="0" y="0"/>
  <path d="M7.6416 51.5137L69.8486 51.5137C74.6094 51.5137 77.4658 48.6572 77.4658 43.8965L77.4658 7.61719C77.4658 2.85645 74.6094 0 69.8486 0L7.6416 0C2.88086 0 0 2.85645 0 7.61719L0 43.8965C0 48.6572 2.88086 51.5137 7.6416 51.5137ZM7.71484 47.1924C5.59082 47.1924 4.32129 45.9473 4.32129 43.8232L4.32129 7.71484C4.32129 5.56641 5.59082 4.32129 7.71484 4.32129L69.751 4.32129C71.875 4.32129 73.1445 5.56641 73.1445 7.71484L73.1445 43.8232C73.1445 45.9473 71.875 47.1924 69.751 47.1924ZM23.1201 61.5234L54.3701 61.5234C55.5664 61.5234 56.543 60.5469 56.543 59.3506C56.543 58.1299 55.5664 57.1533 54.3701 57.1533L23.1201 57.1533C21.8994 57.1533 20.9229 58.1299 20.9229 59.3506C20.9229 60.5469 21.8994 61.5234 23.1201 61.5234Z" fill="black" fill-opacity="0.85"/>
  <path d="M30.5176 38.916C31.543 38.916 32.373 38.2324 32.373 36.9385L32.373 33.2764L33.7158 33.2764C34.79 33.2764 35.3027 32.5928 35.3027 31.6406C35.3027 30.7617 34.8145 30.0537 33.7158 30.0537L32.373 30.0537L32.373 15.625C32.373 13.6719 31.1035 12.6465 29.3457 12.6465C27.3926 12.6465 26.4893 13.6719 25.708 15.3809L19.5801 28.3447C19.1162 29.4189 18.9453 30.1514 18.9453 31.0059C18.9453 32.3486 19.873 33.2764 21.2402 33.2764L28.5889 33.2764L28.5889 36.9385C28.5889 38.3545 29.5898 38.916 30.5176 38.916ZM28.6621 30.127L22.3633 30.127L22.3633 29.9561L28.54 16.2598L28.6621 16.2598ZM41.333 38.9648C42.7002 38.9648 43.3838 38.0127 43.3838 36.8652L43.3838 30.7129L45.5566 27.3682L51.5625 37.4512C52.0996 38.4033 52.6367 38.8916 53.6865 38.8916C54.7852 38.8916 55.4932 38.0859 55.4932 37.0361C55.4932 36.4258 55.3467 36.0596 55.0049 35.4248L48.4375 24.5605L54.1992 16.1377C54.5166 15.6738 54.7119 15.2588 54.7119 14.5996C54.7119 13.6719 54.0771 12.793 52.9053 12.793C51.9043 12.793 51.4893 13.3057 51.123 13.8916L43.5303 25.3906L43.335 25.3906L43.335 14.7949C43.335 13.623 42.627 12.7197 41.333 12.7197C40.0635 12.7197 39.3311 13.5498 39.3311 14.7949L39.3311 36.8652C39.3311 38.1104 40.0879 38.9648 41.333 38.9648Z" fill="black" fill-opacity="0.85"/>
 </g>
</svg>
