<?xml version="1.0" encoding="UTF-8"?>
<!--Generator: Apple Native CoreSVG 326-->
<!DOCTYPE svg
PUBLIC "-//W3C//DTD SVG 1.1//EN"
       "http://www.w3.org/Graphics/SVG/1.1/DTD/svg11.dtd">
<svg version="1.1" xmlns="http://www.w3.org/2000/svg" xmlns:xlink="http://www.w3.org/1999/xlink" viewBox="0 0 73.8525 53.1494">
 <g>
  <rect height="53.1494" opacity="0" width="73.8525" x="0" y="0"/>
  <path d="M13.6719 42.5537L21.3867 42.5537C23.2422 42.5537 24.4873 41.3086 24.4873 39.5508L24.4873 33.6914C24.4873 31.9336 23.2422 30.6885 21.3867 30.6885L13.6719 30.6885C11.8164 30.6885 10.5713 31.9336 10.5713 33.6914L10.5713 39.5508C10.5713 41.3086 11.8164 42.5537 13.6719 42.5537ZM2.24609 19.0674L71.3379 19.0674L71.3379 11.9873L2.24609 11.9873ZM9.49707 53.1494L63.9893 53.1494C70.3125 53.1494 73.5107 49.9512 73.5107 43.7256L73.5107 9.49707C73.5107 3.27148 70.3125 0.0732422 63.9893 0.0732422L9.49707 0.0732422C3.19824 0.0732422 0 3.24707 0 9.49707L0 43.7256C0 49.9756 3.19824 53.1494 9.49707 53.1494ZM9.59473 48.8037C6.17676 48.8037 4.32129 46.9971 4.32129 43.5059L4.32129 9.7168C4.32129 6.20117 6.17676 4.39453 9.59473 4.39453L63.916 4.39453C67.2607 4.39453 69.165 6.20117 69.165 9.7168L69.165 43.5059C69.165 46.9971 67.2607 48.8037 63.916 48.8037Z" fill="black" fill-opacity="0.85"/>
 </g>
</svg>
