<?xml version="1.0" encoding="UTF-8"?>
<!--Generator: Apple Native CoreSVG 232.5-->
<!DOCTYPE svg
PUBLIC "-//W3C//DTD SVG 1.1//EN"
       "http://www.w3.org/Graphics/SVG/1.1/DTD/svg11.dtd">
<svg version="1.1" xmlns="http://www.w3.org/2000/svg" xmlns:xlink="http://www.w3.org/1999/xlink" width="32.1533" height="31.8237">
 <g>
  <rect height="31.8237" opacity="0" width="32.1533" x="0" y="0"/>
  <path d="M15.8936 31.7993C24.5972 31.7993 31.7993 24.5972 31.7993 15.9058C31.7993 7.20215 24.585 0 15.8813 0C7.18994 0 0 7.20215 0 15.9058C0 24.5972 7.20215 31.7993 15.8936 31.7993ZM15.8936 29.5288C8.34961 29.5288 2.28271 23.4497 2.28271 15.9058C2.28271 8.34961 8.3374 2.28271 15.8813 2.28271C23.4375 2.28271 29.5166 8.34961 29.5166 15.9058C29.5166 23.4497 23.4497 29.5288 15.8936 29.5288Z" fill="#000000" fill-opacity="0.85"/>
  <path d="M7.44629 17.5049L15.8813 17.5049C16.4185 17.5049 16.8335 17.0898 16.8335 16.5527L16.8335 5.66406C16.8335 5.13916 16.4185 4.72412 15.8813 4.72412C15.3687 4.72412 14.9414 5.13916 14.9414 5.66406L14.9414 15.6128L7.44629 15.6128C6.90918 15.6128 6.50635 16.0278 6.50635 16.5527C6.50635 17.0898 6.90918 17.5049 7.44629 17.5049Z" fill="#000000" fill-opacity="0.85"/>
 </g>
</svg>
