<?xml version="1.0" encoding="UTF-8"?>
<!--Generator: Apple Native CoreSVG 326-->
<!DOCTYPE svg
PUBLIC "-//W3C//DTD SVG 1.1//EN"
       "http://www.w3.org/Graphics/SVG/1.1/DTD/svg11.dtd">
<svg version="1.1" xmlns="http://www.w3.org/2000/svg" xmlns:xlink="http://www.w3.org/1999/xlink" viewBox="0 0 71.8506 70.3857">
 <g>
  <rect height="70.3857" opacity="0" width="71.8506" x="0" y="0"/>
  <path d="M35.7666 11.6455C37.9639 11.6455 39.6973 9.69238 39.6973 7.17773C39.6973 4.61426 38.8916 2.92969 37.3535 1.12305C36.4014-0.0488281 35.2539-0.0488281 34.3018 0.976562C32.7637 2.80762 31.8359 4.49219 31.8359 7.17773C31.8359 9.69238 33.5938 11.6455 35.7666 11.6455ZM34.1553 26.001L37.2559 26.001L37.2559 8.66699L34.1553 8.66699ZM15.5762 41.3818L19.9219 41.3818L19.9219 33.3984C19.9219 30.3955 21.6553 28.7109 24.5605 28.7109L46.9727 28.7109C49.8779 28.7109 51.6113 30.3955 51.6113 33.3984L51.6113 41.3818L55.957 41.3818L55.957 33.1787C55.957 27.4414 52.8809 24.3896 47.0703 24.3896L24.4629 24.3896C18.6768 24.3896 15.5762 27.4414 15.5762 33.1787ZM4.95605 68.4814L9.27734 68.4814L9.27734 49.1943C9.27734 46.1914 11.0107 44.5068 13.916 44.5068L57.6172 44.5068C60.5225 44.5068 62.2559 46.1914 62.2559 49.1943L62.2559 68.4814L66.5771 68.4814L66.5771 48.9746C66.5771 43.2129 63.5254 40.1855 57.6904 40.1855L13.8428 40.1855C8.03223 40.1855 4.95605 43.2129 4.95605 48.9746ZM35.7178 55.3223C38.501 55.3223 40.625 58.8379 45.166 58.8379C49.6094 58.8379 51.6113 55.3223 54.248 55.3223C56.8848 55.3223 58.9111 58.8379 63.6719 58.8379L64.3799 58.8379L64.3799 54.6387L63.6719 54.6387C60.5469 54.6387 58.5205 51.123 54.248 51.123C49.9512 51.123 48.3154 54.6387 45.166 54.6387C41.5527 54.6387 40.0635 51.123 35.7178 51.123C31.3721 51.123 29.8584 54.6387 26.2451 54.6387C23.0957 54.6387 21.4844 51.123 17.1875 51.123C12.8906 51.123 10.8887 54.6387 7.76367 54.6387L6.90918 54.6387L6.90918 58.8379L7.76367 58.8379C12.5244 58.8379 14.5508 55.3223 17.1875 55.3223C19.7998 55.3223 21.8018 58.8379 26.2451 58.8379C30.8105 58.8379 32.9346 55.3223 35.7178 55.3223ZM2.17285 70.3857L69.3604 70.3857C70.5322 70.3857 71.5088 69.4092 71.5088 68.2129C71.5088 67.041 70.5322 66.0645 69.3604 66.0645L2.17285 66.0645C0.976562 66.0645 0 67.041 0 68.2129C0 69.4092 0.976562 70.3857 2.17285 70.3857Z" fill="black" fill-opacity="0.85"/>
 </g>
</svg>
