<?xml version="1.0" encoding="UTF-8"?>
<!--Generator: Apple Native CoreSVG 326-->
<!DOCTYPE svg
PUBLIC "-//W3C//DTD SVG 1.1//EN"
       "http://www.w3.org/Graphics/SVG/1.1/DTD/svg11.dtd">
<svg version="1.1" xmlns="http://www.w3.org/2000/svg" xmlns:xlink="http://www.w3.org/1999/xlink" viewBox="0 0 57.7393 57.3975">
 <g>
  <rect height="57.3975" opacity="0" width="57.7393" x="0" y="0"/>
  <path d="M9.49707 57.3975L47.876 57.3975C54.1992 57.3975 57.3975 54.1992 57.3975 47.998L57.3975 9.42383C57.3975 3.19824 54.1992 0 47.876 0L9.49707 0C3.19824 0 0 3.17383 0 9.42383L0 47.998C0 54.248 3.19824 57.3975 9.49707 57.3975ZM9.59473 53.0762C6.17676 53.0762 4.32129 51.2695 4.32129 47.7539L4.32129 9.64355C4.32129 6.15234 6.17676 4.32129 9.59473 4.32129L47.8027 4.32129C51.1475 4.32129 53.0762 6.15234 53.0762 9.64355L53.0762 47.7539C53.0762 51.2695 51.1475 53.0762 47.8027 53.0762Z" fill="black" fill-opacity="0.85"/>
  <path d="M15.5273 9.91211C12.915 9.91211 10.9863 11.9385 10.9863 14.6973C10.9863 18.9453 15.5518 22.7051 18.6523 24.7559C18.9209 24.9268 19.1895 25.0732 19.3848 25.0732C19.5801 25.0732 19.8242 24.9268 20.0928 24.7559C23.1934 22.8516 27.7344 18.9453 27.7344 14.6973C27.7344 11.9385 25.8057 9.91211 23.1201 9.91211C21.4844 9.91211 20.1172 10.9375 19.3604 12.3291C18.5791 10.9375 17.2363 9.91211 15.5273 9.91211ZM12.7197 35.3516L44.0674 35.3516C45.0439 35.3516 45.7764 34.5947 45.7764 33.6182C45.7764 32.6904 45.0439 31.958 44.0674 31.958L12.7197 31.958C11.7188 31.958 10.9863 32.6904 10.9863 33.6182C10.9863 34.5947 11.7188 35.3516 12.7197 35.3516ZM12.7197 45.9473L35.5225 45.9473C36.499 45.9473 37.2314 45.2148 37.2314 44.2871C37.2314 43.3105 36.499 42.5537 35.5225 42.5537L12.7197 42.5537C11.7188 42.5537 10.9863 43.3105 10.9863 44.2871C10.9863 45.2148 11.7188 45.9473 12.7197 45.9473Z" fill="black" fill-opacity="0.85"/>
 </g>
</svg>
