<?xml version="1.0" encoding="UTF-8"?>
<!--Generator: Apple Native CoreSVG 326-->
<!DOCTYPE svg
PUBLIC "-//W3C//DTD SVG 1.1//EN"
       "http://www.w3.org/Graphics/SVG/1.1/DTD/svg11.dtd">
<svg version="1.1" xmlns="http://www.w3.org/2000/svg" xmlns:xlink="http://www.w3.org/1999/xlink" viewBox="0 0 40.0391 70.6299">
 <g>
  <rect height="70.6299" opacity="0" width="40.0391" x="0" y="0"/>
  <path d="M19.9951 62.8662C30.4932 62.8662 39.6973 57.5684 39.6973 47.6318C39.6973 38.3301 32.1777 35.0098 23.6572 32.959L17.5781 31.4941C11.5723 30.0537 6.34766 27.4902 6.34766 21.7285C6.34766 15.2588 13.2568 11.9141 19.9463 11.9141C26.6602 11.9141 32.1289 15.1611 33.667 21.0938C34.0576 22.3633 34.8877 23.2422 36.3037 23.2422C37.7197 23.2422 38.7207 22.29 38.7207 20.874C38.7207 18.3838 37.1094 15.1123 35.0098 12.9639C31.1768 9.13086 25.6104 7.32422 19.9463 7.32422C10.3027 7.32422 1.2207 12.5488 1.2207 22.0947C1.2207 30.6641 8.69141 34.4482 16.6992 36.3037L22.7539 37.7197C29.1016 39.1846 34.5947 41.5283 34.5947 47.998C34.5947 55.1758 27.7588 58.3252 20.0684 58.3252C12.7197 58.3252 6.54297 55.2002 5.00488 48.5107C4.63867 47.1924 3.85742 46.4111 2.49023 46.4111C1.00098 46.4111 0 47.4609 0 48.7793C0 51.6357 1.87988 55.0537 3.97949 57.1045C8.12988 61.1572 14.1357 62.8662 19.9951 62.8662ZM19.8486 70.5811C20.8252 70.5811 21.6309 69.7754 21.6309 68.8232L21.6309 1.78223C21.6309 0.805664 20.8252 0 19.8486 0C18.8721 0 18.0664 0.805664 18.0664 1.78223L18.0664 68.8232C18.0664 69.7754 18.8721 70.5811 19.8486 70.5811Z" fill="black" fill-opacity="0.85"/>
 </g>
</svg>
