<?xml version="1.0" encoding="UTF-8"?>
<!-- Generator: CustomSymbols v2.7.4.50 by @serious_bret https://bretlester.com/app_content/CustomSymbols/ -->
<!-- Guides: Left/Right 0.5/0.5 Cap/Base 0.18/0.18 -->
<!-- Settings: RefScale 1.0 Min/Max Stroke Scales 0.5/2.0 -->
<!DOCTYPE svg
PUBLIC "-//W3C//DTD SVG 1.1//EN"
       "http://www.w3.org/Graphics/SVG/1.1/DTD/svg11.dtd">
<svg version="1.1" xmlns="http://www.w3.org/2000/svg" xmlns:xlink="http://www.w3.org/1999/xlink" width="3300" height="2200">
<![CDATA[<?xml version="1.0" encoding="UTF-8"?>
<svg width="49px" height="71px" viewBox="0 0 49 71" version="1.1" xmlns="http://www.w3.org/2000/svg" xmlns:xlink="http://www.w3.org/1999/xlink">
    <title>Shape</title>
    <g id="Page-1" stroke="none" stroke-width="1" fill="none" fill-rule="evenodd">
        <g id="Shape" fill="#000000">
            <path d="M42.8198198,0 C46.2330391,0 49,2.77795854 49,6.20474407 L49,64.7952559 C49,68.2220416 46.2330391,71 42.8198198,71 L6.18018017,71 C2.76696091,71 0,68.2220416 0,64.7952559 L0,6.20474407 C0,2.77795854 2.76696091,0 6.18018017,0 L42.8198198,0 Z M26.3557636,56.1898822 L8.23823638,56.1898822 C6.52988911,56.1898822 5.145,57.5777063 5.145,59.2896743 L5.145,62.8322938 C5.145,64.5442618 6.52988911,65.9320859 8.23823638,65.9320859 L26.3557636,65.9320859 C28.0641109,65.9320859 29.449,64.5442618 29.449,62.8322938 L29.449,59.2896743 C29.449,57.5777063 28.0641109,56.1898822 26.3557636,56.1898822 Z M40.866,56.1898822 L37.338,56.1898822 C35.633097,56.1898822 34.251,57.5777063 34.251,59.2896743 L34.251,62.8322938 C34.251,64.5442618 35.633097,65.9320859 37.338,65.9320859 L40.866,65.9320859 C42.570903,65.9320859 43.953,64.5442618 43.953,62.8322938 L43.953,59.2896743 C43.953,57.5777063 42.570903,56.1898822 40.866,56.1898822 Z M11.76,43.1510742 L8.232,43.1510742 C6.52709699,43.1510742 5.145,44.5388984 5.145,46.2508663 L5.145,49.7934858 C5.145,51.5054537 6.52709699,52.8932779 8.232,52.8932779 L11.76,52.8932779 C13.464903,52.8932779 14.847,51.5054537 14.847,49.7934858 L14.847,46.2508663 C14.847,44.5388984 13.464903,43.1510742 11.76,43.1510742 Z M26.313,43.1510742 L22.785,43.1510742 C21.080097,43.1510742 19.698,44.5388984 19.698,46.2508663 L19.698,49.7934858 C19.698,51.5054537 21.080097,52.8932779 22.785,52.8932779 L26.313,52.8932779 C28.017903,52.8932779 29.4,51.5054537 29.4,49.7934858 L29.4,46.2508663 C29.4,44.5388984 28.017903,43.1510742 26.313,43.1510742 Z M40.866,43.1510742 L37.338,43.1510742 C35.633097,43.1510742 34.251,44.5388984 34.251,46.2508663 L34.251,49.7934858 C34.251,51.5054537 35.633097,52.8932779 37.338,52.8932779 L40.866,52.8932779 C42.570903,52.8932779 43.953,51.5054537 43.953,49.7934858 L43.953,46.2508663 C43.953,44.5388984 42.570903,43.1510742 40.866,43.1510742 Z M11.76,30.2598753 L8.232,30.2598753 C6.52709699,30.2598753 5.145,31.6476995 5.145,33.3596674 L5.145,36.9022869 C5.145,38.6142548 6.52709699,40.002079 8.232,40.002079 L11.76,40.002079 C13.464903,40.002079 14.847,38.6142548 14.847,36.9022869 L14.847,33.3596674 C14.847,31.6476995 13.464903,30.2598753 11.76,30.2598753 Z M26.313,30.1122661 L22.785,30.1122661 C21.080097,30.1122661 19.698,31.5000903 19.698,33.2120582 L19.698,36.7546778 C19.698,38.4666456 21.080097,39.8544699 22.785,39.8544699 L26.313,39.8544699 C28.017903,39.8544699 29.4,38.4666456 29.4,36.7546778 L29.4,33.2120582 C29.4,31.5000903 28.017903,30.1122661 26.313,30.1122661 Z M40.866,30.1122661 L37.338,30.1122661 C35.633097,30.1122661 34.251,31.5000903 34.251,33.2120582 L34.251,36.7546778 C34.251,38.4666456 35.633097,39.8544699 37.338,39.8544699 L40.866,39.8544699 C42.570903,39.8544699 43.953,38.4666456 43.953,36.7546778 L43.953,33.2120582 C43.953,31.5000903 42.570903,30.1122661 40.866,30.1122661 Z M41.748,4.03465003 L7.35,4.03465003 C5.64509699,4.03465003 4.263,5.42247424 4.263,7.13444213 L4.263,21.3049203 C4.263,23.0168882 5.64509699,24.4047124 7.35,24.4047124 L41.748,24.4047124 C43.452903,24.4047124 44.835,23.0168882 44.835,21.3049203 L44.835,7.13444213 C44.835,5.42247424 43.452903,4.03465003 41.748,4.03465003 Z" fill-rule="nonzero"></path>
        </g>
    </g>
</svg>]]>
 <g id="Notes">
  <rect height="2200" id="artboard" style="fill:white;opacity:1" width="3300" x="0" y="0"/>
  <line id="" style="fill:none;stroke:black;opacity:1;stroke-width:0.5;" x1="263" x2="3036" y1="292" y2="292"/>
  <text id="reftext1" style="stroke:none;fill:black;font-family:-apple-system,&quot;SF Pro Display&quot;,&quot;SF Pro Text&quot;,Helvetica,sans-serif;font-weight:bold;" transform="matrix(1 0 0 1 263 322)">Weight/Scale Variations</text>
  <text id="reftext2" style="stroke:none;fill:black;font-family:-apple-system,&quot;SF Pro Display&quot;,&quot;SF Pro Text&quot;,Helvetica,sans-serif;text-anchor:middle;" transform="matrix(1 0 0 1 559.711 322)">Ultralight</text>
  <text style="stroke:none;fill:black;font-family:-apple-system,&quot;SF Pro Display&quot;,&quot;SF Pro Text&quot;,Helvetica,sans-serif;text-anchor:middle;" transform="matrix(1 0 0 1 856.422 322)">Thin</text>
  <text style="stroke:none;fill:black;font-family:-apple-system,&quot;SF Pro Display&quot;,&quot;SF Pro Text&quot;,Helvetica,sans-serif;text-anchor:middle;" transform="matrix(1 0 0 1 1153.13 322)">Light</text>
  <text style="stroke:none;fill:black;font-family:-apple-system,&quot;SF Pro Display&quot;,&quot;SF Pro Text&quot;,Helvetica,sans-serif;text-anchor:middle;" transform="matrix(1 0 0 1 1449.84 322)">Regular</text>
  <text style="stroke:none;fill:black;font-family:-apple-system,&quot;SF Pro Display&quot;,&quot;SF Pro Text&quot;,Helvetica,sans-serif;text-anchor:middle;" transform="matrix(1 0 0 1 1746.56 322)">Medium</text>
  <text style="stroke:none;fill:black;font-family:-apple-system,&quot;SF Pro Display&quot;,&quot;SF Pro Text&quot;,Helvetica,sans-serif;text-anchor:middle;" transform="matrix(1 0 0 1 2043.27 322)">Semibold</text>
  <text style="stroke:none;fill:black;font-family:-apple-system,&quot;SF Pro Display&quot;,&quot;SF Pro Text&quot;,Helvetica,sans-serif;text-anchor:middle;" transform="matrix(1 0 0 1 2339.98 322)">Bold</text>
  <text style="stroke:none;fill:black;font-family:-apple-system,&quot;SF Pro Display&quot;,&quot;SF Pro Text&quot;,Helvetica,sans-serif;text-anchor:middle;" transform="matrix(1 0 0 1 2636.69 322)">Heavy</text>
  <text style="stroke:none;fill:black;font-family:-apple-system,&quot;SF Pro Display&quot;,&quot;SF Pro Text&quot;,Helvetica,sans-serif;text-anchor:middle;" transform="matrix(1 0 0 1 2933.4 322)">Black</text>
  <line id="" style="fill:none;stroke:black;opacity:1;stroke-width:0.5;" x1="263" x2="3036" y1="1903" y2="1903"/>
  <g id="" transform="matrix(1 0 0 1 263 1933)">
   <path d="M9.24805 0.830078C13.5547 0.830078 17.1387-2.74414 17.1387-7.05078C17.1387-11.3574 13.5449-14.9316 9.23828-14.9316C4.94141-14.9316 1.36719-11.3574 1.36719-7.05078C1.36719-2.74414 4.95117 0.830078 9.24805 0.830078ZM9.24805-0.654297C5.70312-0.654297 2.87109-3.49609 2.87109-7.05078C2.87109-10.6055 5.69336-13.4473 9.23828-13.4473C12.793-13.4473 15.6348-10.6055 15.6445-7.05078C15.6543-3.49609 12.8027-0.654297 9.24805-0.654297ZM6.39648-6.31836L8.50586-6.31836L8.50586-4.19922C8.50586-3.75977 8.79883-3.45703 9.22852-3.45703C9.67773-3.45703 9.9707-3.75977 9.9707-4.19922L9.9707-6.31836L12.0996-6.31836C12.5391-6.31836 12.8418-6.61133 12.8418-7.04102C12.8418-7.48047 12.5391-7.7832 12.0996-7.7832L9.9707-7.7832L9.9707-9.89258C9.9707-10.3418 9.67773-10.6445 9.22852-10.6445C8.79883-10.6445 8.50586-10.3418 8.50586-9.89258L8.50586-7.7832L6.39648-7.7832C5.94727-7.7832 5.64453-7.48047 5.64453-7.04102C5.64453-6.61133 5.94727-6.31836 6.39648-6.31836Z"/>
  </g>
  <g id="" transform="matrix(1 0 0 1 281.506 1933)">
   <path d="M11.709 2.91016C17.1582 2.91016 21.6699-1.61133 21.6699-7.05078C21.6699-12.5 17.1484-17.0117 11.6992-17.0117C6.25977-17.0117 1.74805-12.5 1.74805-7.05078C1.74805-1.61133 6.26953 2.91016 11.709 2.91016ZM11.709 1.25C7.09961 1.25 3.41797-2.44141 3.41797-7.05078C3.41797-11.6602 7.08984-15.3516 11.6992-15.3516C16.3086-15.3516 20-11.6602 20.0098-7.05078C20.0195-2.44141 16.3184 1.25 11.709 1.25ZM7.98828-6.23047L10.8789-6.23047L10.8789-3.32031C10.8789-2.83203 11.2109-2.5 11.6895-2.5C12.1777-2.5 12.5195-2.83203 12.5195-3.32031L12.5195-6.23047L15.4297-6.23047C15.918-6.23047 16.25-6.5625 16.25-7.04102C16.25-7.5293 15.918-7.87109 15.4297-7.87109L12.5195-7.87109L12.5195-10.7617C12.5195-11.2695 12.1777-11.6016 11.6895-11.6016C11.2109-11.6016 10.8789-11.2598 10.8789-10.7617L10.8789-7.87109L7.98828-7.87109C7.48047-7.87109 7.14844-7.5293 7.14844-7.04102C7.14844-6.5625 7.49023-6.23047 7.98828-6.23047Z"/>
  </g>
  <g id="" transform="matrix(1 0 0 1 304.924 1933)">
   <path d="M14.9707 5.66406C21.9336 5.66406 27.6953-0.0976562 27.6953-7.05078C27.6953-14.0137 21.9238-19.7754 14.9609-19.7754C8.00781-19.7754 2.25586-14.0137 2.25586-7.05078C2.25586-0.0976562 8.01758 5.66406 14.9707 5.66406ZM14.9707 3.84766C8.93555 3.84766 4.08203-1.01562 4.08203-7.05078C4.08203-13.0957 8.92578-17.9492 14.9609-17.9492C21.0059-17.9492 25.8594-13.0957 25.8691-7.05078C25.8789-1.01562 21.0156 3.84766 14.9707 3.84766ZM10.0586-6.14258L14.0625-6.14258L14.0625-2.12891C14.0625-1.5918 14.4336-1.2207 14.9512-1.2207C15.4883-1.2207 15.8594-1.5918 15.8594-2.12891L15.8594-6.14258L19.8828-6.14258C20.4102-6.14258 20.791-6.51367 20.791-7.03125C20.791-7.56836 20.4199-7.94922 19.8828-7.94922L15.8594-7.94922L15.8594-11.9531C15.8594-12.5098 15.4883-12.8809 14.9512-12.8809C14.4336-12.8809 14.0625-12.5 14.0625-11.9531L14.0625-7.94922L10.0586-7.94922C9.50195-7.94922 9.13086-7.56836 9.13086-7.03125C9.13086-6.51367 9.51172-6.14258 10.0586-6.14258Z"/>
  </g>
  <text style="stroke:none;fill:black;font-family:-apple-system,&quot;SF Pro Display&quot;,&quot;SF Pro Text&quot;,Helvetica,sans-serif;font-weight:bold;" transform="matrix(1 0 0 1 263 1953)">Design Variations</text>
  <text style="stroke:none;fill:black;font-family:-apple-system,&quot;SF Pro Display&quot;,&quot;SF Pro Text&quot;,Helvetica,sans-serif;" transform="matrix(1 0 0 1 263 1971)">Symbols are supported in up to nine weights and three scales.</text>
  <text style="stroke:none;fill:black;font-family:-apple-system,&quot;SF Pro Display&quot;,&quot;SF Pro Text&quot;,Helvetica,sans-serif;" transform="matrix(1 0 0 1 263 1989)">For optimal layout with text and other symbols, vertically align</text>
  <text style="stroke:none;fill:black;font-family:-apple-system,&quot;SF Pro Display&quot;,&quot;SF Pro Text&quot;,Helvetica,sans-serif;" transform="matrix(1 0 0 1 263 2007)">symbols with the adjacent text.</text>
  <line id="" style="fill:none;stroke:#00AEEF;stroke-width:0.5;opacity:1.0;" x1="776" x2="776" y1="1919" y2="1933"/>
  <g id="" transform="matrix(1 0 0 1 776 1933)">
   <path d="M3.31055 0.126953C3.82812 0.126953 4.08203-0.0683594 4.26758-0.605469L5.52734-4.0625L11.2891-4.0625L12.5488-0.605469C12.7344-0.0683594 12.9883 0.126953 13.4961 0.126953C14.0137 0.126953 14.3457-0.185547 14.3457-0.673828C14.3457-0.839844 14.3164-0.986328 14.2383-1.20117L9.6582-13.3887C9.43359-13.9941 9.0332-14.2871 8.4082-14.2871C7.80273-14.2871 7.39258-13.9941 7.17773-13.3984L2.59766-1.19141C2.51953-0.976562 2.49023-0.830078 2.49023-0.664062C2.49023-0.175781 2.80273 0.126953 3.31055 0.126953ZM6.00586-5.53711L8.37891-12.1094L8.42773-12.1094L10.8008-5.53711Z"/>
  </g>
  <line id="" style="fill:none;stroke:#00AEEF;stroke-width:0.5;opacity:1.0;" x1="792.836" x2="792.836" y1="1919" y2="1933"/>
  <text style="stroke:none;fill:black;font-family:-apple-system,&quot;SF Pro Display&quot;,&quot;SF Pro Text&quot;,Helvetica,sans-serif;font-weight:bold;" transform="matrix(1 0 0 1 776 1953)">Margins</text>
  <text style="stroke:none;fill:black;font-family:-apple-system,&quot;SF Pro Display&quot;,&quot;SF Pro Text&quot;,Helvetica,sans-serif;" transform="matrix(1 0 0 1 776 1971)">Leading and trailing margins on the left and right side of each symbol</text>
  <text style="stroke:none;fill:black;font-family:-apple-system,&quot;SF Pro Display&quot;,&quot;SF Pro Text&quot;,Helvetica,sans-serif;" transform="matrix(1 0 0 1 776 1989)">can be adjusted by modifying the x-location of the margin guidelines.</text>
  <text style="stroke:none;fill:black;font-family:-apple-system,&quot;SF Pro Display&quot;,&quot;SF Pro Text&quot;,Helvetica,sans-serif;" transform="matrix(1 0 0 1 776 2007)">Modifications are automatically applied proportionally to all</text>
  <text style="stroke:none;fill:black;font-family:-apple-system,&quot;SF Pro Display&quot;,&quot;SF Pro Text&quot;,Helvetica,sans-serif;" transform="matrix(1 0 0 1 776 2025)">scales and weights.</text>
  <g id="" transform="matrix(1 0 0 1 1289 1933)">
   <path d="M2.8418 1.86523L4.54102 3.57422C5.40039 4.44336 6.38672 4.38477 7.31445 3.35938L17.4902-7.85156C17.7539-7.76367 18.0273-7.7832 18.3398-7.8418L19.4043-8.03711L20.0684-7.36328L20.0293-6.80664C19.9902-6.30859 20.1172-5.92773 20.6055-5.44922L21.3672-4.70703C21.8457-4.22852 22.4609-4.19922 22.9297-4.66797L25.8398-7.58789C26.3086-8.05664 26.2891-8.65234 25.8105-9.13086L25.0391-9.89258C24.5605-10.3711 24.1895-10.5273 23.7109-10.4883L23.1348-10.4395L22.4902-11.0742L22.7344-12.1973C22.8613-12.7637 22.7051-13.2031 22.1191-13.7891L19.9219-15.9766C16.582-19.2969 12.1484-19.2188 9.25781-16.3281C8.83789-15.918 8.80859-15.3418 9.04297-14.9512C9.27734-14.5898 9.73633-14.3555 10.3809-14.5215C11.8457-14.8633 13.3691-14.9219 14.7949-13.9844L14.209-12.5293C14.0137-12.0508 13.9844-11.6504 14.1113-11.2891L3.04688-0.898438C2.06055 0.0195312 1.98242 0.996094 2.8418 1.86523ZM10.752-15.957C13.1836-17.7344 16.4746-17.4316 18.7012-15.2051L21.1328-12.793C21.3672-12.5586 21.4062-12.373 21.3379-12.0312L21.0156-10.5469L22.5195-9.0625L23.5059-9.12109C23.7598-9.13086 23.8379-9.11133 24.0332-8.91602L24.6094-8.33984L22.168-5.89844L21.5918-6.47461C21.3965-6.66992 21.3672-6.74805 21.377-7.01172L21.4453-7.98828L19.9512-9.47266L18.4277-9.21875C18.1055-9.15039 17.959-9.17969 17.7148-9.41406L15.7129-11.416C15.459-11.6504 15.4297-11.8164 15.5859-12.1875L16.4648-14.2773C14.9023-15.7324 12.8711-16.3574 10.8398-15.7617C10.6836-15.7227 10.625-15.8496 10.752-15.957ZM5.27344 2.30469L4.10156 1.14258C3.63281 0.683594 3.74023 0.341797 4.14062-0.0195312L14.9512-10.1953L16.416-8.71094L6.42578 2.27539C6.07422 2.67578 5.74219 2.77344 5.27344 2.30469Z"/>
  </g>
  <text style="stroke:none;fill:black;font-family:-apple-system,&quot;SF Pro Display&quot;,&quot;SF Pro Text&quot;,Helvetica,sans-serif;font-weight:bold;" transform="matrix(1 0 0 1 1289 1953)">Exporting</text>
  <text style="stroke:none;fill:black;font-family:-apple-system,&quot;SF Pro Display&quot;,&quot;SF Pro Text&quot;,Helvetica,sans-serif;" transform="matrix(1 0 0 1 1289 1971)">Symbols should be outlined when exporting to ensure the</text>
  <text style="stroke:none;fill:black;font-family:-apple-system,&quot;SF Pro Display&quot;,&quot;SF Pro Text&quot;,Helvetica,sans-serif;" transform="matrix(1 0 0 1 1289 1989)">design is preserved when submitting to Xcode.</text>
  <text id="template-version" style="stroke:none;fill:black;font-family:-apple-system,&quot;SF Pro Display&quot;,&quot;SF Pro Text&quot;,Helvetica,sans-serif;text-anchor:end;" transform="matrix(1 0 0 1 3036 1933)">Template v.2.0</text>
  <text style="stroke:none;fill:black;font-family:-apple-system,&quot;SF Pro Display&quot;,&quot;SF Pro Text&quot;,Helvetica,sans-serif;text-anchor:end;" transform="matrix(1 0 0 1 3036 1951)">Requires Xcode 12 or greater</text>
  <text style="stroke:none;fill:black;font-family:-apple-system,&quot;SF Pro Display&quot;,&quot;SF Pro Text&quot;,Helvetica,sans-serif;" transform="matrix(1 0 0 1 263 726)">Small</text>
  <text style="stroke:none;fill:black;font-family:-apple-system,&quot;SF Pro Display&quot;,&quot;SF Pro Text&quot;,Helvetica,sans-serif;" transform="matrix(1 0 0 1 263 1156)">Medium</text>
  <text style="stroke:none;fill:black;font-family:-apple-system,&quot;SF Pro Display&quot;,&quot;SF Pro Text&quot;,Helvetica,sans-serif;" transform="matrix(1 0 0 1 263 1586)">Large</text>
 </g>
 <g id="Guides">
  <g id="H-reference" style="fill:#27AAE1;stroke:none;" transform="matrix(1 0 0 1 339 696)">
   <path d="M0.976562 0L3.66211 0L12.9883-24.4629L45.752-24.4629L55.127 0L57.7637 0L30.6152-70.459L28.125-70.459ZM29.3457-67.1387L29.4434-67.1387L44.873-26.709L13.8672-26.709Z"/>
  </g>
  <line id="Baseline-S" style="fill:none;stroke:#27AAE1;opacity:1;stroke-width:0.5;" x1="263" x2="3036" y1="696" y2="696"/>
  <line id="Capline-S" style="fill:none;stroke:#27AAE1;opacity:1;stroke-width:0.5;" x1="263" x2="3036" y1="625.541" y2="625.541"/>
  <g id="H-reference" style="fill:#27AAE1;stroke:none;" transform="matrix(1 0 0 1 339 1126)">
   <path d="M0.976562 0L3.66211 0L12.9883-24.4629L45.752-24.4629L55.127 0L57.7637 0L30.6152-70.459L28.125-70.459ZM29.3457-67.1387L29.4434-67.1387L44.873-26.709L13.8672-26.709Z"/>
  </g>
  <line id="Baseline-M" style="fill:none;stroke:#27AAE1;opacity:1;stroke-width:0.5;" x1="263" x2="3036" y1="1126" y2="1126"/>
  <line id="Capline-M" style="fill:none;stroke:#27AAE1;opacity:1;stroke-width:0.5;" x1="263" x2="3036" y1="1055.54" y2="1055.54"/>
  <g id="H-reference" style="fill:#27AAE1;stroke:none;" transform="matrix(1 0 0 1 339 1556)">
   <path d="M0.976562 0L3.66211 0L12.9883-24.4629L45.752-24.4629L55.127 0L57.7637 0L30.6152-70.459L28.125-70.459ZM29.3457-67.1387L29.4434-67.1387L44.873-26.709L13.8672-26.709Z"/>
  </g>
  <line id="Baseline-L" style="fill:none;stroke:#27AAE1;opacity:1;stroke-width:0.5;" x1="263" x2="3036" y1="1556" y2="1556"/>
  <line id="Capline-L" style="fill:none;stroke:#27AAE1;opacity:1;stroke-width:0.5;" x1="263" x2="3036" y1="1485.54" y2="1485.54"/>
  <line id="left-margin" x1="1451.1299999999999" x2="1451.1299999999999" y1="1030.79" y2="1150.12" style="fill:none;stroke:#00AEEF;stroke-width:0.5;opacity:1.0;"/>
  <line id="right-margin" x1="1451.1299999999999" x2="1451.1299999999999" y1="1030.79" y2="1150.12" style="fill:none;stroke:#00AEEF;stroke-width:0.5;opacity:1.0;"/>
 </g>
 <g id="Symbols">
  <g id="Black-L" transform="matrix(1.0,0.0,0.0,1.0,2885.672802257269,1449.7595901489258)">  <path fill-rule="nonzero" stroke="none" version="1.1" stroke-linecap="butt" fill-opacity="1" stroke-linejoin="miter" stroke-width="1px" fill="#000000" stroke-opacity="1" stroke-dasharray="none" xmlns:xlink="http://www.w3.org/1999/xlink" stroke-miterlimit="4" d="M85.652,0C92.48,0,98.014,5.557,98.014,12.411L98.014,129.61C98.014,136.464,92.48,142.021,85.652,142.021L12.362,142.021C5.535,142.021,0,136.464,0,129.61L0,12.411C0,5.557,5.535,0,12.362,0L85.652,0ZM52.719,112.396L16.479,112.396C13.062,112.396,10.292,115.172,10.292,118.597L10.292,125.683C10.292,129.107,13.062,131.884,16.479,131.884L52.719,131.884C56.136,131.884,58.907,129.107,58.907,125.683L58.907,118.597C58.907,115.172,56.136,112.396,52.719,112.396ZM81.744,112.396L74.687,112.396C71.277,112.396,68.512,115.172,68.512,118.597L68.512,125.683C68.512,129.107,71.277,131.884,74.687,131.884L81.744,131.884C85.154,131.884,87.919,129.107,87.919,125.683L87.919,118.597C87.919,115.172,85.154,112.396,81.744,112.396ZM23.523,86.315L16.466,86.315C13.056,86.315,10.292,89.091,10.292,92.515L10.292,99.602C10.292,103.026,13.056,105.802,16.466,105.802L23.523,105.802C26.934,105.802,29.698,103.026,29.698,99.602L29.698,92.515C29.698,89.091,26.934,86.315,23.523,86.315ZM52.634,86.315L45.577,86.315C42.166,86.315,39.402,89.091,39.402,92.515L39.402,99.602C39.402,103.026,42.166,105.802,45.577,105.802L52.634,105.802C56.044,105.802,58.809,103.026,58.809,99.602L58.809,92.515C58.809,89.091,56.044,86.315,52.634,86.315ZM81.744,86.315L74.687,86.315C71.277,86.315,68.512,89.091,68.512,92.515L68.512,99.602C68.512,103.026,71.277,105.802,74.687,105.802L81.744,105.802C85.154,105.802,87.919,103.026,87.919,99.602L87.919,92.515C87.919,89.091,85.154,86.315,81.744,86.315ZM23.523,60.529L16.466,60.529C13.056,60.529,10.292,63.305,10.292,66.729L10.292,73.815C10.292,77.24,13.056,80.016,16.466,80.016L23.523,80.016C26.934,80.016,29.698,77.24,29.698,73.815L29.698,66.729C29.698,63.305,26.934,60.529,23.523,60.529ZM52.634,60.233L45.577,60.233C42.166,60.233,39.402,63.009,39.402,66.434L39.402,73.52C39.402,76.945,42.166,79.721,45.577,79.721L52.634,79.721C56.044,79.721,58.809,76.945,58.809,73.52L58.809,66.434C58.809,63.009,56.044,60.233,52.634,60.233ZM81.744,60.233L74.687,60.233C71.277,60.233,68.512,63.009,68.512,66.434L68.512,73.52C68.512,76.945,71.277,79.721,74.687,79.721L81.744,79.721C85.154,79.721,87.919,76.945,87.919,73.52L87.919,66.434C87.919,63.009,85.154,60.233,81.744,60.233ZM83.508,8.07L14.702,8.07C11.292,8.07,8.527,10.847,8.527,14.271L8.527,42.616C8.527,46.041,11.292,48.817,14.702,48.817L83.508,48.817C86.919,48.817,89.683,46.041,89.683,42.616L89.683,14.271C89.683,10.847,86.919,8.07,83.508,8.07ZM83.508,8.07"/>
</g>
  <g id="Heavy-L" transform="matrix(1.0,0.0,0.0,1.0,2588.962802257269,1449.7595901489258)">  <path stroke-miterlimit="4" stroke-width="1px" xmlns:xlink="http://www.w3.org/1999/xlink" stroke="none" stroke-dasharray="none" version="1.1" stroke-linejoin="miter" fill="#000000" fill-opacity="1" fill-rule="nonzero" stroke-linecap="butt" stroke-opacity="1" d="M85.652,0C92.48,0,98.014,5.557,98.014,12.411L98.014,129.61C98.014,136.464,92.48,142.021,85.652,142.021L12.362,142.021C5.535,142.021,0,136.464,0,129.61L0,12.411C0,5.557,5.535,0,12.362,0L85.652,0ZM52.719,112.396L16.479,112.396C13.062,112.396,10.292,115.172,10.292,118.597L10.292,125.683C10.292,129.107,13.062,131.884,16.479,131.884L52.719,131.884C56.136,131.884,58.907,129.107,58.907,125.683L58.907,118.597C58.907,115.172,56.136,112.396,52.719,112.396ZM81.744,112.396L74.687,112.396C71.277,112.396,68.512,115.172,68.512,118.597L68.512,125.683C68.512,129.107,71.277,131.884,74.687,131.884L81.744,131.884C85.154,131.884,87.919,129.107,87.919,125.683L87.919,118.597C87.919,115.172,85.154,112.396,81.744,112.396ZM23.523,86.315L16.466,86.315C13.056,86.315,10.292,89.091,10.292,92.515L10.292,99.602C10.292,103.026,13.056,105.802,16.466,105.802L23.523,105.802C26.934,105.802,29.698,103.026,29.698,99.602L29.698,92.515C29.698,89.091,26.934,86.315,23.523,86.315ZM52.634,86.315L45.577,86.315C42.166,86.315,39.402,89.091,39.402,92.515L39.402,99.602C39.402,103.026,42.166,105.802,45.577,105.802L52.634,105.802C56.044,105.802,58.809,103.026,58.809,99.602L58.809,92.515C58.809,89.091,56.044,86.315,52.634,86.315ZM81.744,86.315L74.687,86.315C71.277,86.315,68.512,89.091,68.512,92.515L68.512,99.602C68.512,103.026,71.277,105.802,74.687,105.802L81.744,105.802C85.154,105.802,87.919,103.026,87.919,99.602L87.919,92.515C87.919,89.091,85.154,86.315,81.744,86.315ZM23.523,60.529L16.466,60.529C13.056,60.529,10.292,63.305,10.292,66.729L10.292,73.815C10.292,77.24,13.056,80.016,16.466,80.016L23.523,80.016C26.934,80.016,29.698,77.24,29.698,73.815L29.698,66.729C29.698,63.305,26.934,60.529,23.523,60.529ZM52.634,60.233L45.577,60.233C42.166,60.233,39.402,63.009,39.402,66.434L39.402,73.52C39.402,76.945,42.166,79.721,45.577,79.721L52.634,79.721C56.044,79.721,58.809,76.945,58.809,73.52L58.809,66.434C58.809,63.009,56.044,60.233,52.634,60.233ZM81.744,60.233L74.687,60.233C71.277,60.233,68.512,63.009,68.512,66.434L68.512,73.52C68.512,76.945,71.277,79.721,74.687,79.721L81.744,79.721C85.154,79.721,87.919,76.945,87.919,73.52L87.919,66.434C87.919,63.009,85.154,60.233,81.744,60.233ZM83.508,8.07L14.702,8.07C11.292,8.07,8.527,10.847,8.527,14.271L8.527,42.616C8.527,46.041,11.292,48.817,14.702,48.817L83.508,48.817C86.919,48.817,89.683,46.041,89.683,42.616L89.683,14.271C89.683,10.847,86.919,8.07,83.508,8.07ZM83.508,8.07"/>
</g>
  <g id="Bold-L" transform="matrix(1.0,0.0,0.0,1.0,2292.2528022572687,1449.7595901489258)">  <path fill="#000000" stroke-opacity="1" stroke-linecap="butt" stroke="none" stroke-miterlimit="4" stroke-dasharray="none" stroke-width="1px" fill-opacity="1" xmlns:xlink="http://www.w3.org/1999/xlink" version="1.1" fill-rule="nonzero" stroke-linejoin="miter" d="M85.652,0C92.48,0,98.014,5.557,98.014,12.411L98.014,129.61C98.014,136.464,92.48,142.021,85.652,142.021L12.362,142.021C5.535,142.021,0,136.464,0,129.61L0,12.411C0,5.557,5.535,0,12.362,0L85.652,0ZM52.719,112.396L16.479,112.396C13.062,112.396,10.292,115.172,10.292,118.597L10.292,125.683C10.292,129.107,13.062,131.884,16.479,131.884L52.719,131.884C56.136,131.884,58.907,129.107,58.907,125.683L58.907,118.597C58.907,115.172,56.136,112.396,52.719,112.396ZM81.744,112.396L74.687,112.396C71.277,112.396,68.512,115.172,68.512,118.597L68.512,125.683C68.512,129.107,71.277,131.884,74.687,131.884L81.744,131.884C85.154,131.884,87.919,129.107,87.919,125.683L87.919,118.597C87.919,115.172,85.154,112.396,81.744,112.396ZM23.523,86.315L16.466,86.315C13.056,86.315,10.292,89.091,10.292,92.515L10.292,99.602C10.292,103.026,13.056,105.802,16.466,105.802L23.523,105.802C26.934,105.802,29.698,103.026,29.698,99.602L29.698,92.515C29.698,89.091,26.934,86.315,23.523,86.315ZM52.634,86.315L45.577,86.315C42.166,86.315,39.402,89.091,39.402,92.515L39.402,99.602C39.402,103.026,42.166,105.802,45.577,105.802L52.634,105.802C56.044,105.802,58.809,103.026,58.809,99.602L58.809,92.515C58.809,89.091,56.044,86.315,52.634,86.315ZM81.744,86.315L74.687,86.315C71.277,86.315,68.512,89.091,68.512,92.515L68.512,99.602C68.512,103.026,71.277,105.802,74.687,105.802L81.744,105.802C85.154,105.802,87.919,103.026,87.919,99.602L87.919,92.515C87.919,89.091,85.154,86.315,81.744,86.315ZM23.523,60.529L16.466,60.529C13.056,60.529,10.292,63.305,10.292,66.729L10.292,73.815C10.292,77.24,13.056,80.016,16.466,80.016L23.523,80.016C26.934,80.016,29.698,77.24,29.698,73.815L29.698,66.729C29.698,63.305,26.934,60.529,23.523,60.529ZM52.634,60.233L45.577,60.233C42.166,60.233,39.402,63.009,39.402,66.434L39.402,73.52C39.402,76.945,42.166,79.721,45.577,79.721L52.634,79.721C56.044,79.721,58.809,76.945,58.809,73.52L58.809,66.434C58.809,63.009,56.044,60.233,52.634,60.233ZM81.744,60.233L74.687,60.233C71.277,60.233,68.512,63.009,68.512,66.434L68.512,73.52C68.512,76.945,71.277,79.721,74.687,79.721L81.744,79.721C85.154,79.721,87.919,76.945,87.919,73.52L87.919,66.434C87.919,63.009,85.154,60.233,81.744,60.233ZM83.508,8.07L14.702,8.07C11.292,8.07,8.527,10.847,8.527,14.271L8.527,42.616C8.527,46.041,11.292,48.817,14.702,48.817L83.508,48.817C86.919,48.817,89.683,46.041,89.683,42.616L89.683,14.271C89.683,10.847,86.919,8.07,83.508,8.07ZM83.508,8.07"/>
</g>
  <g id="Semibold-L" transform="matrix(1.0,0.0,0.0,1.0,1995.5428022572692,1449.7595901489258)">  <path stroke-linejoin="miter" stroke-opacity="1" version="1.1" stroke="none" fill-rule="nonzero" fill-opacity="1" stroke-dasharray="none" stroke-miterlimit="4" xmlns:xlink="http://www.w3.org/1999/xlink" stroke-width="1px" stroke-linecap="butt" fill="#000000" d="M85.652,0C92.48,0,98.014,5.557,98.014,12.411L98.014,129.61C98.014,136.464,92.48,142.021,85.652,142.021L12.362,142.021C5.535,142.021,0,136.464,0,129.61L0,12.411C0,5.557,5.535,0,12.362,0L85.652,0ZM52.719,112.396L16.479,112.396C13.062,112.396,10.292,115.172,10.292,118.597L10.292,125.683C10.292,129.107,13.062,131.884,16.479,131.884L52.719,131.884C56.136,131.884,58.907,129.107,58.907,125.683L58.907,118.597C58.907,115.172,56.136,112.396,52.719,112.396ZM81.744,112.396L74.687,112.396C71.277,112.396,68.512,115.172,68.512,118.597L68.512,125.683C68.512,129.107,71.277,131.884,74.687,131.884L81.744,131.884C85.154,131.884,87.919,129.107,87.919,125.683L87.919,118.597C87.919,115.172,85.154,112.396,81.744,112.396ZM23.523,86.315L16.466,86.315C13.056,86.315,10.292,89.091,10.292,92.515L10.292,99.602C10.292,103.026,13.056,105.802,16.466,105.802L23.523,105.802C26.934,105.802,29.698,103.026,29.698,99.602L29.698,92.515C29.698,89.091,26.934,86.315,23.523,86.315ZM52.634,86.315L45.577,86.315C42.166,86.315,39.402,89.091,39.402,92.515L39.402,99.602C39.402,103.026,42.166,105.802,45.577,105.802L52.634,105.802C56.044,105.802,58.809,103.026,58.809,99.602L58.809,92.515C58.809,89.091,56.044,86.315,52.634,86.315ZM81.744,86.315L74.687,86.315C71.277,86.315,68.512,89.091,68.512,92.515L68.512,99.602C68.512,103.026,71.277,105.802,74.687,105.802L81.744,105.802C85.154,105.802,87.919,103.026,87.919,99.602L87.919,92.515C87.919,89.091,85.154,86.315,81.744,86.315ZM23.523,60.529L16.466,60.529C13.056,60.529,10.292,63.305,10.292,66.729L10.292,73.815C10.292,77.24,13.056,80.016,16.466,80.016L23.523,80.016C26.934,80.016,29.698,77.24,29.698,73.815L29.698,66.729C29.698,63.305,26.934,60.529,23.523,60.529ZM52.634,60.233L45.577,60.233C42.166,60.233,39.402,63.009,39.402,66.434L39.402,73.52C39.402,76.945,42.166,79.721,45.577,79.721L52.634,79.721C56.044,79.721,58.809,76.945,58.809,73.52L58.809,66.434C58.809,63.009,56.044,60.233,52.634,60.233ZM81.744,60.233L74.687,60.233C71.277,60.233,68.512,63.009,68.512,66.434L68.512,73.52C68.512,76.945,71.277,79.721,74.687,79.721L81.744,79.721C85.154,79.721,87.919,76.945,87.919,73.52L87.919,66.434C87.919,63.009,85.154,60.233,81.744,60.233ZM83.508,8.07L14.702,8.07C11.292,8.07,8.527,10.847,8.527,14.271L8.527,42.616C8.527,46.041,11.292,48.817,14.702,48.817L83.508,48.817C86.919,48.817,89.683,46.041,89.683,42.616L89.683,14.271C89.683,10.847,86.919,8.07,83.508,8.07ZM83.508,8.07"/>
</g>
  <g id="Medium-L" transform="matrix(1.0,0.0,0.0,1.0,1698.8328022572691,1449.7595901489258)">  <path xmlns:xlink="http://www.w3.org/1999/xlink" stroke-linecap="butt" stroke-dasharray="none" version="1.1" stroke="none" fill="#000000" stroke-linejoin="miter" fill-rule="nonzero" stroke-opacity="1" stroke-width="1px" fill-opacity="1" stroke-miterlimit="4" d="M85.652,0C92.48,0,98.014,5.557,98.014,12.411L98.014,129.61C98.014,136.464,92.48,142.021,85.652,142.021L12.362,142.021C5.535,142.021,0,136.464,0,129.61L0,12.411C0,5.557,5.535,0,12.362,0L85.652,0ZM52.719,112.396L16.479,112.396C13.062,112.396,10.292,115.172,10.292,118.597L10.292,125.683C10.292,129.107,13.062,131.884,16.479,131.884L52.719,131.884C56.136,131.884,58.907,129.107,58.907,125.683L58.907,118.597C58.907,115.172,56.136,112.396,52.719,112.396ZM81.744,112.396L74.687,112.396C71.277,112.396,68.512,115.172,68.512,118.597L68.512,125.683C68.512,129.107,71.277,131.884,74.687,131.884L81.744,131.884C85.154,131.884,87.919,129.107,87.919,125.683L87.919,118.597C87.919,115.172,85.154,112.396,81.744,112.396ZM23.523,86.315L16.466,86.315C13.056,86.315,10.292,89.091,10.292,92.515L10.292,99.602C10.292,103.026,13.056,105.802,16.466,105.802L23.523,105.802C26.934,105.802,29.698,103.026,29.698,99.602L29.698,92.515C29.698,89.091,26.934,86.315,23.523,86.315ZM52.634,86.315L45.577,86.315C42.166,86.315,39.402,89.091,39.402,92.515L39.402,99.602C39.402,103.026,42.166,105.802,45.577,105.802L52.634,105.802C56.044,105.802,58.809,103.026,58.809,99.602L58.809,92.515C58.809,89.091,56.044,86.315,52.634,86.315ZM81.744,86.315L74.687,86.315C71.277,86.315,68.512,89.091,68.512,92.515L68.512,99.602C68.512,103.026,71.277,105.802,74.687,105.802L81.744,105.802C85.154,105.802,87.919,103.026,87.919,99.602L87.919,92.515C87.919,89.091,85.154,86.315,81.744,86.315ZM23.523,60.529L16.466,60.529C13.056,60.529,10.292,63.305,10.292,66.729L10.292,73.815C10.292,77.24,13.056,80.016,16.466,80.016L23.523,80.016C26.934,80.016,29.698,77.24,29.698,73.815L29.698,66.729C29.698,63.305,26.934,60.529,23.523,60.529ZM52.634,60.233L45.577,60.233C42.166,60.233,39.402,63.009,39.402,66.434L39.402,73.52C39.402,76.945,42.166,79.721,45.577,79.721L52.634,79.721C56.044,79.721,58.809,76.945,58.809,73.52L58.809,66.434C58.809,63.009,56.044,60.233,52.634,60.233ZM81.744,60.233L74.687,60.233C71.277,60.233,68.512,63.009,68.512,66.434L68.512,73.52C68.512,76.945,71.277,79.721,74.687,79.721L81.744,79.721C85.154,79.721,87.919,76.945,87.919,73.52L87.919,66.434C87.919,63.009,85.154,60.233,81.744,60.233ZM83.508,8.07L14.702,8.07C11.292,8.07,8.527,10.847,8.527,14.271L8.527,42.616C8.527,46.041,11.292,48.817,14.702,48.817L83.508,48.817C86.919,48.817,89.683,46.041,89.683,42.616L89.683,14.271C89.683,10.847,86.919,8.07,83.508,8.07ZM83.508,8.07"/>
</g>
  <g id="Regular-L" transform="matrix(1.0,0.0,0.0,1.0,1402.122802257269,1449.7595901489258)">  <path fill-opacity="1" fill="#000000" version="1.1" stroke="none" xmlns:xlink="http://www.w3.org/1999/xlink" stroke-opacity="1" stroke-miterlimit="4" stroke-dasharray="none" stroke-width="1px" stroke-linecap="butt" stroke-linejoin="miter" fill-rule="nonzero" d="M85.652,0C92.48,0,98.014,5.557,98.014,12.411L98.014,129.61C98.014,136.464,92.48,142.021,85.652,142.021L12.362,142.021C5.535,142.021,0,136.464,0,129.61L0,12.411C0,5.557,5.535,0,12.362,0L85.652,0ZM52.719,112.396L16.479,112.396C13.062,112.396,10.292,115.172,10.292,118.597L10.292,125.683C10.292,129.107,13.062,131.884,16.479,131.884L52.719,131.884C56.136,131.884,58.907,129.107,58.907,125.683L58.907,118.597C58.907,115.172,56.136,112.396,52.719,112.396ZM81.744,112.396L74.687,112.396C71.277,112.396,68.512,115.172,68.512,118.597L68.512,125.683C68.512,129.107,71.277,131.884,74.687,131.884L81.744,131.884C85.154,131.884,87.919,129.107,87.919,125.683L87.919,118.597C87.919,115.172,85.154,112.396,81.744,112.396ZM23.523,86.315L16.466,86.315C13.056,86.315,10.292,89.091,10.292,92.515L10.292,99.602C10.292,103.026,13.056,105.802,16.466,105.802L23.523,105.802C26.934,105.802,29.698,103.026,29.698,99.602L29.698,92.515C29.698,89.091,26.934,86.315,23.523,86.315ZM52.634,86.315L45.577,86.315C42.166,86.315,39.402,89.091,39.402,92.515L39.402,99.602C39.402,103.026,42.166,105.802,45.577,105.802L52.634,105.802C56.044,105.802,58.809,103.026,58.809,99.602L58.809,92.515C58.809,89.091,56.044,86.315,52.634,86.315ZM81.744,86.315L74.687,86.315C71.277,86.315,68.512,89.091,68.512,92.515L68.512,99.602C68.512,103.026,71.277,105.802,74.687,105.802L81.744,105.802C85.154,105.802,87.919,103.026,87.919,99.602L87.919,92.515C87.919,89.091,85.154,86.315,81.744,86.315ZM23.523,60.529L16.466,60.529C13.056,60.529,10.292,63.305,10.292,66.729L10.292,73.815C10.292,77.24,13.056,80.016,16.466,80.016L23.523,80.016C26.934,80.016,29.698,77.24,29.698,73.815L29.698,66.729C29.698,63.305,26.934,60.529,23.523,60.529ZM52.634,60.233L45.577,60.233C42.166,60.233,39.402,63.009,39.402,66.434L39.402,73.52C39.402,76.945,42.166,79.721,45.577,79.721L52.634,79.721C56.044,79.721,58.809,76.945,58.809,73.52L58.809,66.434C58.809,63.009,56.044,60.233,52.634,60.233ZM81.744,60.233L74.687,60.233C71.277,60.233,68.512,63.009,68.512,66.434L68.512,73.52C68.512,76.945,71.277,79.721,74.687,79.721L81.744,79.721C85.154,79.721,87.919,76.945,87.919,73.52L87.919,66.434C87.919,63.009,85.154,60.233,81.744,60.233ZM83.508,8.07L14.702,8.07C11.292,8.07,8.527,10.847,8.527,14.271L8.527,42.616C8.527,46.041,11.292,48.817,14.702,48.817L83.508,48.817C86.919,48.817,89.683,46.041,89.683,42.616L89.683,14.271C89.683,10.847,86.919,8.07,83.508,8.07ZM83.508,8.07"/>
</g>
  <g id="Light-L" transform="matrix(1.0,0.0,0.0,1.0,1105.4128022572693,1449.7595901489258)">  <path stroke-linejoin="miter" stroke-linecap="butt" stroke-dasharray="none" fill-opacity="1" fill-rule="nonzero" xmlns:xlink="http://www.w3.org/1999/xlink" stroke-opacity="1" stroke-width="1px" stroke="none" stroke-miterlimit="4" fill="#000000" version="1.1" d="M85.652,0C92.48,0,98.014,5.557,98.014,12.411L98.014,129.61C98.014,136.464,92.48,142.021,85.652,142.021L12.362,142.021C5.535,142.021,0,136.464,0,129.61L0,12.411C0,5.557,5.535,0,12.362,0L85.652,0ZM52.719,112.396L16.479,112.396C13.062,112.396,10.292,115.172,10.292,118.597L10.292,125.683C10.292,129.107,13.062,131.884,16.479,131.884L52.719,131.884C56.136,131.884,58.907,129.107,58.907,125.683L58.907,118.597C58.907,115.172,56.136,112.396,52.719,112.396ZM81.744,112.396L74.687,112.396C71.277,112.396,68.512,115.172,68.512,118.597L68.512,125.683C68.512,129.107,71.277,131.884,74.687,131.884L81.744,131.884C85.154,131.884,87.919,129.107,87.919,125.683L87.919,118.597C87.919,115.172,85.154,112.396,81.744,112.396ZM23.523,86.315L16.466,86.315C13.056,86.315,10.292,89.091,10.292,92.515L10.292,99.602C10.292,103.026,13.056,105.802,16.466,105.802L23.523,105.802C26.934,105.802,29.698,103.026,29.698,99.602L29.698,92.515C29.698,89.091,26.934,86.315,23.523,86.315ZM52.634,86.315L45.577,86.315C42.166,86.315,39.402,89.091,39.402,92.515L39.402,99.602C39.402,103.026,42.166,105.802,45.577,105.802L52.634,105.802C56.044,105.802,58.809,103.026,58.809,99.602L58.809,92.515C58.809,89.091,56.044,86.315,52.634,86.315ZM81.744,86.315L74.687,86.315C71.277,86.315,68.512,89.091,68.512,92.515L68.512,99.602C68.512,103.026,71.277,105.802,74.687,105.802L81.744,105.802C85.154,105.802,87.919,103.026,87.919,99.602L87.919,92.515C87.919,89.091,85.154,86.315,81.744,86.315ZM23.523,60.529L16.466,60.529C13.056,60.529,10.292,63.305,10.292,66.729L10.292,73.815C10.292,77.24,13.056,80.016,16.466,80.016L23.523,80.016C26.934,80.016,29.698,77.24,29.698,73.815L29.698,66.729C29.698,63.305,26.934,60.529,23.523,60.529ZM52.634,60.233L45.577,60.233C42.166,60.233,39.402,63.009,39.402,66.434L39.402,73.52C39.402,76.945,42.166,79.721,45.577,79.721L52.634,79.721C56.044,79.721,58.809,76.945,58.809,73.52L58.809,66.434C58.809,63.009,56.044,60.233,52.634,60.233ZM81.744,60.233L74.687,60.233C71.277,60.233,68.512,63.009,68.512,66.434L68.512,73.52C68.512,76.945,71.277,79.721,74.687,79.721L81.744,79.721C85.154,79.721,87.919,76.945,87.919,73.52L87.919,66.434C87.919,63.009,85.154,60.233,81.744,60.233ZM83.508,8.07L14.702,8.07C11.292,8.07,8.527,10.847,8.527,14.271L8.527,42.616C8.527,46.041,11.292,48.817,14.702,48.817L83.508,48.817C86.919,48.817,89.683,46.041,89.683,42.616L89.683,14.271C89.683,10.847,86.919,8.07,83.508,8.07ZM83.508,8.07"/>
</g>
  <g id="Thin-L" transform="matrix(1.0,0.0,0.0,1.0,808.7028022572692,1449.7595901489258)">  <path stroke-opacity="1" xmlns:xlink="http://www.w3.org/1999/xlink" version="1.1" stroke="none" stroke-dasharray="none" stroke-miterlimit="4" stroke-linecap="butt" stroke-width="1px" stroke-linejoin="miter" fill="#000000" fill-opacity="1" fill-rule="nonzero" d="M85.652,0C92.48,0,98.014,5.557,98.014,12.411L98.014,129.61C98.014,136.464,92.48,142.021,85.652,142.021L12.362,142.021C5.535,142.021,0,136.464,0,129.61L0,12.411C0,5.557,5.535,0,12.362,0L85.652,0ZM52.719,112.396L16.479,112.396C13.062,112.396,10.292,115.172,10.292,118.597L10.292,125.683C10.292,129.107,13.062,131.884,16.479,131.884L52.719,131.884C56.136,131.884,58.907,129.107,58.907,125.683L58.907,118.597C58.907,115.172,56.136,112.396,52.719,112.396ZM81.744,112.396L74.687,112.396C71.277,112.396,68.512,115.172,68.512,118.597L68.512,125.683C68.512,129.107,71.277,131.884,74.687,131.884L81.744,131.884C85.154,131.884,87.919,129.107,87.919,125.683L87.919,118.597C87.919,115.172,85.154,112.396,81.744,112.396ZM23.523,86.315L16.466,86.315C13.056,86.315,10.292,89.091,10.292,92.515L10.292,99.602C10.292,103.026,13.056,105.802,16.466,105.802L23.523,105.802C26.934,105.802,29.698,103.026,29.698,99.602L29.698,92.515C29.698,89.091,26.934,86.315,23.523,86.315ZM52.634,86.315L45.577,86.315C42.166,86.315,39.402,89.091,39.402,92.515L39.402,99.602C39.402,103.026,42.166,105.802,45.577,105.802L52.634,105.802C56.044,105.802,58.809,103.026,58.809,99.602L58.809,92.515C58.809,89.091,56.044,86.315,52.634,86.315ZM81.744,86.315L74.687,86.315C71.277,86.315,68.512,89.091,68.512,92.515L68.512,99.602C68.512,103.026,71.277,105.802,74.687,105.802L81.744,105.802C85.154,105.802,87.919,103.026,87.919,99.602L87.919,92.515C87.919,89.091,85.154,86.315,81.744,86.315ZM23.523,60.529L16.466,60.529C13.056,60.529,10.292,63.305,10.292,66.729L10.292,73.815C10.292,77.24,13.056,80.016,16.466,80.016L23.523,80.016C26.934,80.016,29.698,77.24,29.698,73.815L29.698,66.729C29.698,63.305,26.934,60.529,23.523,60.529ZM52.634,60.233L45.577,60.233C42.166,60.233,39.402,63.009,39.402,66.434L39.402,73.52C39.402,76.945,42.166,79.721,45.577,79.721L52.634,79.721C56.044,79.721,58.809,76.945,58.809,73.52L58.809,66.434C58.809,63.009,56.044,60.233,52.634,60.233ZM81.744,60.233L74.687,60.233C71.277,60.233,68.512,63.009,68.512,66.434L68.512,73.52C68.512,76.945,71.277,79.721,74.687,79.721L81.744,79.721C85.154,79.721,87.919,76.945,87.919,73.52L87.919,66.434C87.919,63.009,85.154,60.233,81.744,60.233ZM83.508,8.07L14.702,8.07C11.292,8.07,8.527,10.847,8.527,14.271L8.527,42.616C8.527,46.041,11.292,48.817,14.702,48.817L83.508,48.817C86.919,48.817,89.683,46.041,89.683,42.616L89.683,14.271C89.683,10.847,86.919,8.07,83.508,8.07ZM83.508,8.07"/>
</g>
  <g id="Ultralight-L" transform="matrix(1.0,0.0,0.0,1.0,511.9928022572692,1449.7595901489258)">  <path xmlns:xlink="http://www.w3.org/1999/xlink" stroke-opacity="1" fill-rule="nonzero" stroke-dasharray="none" stroke-linecap="butt" version="1.1" stroke-miterlimit="4" fill-opacity="1" stroke="none" stroke-width="1px" stroke-linejoin="miter" fill="#000000" d="M85.652,0C92.48,0,98.014,5.557,98.014,12.411L98.014,129.61C98.014,136.464,92.48,142.021,85.652,142.021L12.362,142.021C5.535,142.021,0,136.464,0,129.61L0,12.411C0,5.557,5.535,0,12.362,0L85.652,0ZM52.719,112.396L16.479,112.396C13.062,112.396,10.292,115.172,10.292,118.597L10.292,125.683C10.292,129.107,13.062,131.884,16.479,131.884L52.719,131.884C56.136,131.884,58.907,129.107,58.907,125.683L58.907,118.597C58.907,115.172,56.136,112.396,52.719,112.396ZM81.744,112.396L74.687,112.396C71.277,112.396,68.512,115.172,68.512,118.597L68.512,125.683C68.512,129.107,71.277,131.884,74.687,131.884L81.744,131.884C85.154,131.884,87.919,129.107,87.919,125.683L87.919,118.597C87.919,115.172,85.154,112.396,81.744,112.396ZM23.523,86.315L16.466,86.315C13.056,86.315,10.292,89.091,10.292,92.515L10.292,99.602C10.292,103.026,13.056,105.802,16.466,105.802L23.523,105.802C26.934,105.802,29.698,103.026,29.698,99.602L29.698,92.515C29.698,89.091,26.934,86.315,23.523,86.315ZM52.634,86.315L45.577,86.315C42.166,86.315,39.402,89.091,39.402,92.515L39.402,99.602C39.402,103.026,42.166,105.802,45.577,105.802L52.634,105.802C56.044,105.802,58.809,103.026,58.809,99.602L58.809,92.515C58.809,89.091,56.044,86.315,52.634,86.315ZM81.744,86.315L74.687,86.315C71.277,86.315,68.512,89.091,68.512,92.515L68.512,99.602C68.512,103.026,71.277,105.802,74.687,105.802L81.744,105.802C85.154,105.802,87.919,103.026,87.919,99.602L87.919,92.515C87.919,89.091,85.154,86.315,81.744,86.315ZM23.523,60.529L16.466,60.529C13.056,60.529,10.292,63.305,10.292,66.729L10.292,73.815C10.292,77.24,13.056,80.016,16.466,80.016L23.523,80.016C26.934,80.016,29.698,77.24,29.698,73.815L29.698,66.729C29.698,63.305,26.934,60.529,23.523,60.529ZM52.634,60.233L45.577,60.233C42.166,60.233,39.402,63.009,39.402,66.434L39.402,73.52C39.402,76.945,42.166,79.721,45.577,79.721L52.634,79.721C56.044,79.721,58.809,76.945,58.809,73.52L58.809,66.434C58.809,63.009,56.044,60.233,52.634,60.233ZM81.744,60.233L74.687,60.233C71.277,60.233,68.512,63.009,68.512,66.434L68.512,73.52C68.512,76.945,71.277,79.721,74.687,79.721L81.744,79.721C85.154,79.721,87.919,76.945,87.919,73.52L87.919,66.434C87.919,63.009,85.154,60.233,81.744,60.233ZM83.508,8.07L14.702,8.07C11.292,8.07,8.527,10.847,8.527,14.271L8.527,42.616C8.527,46.041,11.292,48.817,14.702,48.817L83.508,48.817C86.919,48.817,89.683,46.041,89.683,42.616L89.683,14.271C89.683,10.847,86.919,8.07,83.508,8.07ZM83.508,8.07"/>
</g>
  <g id="Black-M" transform="matrix(1.0,0.0,0.0,1.0,2896.689924230441,1035.7231750488281)">  <path fill-rule="nonzero" stroke="none" version="1.1" stroke-linecap="butt" fill-opacity="1" stroke-linejoin="miter" stroke-width="1px" fill="#000000" stroke-opacity="1" stroke-dasharray="none" xmlns:xlink="http://www.w3.org/1999/xlink" stroke-miterlimit="4" d="M66.397,0C71.69,0,75.98,4.308,75.98,9.621L75.98,100.473C75.98,105.786,71.69,110.094,66.397,110.094L9.583,110.094C4.29,110.094,0,105.786,0,100.473L0,9.621C0,4.308,4.29,0,9.583,0L66.397,0ZM40.868,87.129L12.774,87.129C10.125,87.129,7.978,89.281,7.978,91.935L7.978,97.429C7.978,100.083,10.125,102.235,12.774,102.235L40.868,102.235C43.517,102.235,45.664,100.083,45.664,97.429L45.664,91.935C45.664,89.281,43.517,87.129,40.868,87.129ZM63.367,87.129L57.897,87.129C55.253,87.129,53.11,89.281,53.11,91.935L53.11,97.429C53.11,100.083,55.253,102.235,57.897,102.235L63.367,102.235C66.011,102.235,68.154,100.083,68.154,97.429L68.154,91.935C68.154,89.281,66.011,87.129,63.367,87.129ZM18.235,66.911L12.765,66.911C10.121,66.911,7.978,69.063,7.978,71.717L7.978,77.211C7.978,79.865,10.121,82.017,12.765,82.017L18.235,82.017C20.879,82.017,23.022,79.865,23.022,77.211L23.022,71.717C23.022,69.063,20.879,66.911,18.235,66.911ZM40.801,66.911L35.331,66.911C32.687,66.911,30.544,69.063,30.544,71.717L30.544,77.211C30.544,79.865,32.687,82.017,35.331,82.017L40.801,82.017C43.445,82.017,45.588,79.865,45.588,77.211L45.588,71.717C45.588,69.063,43.445,66.911,40.801,66.911ZM63.367,66.911L57.897,66.911C55.253,66.911,53.11,69.063,53.11,71.717L53.11,77.211C53.11,79.865,55.253,82.017,57.897,82.017L63.367,82.017C66.011,82.017,68.154,79.865,68.154,77.211L68.154,71.717C68.154,69.063,66.011,66.911,63.367,66.911ZM18.235,46.921L12.765,46.921C10.121,46.921,7.978,49.073,7.978,51.728L7.978,57.221C7.978,59.876,10.121,62.028,12.765,62.028L18.235,62.028C20.879,62.028,23.022,59.876,23.022,57.221L23.022,51.728C23.022,49.073,20.879,46.921,18.235,46.921ZM40.801,46.693L35.331,46.693C32.687,46.693,30.544,48.845,30.544,51.499L30.544,56.992C30.544,59.647,32.687,61.799,35.331,61.799L40.801,61.799C43.445,61.799,45.588,59.647,45.588,56.992L45.588,51.499C45.588,48.845,43.445,46.693,40.801,46.693ZM63.367,46.693L57.897,46.693C55.253,46.693,53.11,48.845,53.11,51.499L53.11,56.992C53.11,59.647,55.253,61.799,57.897,61.799L63.367,61.799C66.011,61.799,68.154,59.647,68.154,56.992L68.154,51.499C68.154,48.845,66.011,46.693,63.367,46.693ZM64.735,6.256L11.397,6.256C8.753,6.256,6.61,8.408,6.61,11.063L6.61,33.036C6.61,35.69,8.753,37.842,11.397,37.842L64.735,37.842C67.379,37.842,69.522,35.69,69.522,33.036L69.522,11.063C69.522,8.408,67.379,6.256,64.735,6.256ZM64.735,6.256"/>
</g>
  <g id="Heavy-M" transform="matrix(1.0,0.0,0.0,1.0,2599.979924230441,1035.7231750488281)">  <path stroke-miterlimit="4" stroke-width="1px" xmlns:xlink="http://www.w3.org/1999/xlink" stroke="none" stroke-dasharray="none" version="1.1" stroke-linejoin="miter" fill="#000000" fill-opacity="1" fill-rule="nonzero" stroke-linecap="butt" stroke-opacity="1" d="M66.397,0C71.69,0,75.98,4.308,75.98,9.621L75.98,100.473C75.98,105.786,71.69,110.094,66.397,110.094L9.583,110.094C4.29,110.094,0,105.786,0,100.473L0,9.621C0,4.308,4.29,0,9.583,0L66.397,0ZM40.868,87.129L12.774,87.129C10.125,87.129,7.978,89.281,7.978,91.935L7.978,97.429C7.978,100.083,10.125,102.235,12.774,102.235L40.868,102.235C43.517,102.235,45.664,100.083,45.664,97.429L45.664,91.935C45.664,89.281,43.517,87.129,40.868,87.129ZM63.367,87.129L57.897,87.129C55.253,87.129,53.11,89.281,53.11,91.935L53.11,97.429C53.11,100.083,55.253,102.235,57.897,102.235L63.367,102.235C66.011,102.235,68.154,100.083,68.154,97.429L68.154,91.935C68.154,89.281,66.011,87.129,63.367,87.129ZM18.235,66.911L12.765,66.911C10.121,66.911,7.978,69.063,7.978,71.717L7.978,77.211C7.978,79.865,10.121,82.017,12.765,82.017L18.235,82.017C20.879,82.017,23.022,79.865,23.022,77.211L23.022,71.717C23.022,69.063,20.879,66.911,18.235,66.911ZM40.801,66.911L35.331,66.911C32.687,66.911,30.544,69.063,30.544,71.717L30.544,77.211C30.544,79.865,32.687,82.017,35.331,82.017L40.801,82.017C43.445,82.017,45.588,79.865,45.588,77.211L45.588,71.717C45.588,69.063,43.445,66.911,40.801,66.911ZM63.367,66.911L57.897,66.911C55.253,66.911,53.11,69.063,53.11,71.717L53.11,77.211C53.11,79.865,55.253,82.017,57.897,82.017L63.367,82.017C66.011,82.017,68.154,79.865,68.154,77.211L68.154,71.717C68.154,69.063,66.011,66.911,63.367,66.911ZM18.235,46.921L12.765,46.921C10.121,46.921,7.978,49.073,7.978,51.728L7.978,57.221C7.978,59.876,10.121,62.028,12.765,62.028L18.235,62.028C20.879,62.028,23.022,59.876,23.022,57.221L23.022,51.728C23.022,49.073,20.879,46.921,18.235,46.921ZM40.801,46.693L35.331,46.693C32.687,46.693,30.544,48.845,30.544,51.499L30.544,56.992C30.544,59.647,32.687,61.799,35.331,61.799L40.801,61.799C43.445,61.799,45.588,59.647,45.588,56.992L45.588,51.499C45.588,48.845,43.445,46.693,40.801,46.693ZM63.367,46.693L57.897,46.693C55.253,46.693,53.11,48.845,53.11,51.499L53.11,56.992C53.11,59.647,55.253,61.799,57.897,61.799L63.367,61.799C66.011,61.799,68.154,59.647,68.154,56.992L68.154,51.499C68.154,48.845,66.011,46.693,63.367,46.693ZM64.735,6.256L11.397,6.256C8.753,6.256,6.61,8.408,6.61,11.063L6.61,33.036C6.61,35.69,8.753,37.842,11.397,37.842L64.735,37.842C67.379,37.842,69.522,35.69,69.522,33.036L69.522,11.063C69.522,8.408,67.379,6.256,64.735,6.256ZM64.735,6.256"/>
</g>
  <g id="Bold-M" transform="matrix(1.0,0.0,0.0,1.0,2303.269924230441,1035.7231750488281)">  <path fill="#000000" stroke-opacity="1" stroke-linecap="butt" stroke="none" stroke-miterlimit="4" stroke-dasharray="none" stroke-width="1px" fill-opacity="1" xmlns:xlink="http://www.w3.org/1999/xlink" version="1.1" fill-rule="nonzero" stroke-linejoin="miter" d="M66.397,0C71.69,0,75.98,4.308,75.98,9.621L75.98,100.473C75.98,105.786,71.69,110.094,66.397,110.094L9.583,110.094C4.29,110.094,0,105.786,0,100.473L0,9.621C0,4.308,4.29,0,9.583,0L66.397,0ZM40.868,87.129L12.774,87.129C10.125,87.129,7.978,89.281,7.978,91.935L7.978,97.429C7.978,100.083,10.125,102.235,12.774,102.235L40.868,102.235C43.517,102.235,45.664,100.083,45.664,97.429L45.664,91.935C45.664,89.281,43.517,87.129,40.868,87.129ZM63.367,87.129L57.897,87.129C55.253,87.129,53.11,89.281,53.11,91.935L53.11,97.429C53.11,100.083,55.253,102.235,57.897,102.235L63.367,102.235C66.011,102.235,68.154,100.083,68.154,97.429L68.154,91.935C68.154,89.281,66.011,87.129,63.367,87.129ZM18.235,66.911L12.765,66.911C10.121,66.911,7.978,69.063,7.978,71.717L7.978,77.211C7.978,79.865,10.121,82.017,12.765,82.017L18.235,82.017C20.879,82.017,23.022,79.865,23.022,77.211L23.022,71.717C23.022,69.063,20.879,66.911,18.235,66.911ZM40.801,66.911L35.331,66.911C32.687,66.911,30.544,69.063,30.544,71.717L30.544,77.211C30.544,79.865,32.687,82.017,35.331,82.017L40.801,82.017C43.445,82.017,45.588,79.865,45.588,77.211L45.588,71.717C45.588,69.063,43.445,66.911,40.801,66.911ZM63.367,66.911L57.897,66.911C55.253,66.911,53.11,69.063,53.11,71.717L53.11,77.211C53.11,79.865,55.253,82.017,57.897,82.017L63.367,82.017C66.011,82.017,68.154,79.865,68.154,77.211L68.154,71.717C68.154,69.063,66.011,66.911,63.367,66.911ZM18.235,46.921L12.765,46.921C10.121,46.921,7.978,49.073,7.978,51.728L7.978,57.221C7.978,59.876,10.121,62.028,12.765,62.028L18.235,62.028C20.879,62.028,23.022,59.876,23.022,57.221L23.022,51.728C23.022,49.073,20.879,46.921,18.235,46.921ZM40.801,46.693L35.331,46.693C32.687,46.693,30.544,48.845,30.544,51.499L30.544,56.992C30.544,59.647,32.687,61.799,35.331,61.799L40.801,61.799C43.445,61.799,45.588,59.647,45.588,56.992L45.588,51.499C45.588,48.845,43.445,46.693,40.801,46.693ZM63.367,46.693L57.897,46.693C55.253,46.693,53.11,48.845,53.11,51.499L53.11,56.992C53.11,59.647,55.253,61.799,57.897,61.799L63.367,61.799C66.011,61.799,68.154,59.647,68.154,56.992L68.154,51.499C68.154,48.845,66.011,46.693,63.367,46.693ZM64.735,6.256L11.397,6.256C8.753,6.256,6.61,8.408,6.61,11.063L6.61,33.036C6.61,35.69,8.753,37.842,11.397,37.842L64.735,37.842C67.379,37.842,69.522,35.69,69.522,33.036L69.522,11.063C69.522,8.408,67.379,6.256,64.735,6.256ZM64.735,6.256"/>
</g>
  <g id="Semibold-M" transform="matrix(1.0,0.0,0.0,1.0,2006.559924230441,1035.7231750488281)">  <path stroke-linejoin="miter" stroke-opacity="1" version="1.1" stroke="none" fill-rule="nonzero" fill-opacity="1" stroke-dasharray="none" stroke-miterlimit="4" xmlns:xlink="http://www.w3.org/1999/xlink" stroke-width="1px" stroke-linecap="butt" fill="#000000" d="M66.397,0C71.69,0,75.98,4.308,75.98,9.621L75.98,100.473C75.98,105.786,71.69,110.094,66.397,110.094L9.583,110.094C4.29,110.094,0,105.786,0,100.473L0,9.621C0,4.308,4.29,0,9.583,0L66.397,0ZM40.868,87.129L12.774,87.129C10.125,87.129,7.978,89.281,7.978,91.935L7.978,97.429C7.978,100.083,10.125,102.235,12.774,102.235L40.868,102.235C43.517,102.235,45.664,100.083,45.664,97.429L45.664,91.935C45.664,89.281,43.517,87.129,40.868,87.129ZM63.367,87.129L57.897,87.129C55.253,87.129,53.11,89.281,53.11,91.935L53.11,97.429C53.11,100.083,55.253,102.235,57.897,102.235L63.367,102.235C66.011,102.235,68.154,100.083,68.154,97.429L68.154,91.935C68.154,89.281,66.011,87.129,63.367,87.129ZM18.235,66.911L12.765,66.911C10.121,66.911,7.978,69.063,7.978,71.717L7.978,77.211C7.978,79.865,10.121,82.017,12.765,82.017L18.235,82.017C20.879,82.017,23.022,79.865,23.022,77.211L23.022,71.717C23.022,69.063,20.879,66.911,18.235,66.911ZM40.801,66.911L35.331,66.911C32.687,66.911,30.544,69.063,30.544,71.717L30.544,77.211C30.544,79.865,32.687,82.017,35.331,82.017L40.801,82.017C43.445,82.017,45.588,79.865,45.588,77.211L45.588,71.717C45.588,69.063,43.445,66.911,40.801,66.911ZM63.367,66.911L57.897,66.911C55.253,66.911,53.11,69.063,53.11,71.717L53.11,77.211C53.11,79.865,55.253,82.017,57.897,82.017L63.367,82.017C66.011,82.017,68.154,79.865,68.154,77.211L68.154,71.717C68.154,69.063,66.011,66.911,63.367,66.911ZM18.235,46.921L12.765,46.921C10.121,46.921,7.978,49.073,7.978,51.728L7.978,57.221C7.978,59.876,10.121,62.028,12.765,62.028L18.235,62.028C20.879,62.028,23.022,59.876,23.022,57.221L23.022,51.728C23.022,49.073,20.879,46.921,18.235,46.921ZM40.801,46.693L35.331,46.693C32.687,46.693,30.544,48.845,30.544,51.499L30.544,56.992C30.544,59.647,32.687,61.799,35.331,61.799L40.801,61.799C43.445,61.799,45.588,59.647,45.588,56.992L45.588,51.499C45.588,48.845,43.445,46.693,40.801,46.693ZM63.367,46.693L57.897,46.693C55.253,46.693,53.11,48.845,53.11,51.499L53.11,56.992C53.11,59.647,55.253,61.799,57.897,61.799L63.367,61.799C66.011,61.799,68.154,59.647,68.154,56.992L68.154,51.499C68.154,48.845,66.011,46.693,63.367,46.693ZM64.735,6.256L11.397,6.256C8.753,6.256,6.61,8.408,6.61,11.063L6.61,33.036C6.61,35.69,8.753,37.842,11.397,37.842L64.735,37.842C67.379,37.842,69.522,35.69,69.522,33.036L69.522,11.063C69.522,8.408,67.379,6.256,64.735,6.256ZM64.735,6.256"/>
</g>
  <g id="Medium-M" transform="matrix(1.0,0.0,0.0,1.0,1709.849924230441,1035.7231750488281)">  <path xmlns:xlink="http://www.w3.org/1999/xlink" stroke-linecap="butt" stroke-dasharray="none" version="1.1" stroke="none" fill="#000000" stroke-linejoin="miter" fill-rule="nonzero" stroke-opacity="1" stroke-width="1px" fill-opacity="1" stroke-miterlimit="4" d="M66.397,0C71.69,0,75.98,4.308,75.98,9.621L75.98,100.473C75.98,105.786,71.69,110.094,66.397,110.094L9.583,110.094C4.29,110.094,0,105.786,0,100.473L0,9.621C0,4.308,4.29,0,9.583,0L66.397,0ZM40.868,87.129L12.774,87.129C10.125,87.129,7.978,89.281,7.978,91.935L7.978,97.429C7.978,100.083,10.125,102.235,12.774,102.235L40.868,102.235C43.517,102.235,45.664,100.083,45.664,97.429L45.664,91.935C45.664,89.281,43.517,87.129,40.868,87.129ZM63.367,87.129L57.897,87.129C55.253,87.129,53.11,89.281,53.11,91.935L53.11,97.429C53.11,100.083,55.253,102.235,57.897,102.235L63.367,102.235C66.011,102.235,68.154,100.083,68.154,97.429L68.154,91.935C68.154,89.281,66.011,87.129,63.367,87.129ZM18.235,66.911L12.765,66.911C10.121,66.911,7.978,69.063,7.978,71.717L7.978,77.211C7.978,79.865,10.121,82.017,12.765,82.017L18.235,82.017C20.879,82.017,23.022,79.865,23.022,77.211L23.022,71.717C23.022,69.063,20.879,66.911,18.235,66.911ZM40.801,66.911L35.331,66.911C32.687,66.911,30.544,69.063,30.544,71.717L30.544,77.211C30.544,79.865,32.687,82.017,35.331,82.017L40.801,82.017C43.445,82.017,45.588,79.865,45.588,77.211L45.588,71.717C45.588,69.063,43.445,66.911,40.801,66.911ZM63.367,66.911L57.897,66.911C55.253,66.911,53.11,69.063,53.11,71.717L53.11,77.211C53.11,79.865,55.253,82.017,57.897,82.017L63.367,82.017C66.011,82.017,68.154,79.865,68.154,77.211L68.154,71.717C68.154,69.063,66.011,66.911,63.367,66.911ZM18.235,46.921L12.765,46.921C10.121,46.921,7.978,49.073,7.978,51.728L7.978,57.221C7.978,59.876,10.121,62.028,12.765,62.028L18.235,62.028C20.879,62.028,23.022,59.876,23.022,57.221L23.022,51.728C23.022,49.073,20.879,46.921,18.235,46.921ZM40.801,46.693L35.331,46.693C32.687,46.693,30.544,48.845,30.544,51.499L30.544,56.992C30.544,59.647,32.687,61.799,35.331,61.799L40.801,61.799C43.445,61.799,45.588,59.647,45.588,56.992L45.588,51.499C45.588,48.845,43.445,46.693,40.801,46.693ZM63.367,46.693L57.897,46.693C55.253,46.693,53.11,48.845,53.11,51.499L53.11,56.992C53.11,59.647,55.253,61.799,57.897,61.799L63.367,61.799C66.011,61.799,68.154,59.647,68.154,56.992L68.154,51.499C68.154,48.845,66.011,46.693,63.367,46.693ZM64.735,6.256L11.397,6.256C8.753,6.256,6.61,8.408,6.61,11.063L6.61,33.036C6.61,35.69,8.753,37.842,11.397,37.842L64.735,37.842C67.379,37.842,69.522,35.69,69.522,33.036L69.522,11.063C69.522,8.408,67.379,6.256,64.735,6.256ZM64.735,6.256"/>
</g>
  <g id="Regular-M" transform="matrix(1.0,0.0,0.0,1.0,1413.139924230441,1035.7231750488281)">  <path fill-opacity="1" fill="#000000" version="1.1" stroke="none" xmlns:xlink="http://www.w3.org/1999/xlink" stroke-opacity="1" stroke-miterlimit="4" stroke-dasharray="none" stroke-width="1px" stroke-linecap="butt" stroke-linejoin="miter" fill-rule="nonzero" d="M66.397,0C71.69,0,75.98,4.308,75.98,9.621L75.98,100.473C75.98,105.786,71.69,110.094,66.397,110.094L9.583,110.094C4.29,110.094,0,105.786,0,100.473L0,9.621C0,4.308,4.29,0,9.583,0L66.397,0ZM40.868,87.129L12.774,87.129C10.125,87.129,7.978,89.281,7.978,91.935L7.978,97.429C7.978,100.083,10.125,102.235,12.774,102.235L40.868,102.235C43.517,102.235,45.664,100.083,45.664,97.429L45.664,91.935C45.664,89.281,43.517,87.129,40.868,87.129ZM63.367,87.129L57.897,87.129C55.253,87.129,53.11,89.281,53.11,91.935L53.11,97.429C53.11,100.083,55.253,102.235,57.897,102.235L63.367,102.235C66.011,102.235,68.154,100.083,68.154,97.429L68.154,91.935C68.154,89.281,66.011,87.129,63.367,87.129ZM18.235,66.911L12.765,66.911C10.121,66.911,7.978,69.063,7.978,71.717L7.978,77.211C7.978,79.865,10.121,82.017,12.765,82.017L18.235,82.017C20.879,82.017,23.022,79.865,23.022,77.211L23.022,71.717C23.022,69.063,20.879,66.911,18.235,66.911ZM40.801,66.911L35.331,66.911C32.687,66.911,30.544,69.063,30.544,71.717L30.544,77.211C30.544,79.865,32.687,82.017,35.331,82.017L40.801,82.017C43.445,82.017,45.588,79.865,45.588,77.211L45.588,71.717C45.588,69.063,43.445,66.911,40.801,66.911ZM63.367,66.911L57.897,66.911C55.253,66.911,53.11,69.063,53.11,71.717L53.11,77.211C53.11,79.865,55.253,82.017,57.897,82.017L63.367,82.017C66.011,82.017,68.154,79.865,68.154,77.211L68.154,71.717C68.154,69.063,66.011,66.911,63.367,66.911ZM18.235,46.921L12.765,46.921C10.121,46.921,7.978,49.073,7.978,51.728L7.978,57.221C7.978,59.876,10.121,62.028,12.765,62.028L18.235,62.028C20.879,62.028,23.022,59.876,23.022,57.221L23.022,51.728C23.022,49.073,20.879,46.921,18.235,46.921ZM40.801,46.693L35.331,46.693C32.687,46.693,30.544,48.845,30.544,51.499L30.544,56.992C30.544,59.647,32.687,61.799,35.331,61.799L40.801,61.799C43.445,61.799,45.588,59.647,45.588,56.992L45.588,51.499C45.588,48.845,43.445,46.693,40.801,46.693ZM63.367,46.693L57.897,46.693C55.253,46.693,53.11,48.845,53.11,51.499L53.11,56.992C53.11,59.647,55.253,61.799,57.897,61.799L63.367,61.799C66.011,61.799,68.154,59.647,68.154,56.992L68.154,51.499C68.154,48.845,66.011,46.693,63.367,46.693ZM64.735,6.256L11.397,6.256C8.753,6.256,6.61,8.408,6.61,11.063L6.61,33.036C6.61,35.69,8.753,37.842,11.397,37.842L64.735,37.842C67.379,37.842,69.522,35.69,69.522,33.036L69.522,11.063C69.522,8.408,67.379,6.256,64.735,6.256ZM64.735,6.256"/>
</g>
  <g id="Light-M" transform="matrix(1.0,0.0,0.0,1.0,1116.4299242304412,1035.7231750488281)">  <path stroke-linejoin="miter" stroke-linecap="butt" stroke-dasharray="none" fill-opacity="1" fill-rule="nonzero" xmlns:xlink="http://www.w3.org/1999/xlink" stroke-opacity="1" stroke-width="1px" stroke="none" stroke-miterlimit="4" fill="#000000" version="1.1" d="M66.397,0C71.69,0,75.98,4.308,75.98,9.621L75.98,100.473C75.98,105.786,71.69,110.094,66.397,110.094L9.583,110.094C4.29,110.094,0,105.786,0,100.473L0,9.621C0,4.308,4.29,0,9.583,0L66.397,0ZM40.868,87.129L12.774,87.129C10.125,87.129,7.978,89.281,7.978,91.935L7.978,97.429C7.978,100.083,10.125,102.235,12.774,102.235L40.868,102.235C43.517,102.235,45.664,100.083,45.664,97.429L45.664,91.935C45.664,89.281,43.517,87.129,40.868,87.129ZM63.367,87.129L57.897,87.129C55.253,87.129,53.11,89.281,53.11,91.935L53.11,97.429C53.11,100.083,55.253,102.235,57.897,102.235L63.367,102.235C66.011,102.235,68.154,100.083,68.154,97.429L68.154,91.935C68.154,89.281,66.011,87.129,63.367,87.129ZM18.235,66.911L12.765,66.911C10.121,66.911,7.978,69.063,7.978,71.717L7.978,77.211C7.978,79.865,10.121,82.017,12.765,82.017L18.235,82.017C20.879,82.017,23.022,79.865,23.022,77.211L23.022,71.717C23.022,69.063,20.879,66.911,18.235,66.911ZM40.801,66.911L35.331,66.911C32.687,66.911,30.544,69.063,30.544,71.717L30.544,77.211C30.544,79.865,32.687,82.017,35.331,82.017L40.801,82.017C43.445,82.017,45.588,79.865,45.588,77.211L45.588,71.717C45.588,69.063,43.445,66.911,40.801,66.911ZM63.367,66.911L57.897,66.911C55.253,66.911,53.11,69.063,53.11,71.717L53.11,77.211C53.11,79.865,55.253,82.017,57.897,82.017L63.367,82.017C66.011,82.017,68.154,79.865,68.154,77.211L68.154,71.717C68.154,69.063,66.011,66.911,63.367,66.911ZM18.235,46.921L12.765,46.921C10.121,46.921,7.978,49.073,7.978,51.728L7.978,57.221C7.978,59.876,10.121,62.028,12.765,62.028L18.235,62.028C20.879,62.028,23.022,59.876,23.022,57.221L23.022,51.728C23.022,49.073,20.879,46.921,18.235,46.921ZM40.801,46.693L35.331,46.693C32.687,46.693,30.544,48.845,30.544,51.499L30.544,56.992C30.544,59.647,32.687,61.799,35.331,61.799L40.801,61.799C43.445,61.799,45.588,59.647,45.588,56.992L45.588,51.499C45.588,48.845,43.445,46.693,40.801,46.693ZM63.367,46.693L57.897,46.693C55.253,46.693,53.11,48.845,53.11,51.499L53.11,56.992C53.11,59.647,55.253,61.799,57.897,61.799L63.367,61.799C66.011,61.799,68.154,59.647,68.154,56.992L68.154,51.499C68.154,48.845,66.011,46.693,63.367,46.693ZM64.735,6.256L11.397,6.256C8.753,6.256,6.61,8.408,6.61,11.063L6.61,33.036C6.61,35.69,8.753,37.842,11.397,37.842L64.735,37.842C67.379,37.842,69.522,35.69,69.522,33.036L69.522,11.063C69.522,8.408,67.379,6.256,64.735,6.256ZM64.735,6.256"/>
</g>
  <g id="Thin-M" transform="matrix(1.0,0.0,0.0,1.0,819.7199242304413,1035.7231750488281)">  <path stroke-opacity="1" xmlns:xlink="http://www.w3.org/1999/xlink" version="1.1" stroke="none" stroke-dasharray="none" stroke-miterlimit="4" stroke-linecap="butt" stroke-width="1px" stroke-linejoin="miter" fill="#000000" fill-opacity="1" fill-rule="nonzero" d="M66.397,0C71.69,0,75.98,4.308,75.98,9.621L75.98,100.473C75.98,105.786,71.69,110.094,66.397,110.094L9.583,110.094C4.29,110.094,0,105.786,0,100.473L0,9.621C0,4.308,4.29,0,9.583,0L66.397,0ZM40.868,87.129L12.774,87.129C10.125,87.129,7.978,89.281,7.978,91.935L7.978,97.429C7.978,100.083,10.125,102.235,12.774,102.235L40.868,102.235C43.517,102.235,45.664,100.083,45.664,97.429L45.664,91.935C45.664,89.281,43.517,87.129,40.868,87.129ZM63.367,87.129L57.897,87.129C55.253,87.129,53.11,89.281,53.11,91.935L53.11,97.429C53.11,100.083,55.253,102.235,57.897,102.235L63.367,102.235C66.011,102.235,68.154,100.083,68.154,97.429L68.154,91.935C68.154,89.281,66.011,87.129,63.367,87.129ZM18.235,66.911L12.765,66.911C10.121,66.911,7.978,69.063,7.978,71.717L7.978,77.211C7.978,79.865,10.121,82.017,12.765,82.017L18.235,82.017C20.879,82.017,23.022,79.865,23.022,77.211L23.022,71.717C23.022,69.063,20.879,66.911,18.235,66.911ZM40.801,66.911L35.331,66.911C32.687,66.911,30.544,69.063,30.544,71.717L30.544,77.211C30.544,79.865,32.687,82.017,35.331,82.017L40.801,82.017C43.445,82.017,45.588,79.865,45.588,77.211L45.588,71.717C45.588,69.063,43.445,66.911,40.801,66.911ZM63.367,66.911L57.897,66.911C55.253,66.911,53.11,69.063,53.11,71.717L53.11,77.211C53.11,79.865,55.253,82.017,57.897,82.017L63.367,82.017C66.011,82.017,68.154,79.865,68.154,77.211L68.154,71.717C68.154,69.063,66.011,66.911,63.367,66.911ZM18.235,46.921L12.765,46.921C10.121,46.921,7.978,49.073,7.978,51.728L7.978,57.221C7.978,59.876,10.121,62.028,12.765,62.028L18.235,62.028C20.879,62.028,23.022,59.876,23.022,57.221L23.022,51.728C23.022,49.073,20.879,46.921,18.235,46.921ZM40.801,46.693L35.331,46.693C32.687,46.693,30.544,48.845,30.544,51.499L30.544,56.992C30.544,59.647,32.687,61.799,35.331,61.799L40.801,61.799C43.445,61.799,45.588,59.647,45.588,56.992L45.588,51.499C45.588,48.845,43.445,46.693,40.801,46.693ZM63.367,46.693L57.897,46.693C55.253,46.693,53.11,48.845,53.11,51.499L53.11,56.992C53.11,59.647,55.253,61.799,57.897,61.799L63.367,61.799C66.011,61.799,68.154,59.647,68.154,56.992L68.154,51.499C68.154,48.845,66.011,46.693,63.367,46.693ZM64.735,6.256L11.397,6.256C8.753,6.256,6.61,8.408,6.61,11.063L6.61,33.036C6.61,35.69,8.753,37.842,11.397,37.842L64.735,37.842C67.379,37.842,69.522,35.69,69.522,33.036L69.522,11.063C69.522,8.408,67.379,6.256,64.735,6.256ZM64.735,6.256"/>
</g>
  <g id="Ultralight-M" transform="matrix(1.0,0.0,0.0,1.0,523.0099242304412,1035.7231750488281)">  <path xmlns:xlink="http://www.w3.org/1999/xlink" stroke-opacity="1" fill-rule="nonzero" stroke-dasharray="none" stroke-linecap="butt" version="1.1" stroke-miterlimit="4" fill-opacity="1" stroke="none" stroke-width="1px" stroke-linejoin="miter" fill="#000000" d="M66.397,0C71.69,0,75.98,4.308,75.98,9.621L75.98,100.473C75.98,105.786,71.69,110.094,66.397,110.094L9.583,110.094C4.29,110.094,0,105.786,0,100.473L0,9.621C0,4.308,4.29,0,9.583,0L66.397,0ZM40.868,87.129L12.774,87.129C10.125,87.129,7.978,89.281,7.978,91.935L7.978,97.429C7.978,100.083,10.125,102.235,12.774,102.235L40.868,102.235C43.517,102.235,45.664,100.083,45.664,97.429L45.664,91.935C45.664,89.281,43.517,87.129,40.868,87.129ZM63.367,87.129L57.897,87.129C55.253,87.129,53.11,89.281,53.11,91.935L53.11,97.429C53.11,100.083,55.253,102.235,57.897,102.235L63.367,102.235C66.011,102.235,68.154,100.083,68.154,97.429L68.154,91.935C68.154,89.281,66.011,87.129,63.367,87.129ZM18.235,66.911L12.765,66.911C10.121,66.911,7.978,69.063,7.978,71.717L7.978,77.211C7.978,79.865,10.121,82.017,12.765,82.017L18.235,82.017C20.879,82.017,23.022,79.865,23.022,77.211L23.022,71.717C23.022,69.063,20.879,66.911,18.235,66.911ZM40.801,66.911L35.331,66.911C32.687,66.911,30.544,69.063,30.544,71.717L30.544,77.211C30.544,79.865,32.687,82.017,35.331,82.017L40.801,82.017C43.445,82.017,45.588,79.865,45.588,77.211L45.588,71.717C45.588,69.063,43.445,66.911,40.801,66.911ZM63.367,66.911L57.897,66.911C55.253,66.911,53.11,69.063,53.11,71.717L53.11,77.211C53.11,79.865,55.253,82.017,57.897,82.017L63.367,82.017C66.011,82.017,68.154,79.865,68.154,77.211L68.154,71.717C68.154,69.063,66.011,66.911,63.367,66.911ZM18.235,46.921L12.765,46.921C10.121,46.921,7.978,49.073,7.978,51.728L7.978,57.221C7.978,59.876,10.121,62.028,12.765,62.028L18.235,62.028C20.879,62.028,23.022,59.876,23.022,57.221L23.022,51.728C23.022,49.073,20.879,46.921,18.235,46.921ZM40.801,46.693L35.331,46.693C32.687,46.693,30.544,48.845,30.544,51.499L30.544,56.992C30.544,59.647,32.687,61.799,35.331,61.799L40.801,61.799C43.445,61.799,45.588,59.647,45.588,56.992L45.588,51.499C45.588,48.845,43.445,46.693,40.801,46.693ZM63.367,46.693L57.897,46.693C55.253,46.693,53.11,48.845,53.11,51.499L53.11,56.992C53.11,59.647,55.253,61.799,57.897,61.799L63.367,61.799C66.011,61.799,68.154,59.647,68.154,56.992L68.154,51.499C68.154,48.845,66.011,46.693,63.367,46.693ZM64.735,6.256L11.397,6.256C8.753,6.256,6.61,8.408,6.61,11.063L6.61,33.036C6.61,35.69,8.753,37.842,11.397,37.842L64.735,37.842C67.379,37.842,69.522,35.69,69.522,33.036L69.522,11.063C69.522,8.408,67.379,6.256,64.735,6.256ZM64.735,6.256"/>
</g>
  <g id="Black-S" transform="matrix(1.0,0.0,0.0,1.0,2904.9337706724355,617.6683403015137)">  <path fill-rule="nonzero" stroke="none" version="1.1" stroke-linecap="butt" fill-opacity="1" stroke-linejoin="miter" stroke-width="1px" fill="#000000" stroke-opacity="1" stroke-dasharray="none" xmlns:xlink="http://www.w3.org/1999/xlink" stroke-miterlimit="4" d="M51.989,0C56.133,0,59.492,3.373,59.492,7.533L59.492,78.67C59.492,82.831,56.133,86.203,51.989,86.203L7.504,86.203C3.359,86.203,0,82.831,0,78.67L0,7.533C0,3.373,3.359,0,7.504,0L51.989,0ZM31.999,68.222L10.002,68.222C7.928,68.222,6.247,69.907,6.247,71.985L6.247,76.287C6.247,78.365,7.928,80.05,10.002,80.05L31.999,80.05C34.074,80.05,35.755,78.365,35.755,76.287L35.755,71.985C35.755,69.907,34.074,68.222,31.999,68.222ZM49.617,68.222L45.333,68.222C43.263,68.222,41.585,69.907,41.585,71.985L41.585,76.287C41.585,78.365,43.263,80.05,45.333,80.05L49.617,80.05C51.687,80.05,53.365,78.365,53.365,76.287L53.365,71.985C53.365,69.907,51.687,68.222,49.617,68.222ZM14.278,52.391L9.995,52.391C7.925,52.391,6.247,54.076,6.247,56.155L6.247,60.456C6.247,62.534,7.925,64.219,9.995,64.219L14.278,64.219C16.348,64.219,18.026,62.534,18.026,60.456L18.026,56.155C18.026,54.076,16.348,52.391,14.278,52.391ZM31.947,52.391L27.664,52.391C25.594,52.391,23.916,54.076,23.916,56.155L23.916,60.456C23.916,62.534,25.594,64.219,27.664,64.219L31.947,64.219C34.017,64.219,35.695,62.534,35.695,60.456L35.695,56.155C35.695,54.076,34.017,52.391,31.947,52.391ZM49.617,52.391L45.333,52.391C43.263,52.391,41.585,54.076,41.585,56.155L41.585,60.456C41.585,62.534,43.263,64.219,45.333,64.219L49.617,64.219C51.687,64.219,53.365,62.534,53.365,60.456L53.365,56.155C53.365,54.076,51.687,52.391,49.617,52.391ZM14.278,36.739L9.995,36.739C7.925,36.739,6.247,38.424,6.247,40.503L6.247,44.804C6.247,46.883,7.925,48.568,9.995,48.568L14.278,48.568C16.348,48.568,18.026,46.883,18.026,44.804L18.026,40.503C18.026,38.424,16.348,36.739,14.278,36.739ZM31.947,36.56L27.664,36.56C25.594,36.56,23.916,38.245,23.916,40.324L23.916,44.625C23.916,46.704,25.594,48.389,27.664,48.389L31.947,48.389C34.017,48.389,35.695,46.704,35.695,44.625L35.695,40.324C35.695,38.245,34.017,36.56,31.947,36.56ZM49.617,36.56L45.333,36.56C43.263,36.56,41.585,38.245,41.585,40.324L41.585,44.625C41.585,46.704,43.263,48.389,45.333,48.389L49.617,48.389C51.687,48.389,53.365,46.704,53.365,44.625L53.365,40.324C53.365,38.245,51.687,36.56,49.617,36.56ZM50.688,4.899L8.924,4.899C6.854,4.899,5.176,6.584,5.176,8.662L5.176,25.867C5.176,27.946,6.854,29.631,8.924,29.631L50.688,29.631C52.758,29.631,54.436,27.946,54.436,25.867L54.436,8.662C54.436,6.584,52.758,4.899,50.688,4.899ZM50.688,4.899"/>
</g>
  <g id="Heavy-S" transform="matrix(1.0,0.0,0.0,1.0,2608.2237706724354,617.6683403015137)">  <path stroke-miterlimit="4" stroke-width="1px" xmlns:xlink="http://www.w3.org/1999/xlink" stroke="none" stroke-dasharray="none" version="1.1" stroke-linejoin="miter" fill="#000000" fill-opacity="1" fill-rule="nonzero" stroke-linecap="butt" stroke-opacity="1" d="M51.989,0C56.133,0,59.492,3.373,59.492,7.533L59.492,78.67C59.492,82.831,56.133,86.203,51.989,86.203L7.504,86.203C3.359,86.203,0,82.831,0,78.67L0,7.533C0,3.373,3.359,0,7.504,0L51.989,0ZM31.999,68.222L10.002,68.222C7.928,68.222,6.247,69.907,6.247,71.985L6.247,76.287C6.247,78.365,7.928,80.05,10.002,80.05L31.999,80.05C34.074,80.05,35.755,78.365,35.755,76.287L35.755,71.985C35.755,69.907,34.074,68.222,31.999,68.222ZM49.617,68.222L45.333,68.222C43.263,68.222,41.585,69.907,41.585,71.985L41.585,76.287C41.585,78.365,43.263,80.05,45.333,80.05L49.617,80.05C51.687,80.05,53.365,78.365,53.365,76.287L53.365,71.985C53.365,69.907,51.687,68.222,49.617,68.222ZM14.278,52.391L9.995,52.391C7.925,52.391,6.247,54.076,6.247,56.155L6.247,60.456C6.247,62.534,7.925,64.219,9.995,64.219L14.278,64.219C16.348,64.219,18.026,62.534,18.026,60.456L18.026,56.155C18.026,54.076,16.348,52.391,14.278,52.391ZM31.947,52.391L27.664,52.391C25.594,52.391,23.916,54.076,23.916,56.155L23.916,60.456C23.916,62.534,25.594,64.219,27.664,64.219L31.947,64.219C34.017,64.219,35.695,62.534,35.695,60.456L35.695,56.155C35.695,54.076,34.017,52.391,31.947,52.391ZM49.617,52.391L45.333,52.391C43.263,52.391,41.585,54.076,41.585,56.155L41.585,60.456C41.585,62.534,43.263,64.219,45.333,64.219L49.617,64.219C51.687,64.219,53.365,62.534,53.365,60.456L53.365,56.155C53.365,54.076,51.687,52.391,49.617,52.391ZM14.278,36.739L9.995,36.739C7.925,36.739,6.247,38.424,6.247,40.503L6.247,44.804C6.247,46.883,7.925,48.568,9.995,48.568L14.278,48.568C16.348,48.568,18.026,46.883,18.026,44.804L18.026,40.503C18.026,38.424,16.348,36.739,14.278,36.739ZM31.947,36.56L27.664,36.56C25.594,36.56,23.916,38.245,23.916,40.324L23.916,44.625C23.916,46.704,25.594,48.389,27.664,48.389L31.947,48.389C34.017,48.389,35.695,46.704,35.695,44.625L35.695,40.324C35.695,38.245,34.017,36.56,31.947,36.56ZM49.617,36.56L45.333,36.56C43.263,36.56,41.585,38.245,41.585,40.324L41.585,44.625C41.585,46.704,43.263,48.389,45.333,48.389L49.617,48.389C51.687,48.389,53.365,46.704,53.365,44.625L53.365,40.324C53.365,38.245,51.687,36.56,49.617,36.56ZM50.688,4.899L8.924,4.899C6.854,4.899,5.176,6.584,5.176,8.662L5.176,25.867C5.176,27.946,6.854,29.631,8.924,29.631L50.688,29.631C52.758,29.631,54.436,27.946,54.436,25.867L54.436,8.662C54.436,6.584,52.758,4.899,50.688,4.899ZM50.688,4.899"/>
</g>
  <g id="Bold-S" transform="matrix(1.0,0.0,0.0,1.0,2311.5137706724354,617.6683403015137)">  <path fill="#000000" stroke-opacity="1" stroke-linecap="butt" stroke="none" stroke-miterlimit="4" stroke-dasharray="none" stroke-width="1px" fill-opacity="1" xmlns:xlink="http://www.w3.org/1999/xlink" version="1.1" fill-rule="nonzero" stroke-linejoin="miter" d="M51.989,0C56.133,0,59.492,3.373,59.492,7.533L59.492,78.67C59.492,82.831,56.133,86.203,51.989,86.203L7.504,86.203C3.359,86.203,0,82.831,0,78.67L0,7.533C0,3.373,3.359,0,7.504,0L51.989,0ZM31.999,68.222L10.002,68.222C7.928,68.222,6.247,69.907,6.247,71.985L6.247,76.287C6.247,78.365,7.928,80.05,10.002,80.05L31.999,80.05C34.074,80.05,35.755,78.365,35.755,76.287L35.755,71.985C35.755,69.907,34.074,68.222,31.999,68.222ZM49.617,68.222L45.333,68.222C43.263,68.222,41.585,69.907,41.585,71.985L41.585,76.287C41.585,78.365,43.263,80.05,45.333,80.05L49.617,80.05C51.687,80.05,53.365,78.365,53.365,76.287L53.365,71.985C53.365,69.907,51.687,68.222,49.617,68.222ZM14.278,52.391L9.995,52.391C7.925,52.391,6.247,54.076,6.247,56.155L6.247,60.456C6.247,62.534,7.925,64.219,9.995,64.219L14.278,64.219C16.348,64.219,18.026,62.534,18.026,60.456L18.026,56.155C18.026,54.076,16.348,52.391,14.278,52.391ZM31.947,52.391L27.664,52.391C25.594,52.391,23.916,54.076,23.916,56.155L23.916,60.456C23.916,62.534,25.594,64.219,27.664,64.219L31.947,64.219C34.017,64.219,35.695,62.534,35.695,60.456L35.695,56.155C35.695,54.076,34.017,52.391,31.947,52.391ZM49.617,52.391L45.333,52.391C43.263,52.391,41.585,54.076,41.585,56.155L41.585,60.456C41.585,62.534,43.263,64.219,45.333,64.219L49.617,64.219C51.687,64.219,53.365,62.534,53.365,60.456L53.365,56.155C53.365,54.076,51.687,52.391,49.617,52.391ZM14.278,36.739L9.995,36.739C7.925,36.739,6.247,38.424,6.247,40.503L6.247,44.804C6.247,46.883,7.925,48.568,9.995,48.568L14.278,48.568C16.348,48.568,18.026,46.883,18.026,44.804L18.026,40.503C18.026,38.424,16.348,36.739,14.278,36.739ZM31.947,36.56L27.664,36.56C25.594,36.56,23.916,38.245,23.916,40.324L23.916,44.625C23.916,46.704,25.594,48.389,27.664,48.389L31.947,48.389C34.017,48.389,35.695,46.704,35.695,44.625L35.695,40.324C35.695,38.245,34.017,36.56,31.947,36.56ZM49.617,36.56L45.333,36.56C43.263,36.56,41.585,38.245,41.585,40.324L41.585,44.625C41.585,46.704,43.263,48.389,45.333,48.389L49.617,48.389C51.687,48.389,53.365,46.704,53.365,44.625L53.365,40.324C53.365,38.245,51.687,36.56,49.617,36.56ZM50.688,4.899L8.924,4.899C6.854,4.899,5.176,6.584,5.176,8.662L5.176,25.867C5.176,27.946,6.854,29.631,8.924,29.631L50.688,29.631C52.758,29.631,54.436,27.946,54.436,25.867L54.436,8.662C54.436,6.584,52.758,4.899,50.688,4.899ZM50.688,4.899"/>
</g>
  <g id="Semibold-S" transform="matrix(1.0,0.0,0.0,1.0,2014.8037706724353,617.6683403015137)">  <path stroke-linejoin="miter" stroke-opacity="1" version="1.1" stroke="none" fill-rule="nonzero" fill-opacity="1" stroke-dasharray="none" stroke-miterlimit="4" xmlns:xlink="http://www.w3.org/1999/xlink" stroke-width="1px" stroke-linecap="butt" fill="#000000" d="M51.989,0C56.133,0,59.492,3.373,59.492,7.533L59.492,78.67C59.492,82.831,56.133,86.203,51.989,86.203L7.504,86.203C3.359,86.203,0,82.831,0,78.67L0,7.533C0,3.373,3.359,0,7.504,0L51.989,0ZM31.999,68.222L10.002,68.222C7.928,68.222,6.247,69.907,6.247,71.985L6.247,76.287C6.247,78.365,7.928,80.05,10.002,80.05L31.999,80.05C34.074,80.05,35.755,78.365,35.755,76.287L35.755,71.985C35.755,69.907,34.074,68.222,31.999,68.222ZM49.617,68.222L45.333,68.222C43.263,68.222,41.585,69.907,41.585,71.985L41.585,76.287C41.585,78.365,43.263,80.05,45.333,80.05L49.617,80.05C51.687,80.05,53.365,78.365,53.365,76.287L53.365,71.985C53.365,69.907,51.687,68.222,49.617,68.222ZM14.278,52.391L9.995,52.391C7.925,52.391,6.247,54.076,6.247,56.155L6.247,60.456C6.247,62.534,7.925,64.219,9.995,64.219L14.278,64.219C16.348,64.219,18.026,62.534,18.026,60.456L18.026,56.155C18.026,54.076,16.348,52.391,14.278,52.391ZM31.947,52.391L27.664,52.391C25.594,52.391,23.916,54.076,23.916,56.155L23.916,60.456C23.916,62.534,25.594,64.219,27.664,64.219L31.947,64.219C34.017,64.219,35.695,62.534,35.695,60.456L35.695,56.155C35.695,54.076,34.017,52.391,31.947,52.391ZM49.617,52.391L45.333,52.391C43.263,52.391,41.585,54.076,41.585,56.155L41.585,60.456C41.585,62.534,43.263,64.219,45.333,64.219L49.617,64.219C51.687,64.219,53.365,62.534,53.365,60.456L53.365,56.155C53.365,54.076,51.687,52.391,49.617,52.391ZM14.278,36.739L9.995,36.739C7.925,36.739,6.247,38.424,6.247,40.503L6.247,44.804C6.247,46.883,7.925,48.568,9.995,48.568L14.278,48.568C16.348,48.568,18.026,46.883,18.026,44.804L18.026,40.503C18.026,38.424,16.348,36.739,14.278,36.739ZM31.947,36.56L27.664,36.56C25.594,36.56,23.916,38.245,23.916,40.324L23.916,44.625C23.916,46.704,25.594,48.389,27.664,48.389L31.947,48.389C34.017,48.389,35.695,46.704,35.695,44.625L35.695,40.324C35.695,38.245,34.017,36.56,31.947,36.56ZM49.617,36.56L45.333,36.56C43.263,36.56,41.585,38.245,41.585,40.324L41.585,44.625C41.585,46.704,43.263,48.389,45.333,48.389L49.617,48.389C51.687,48.389,53.365,46.704,53.365,44.625L53.365,40.324C53.365,38.245,51.687,36.56,49.617,36.56ZM50.688,4.899L8.924,4.899C6.854,4.899,5.176,6.584,5.176,8.662L5.176,25.867C5.176,27.946,6.854,29.631,8.924,29.631L50.688,29.631C52.758,29.631,54.436,27.946,54.436,25.867L54.436,8.662C54.436,6.584,52.758,4.899,50.688,4.899ZM50.688,4.899"/>
</g>
  <g id="Medium-S" transform="matrix(1.0,0.0,0.0,1.0,1718.0937706724353,617.6683403015137)">  <path xmlns:xlink="http://www.w3.org/1999/xlink" stroke-linecap="butt" stroke-dasharray="none" version="1.1" stroke="none" fill="#000000" stroke-linejoin="miter" fill-rule="nonzero" stroke-opacity="1" stroke-width="1px" fill-opacity="1" stroke-miterlimit="4" d="M51.989,0C56.133,0,59.492,3.373,59.492,7.533L59.492,78.67C59.492,82.831,56.133,86.203,51.989,86.203L7.504,86.203C3.359,86.203,0,82.831,0,78.67L0,7.533C0,3.373,3.359,0,7.504,0L51.989,0ZM31.999,68.222L10.002,68.222C7.928,68.222,6.247,69.907,6.247,71.985L6.247,76.287C6.247,78.365,7.928,80.05,10.002,80.05L31.999,80.05C34.074,80.05,35.755,78.365,35.755,76.287L35.755,71.985C35.755,69.907,34.074,68.222,31.999,68.222ZM49.617,68.222L45.333,68.222C43.263,68.222,41.585,69.907,41.585,71.985L41.585,76.287C41.585,78.365,43.263,80.05,45.333,80.05L49.617,80.05C51.687,80.05,53.365,78.365,53.365,76.287L53.365,71.985C53.365,69.907,51.687,68.222,49.617,68.222ZM14.278,52.391L9.995,52.391C7.925,52.391,6.247,54.076,6.247,56.155L6.247,60.456C6.247,62.534,7.925,64.219,9.995,64.219L14.278,64.219C16.348,64.219,18.026,62.534,18.026,60.456L18.026,56.155C18.026,54.076,16.348,52.391,14.278,52.391ZM31.947,52.391L27.664,52.391C25.594,52.391,23.916,54.076,23.916,56.155L23.916,60.456C23.916,62.534,25.594,64.219,27.664,64.219L31.947,64.219C34.017,64.219,35.695,62.534,35.695,60.456L35.695,56.155C35.695,54.076,34.017,52.391,31.947,52.391ZM49.617,52.391L45.333,52.391C43.263,52.391,41.585,54.076,41.585,56.155L41.585,60.456C41.585,62.534,43.263,64.219,45.333,64.219L49.617,64.219C51.687,64.219,53.365,62.534,53.365,60.456L53.365,56.155C53.365,54.076,51.687,52.391,49.617,52.391ZM14.278,36.739L9.995,36.739C7.925,36.739,6.247,38.424,6.247,40.503L6.247,44.804C6.247,46.883,7.925,48.568,9.995,48.568L14.278,48.568C16.348,48.568,18.026,46.883,18.026,44.804L18.026,40.503C18.026,38.424,16.348,36.739,14.278,36.739ZM31.947,36.56L27.664,36.56C25.594,36.56,23.916,38.245,23.916,40.324L23.916,44.625C23.916,46.704,25.594,48.389,27.664,48.389L31.947,48.389C34.017,48.389,35.695,46.704,35.695,44.625L35.695,40.324C35.695,38.245,34.017,36.56,31.947,36.56ZM49.617,36.56L45.333,36.56C43.263,36.56,41.585,38.245,41.585,40.324L41.585,44.625C41.585,46.704,43.263,48.389,45.333,48.389L49.617,48.389C51.687,48.389,53.365,46.704,53.365,44.625L53.365,40.324C53.365,38.245,51.687,36.56,49.617,36.56ZM50.688,4.899L8.924,4.899C6.854,4.899,5.176,6.584,5.176,8.662L5.176,25.867C5.176,27.946,6.854,29.631,8.924,29.631L50.688,29.631C52.758,29.631,54.436,27.946,54.436,25.867L54.436,8.662C54.436,6.584,52.758,4.899,50.688,4.899ZM50.688,4.899"/>
</g>
  <g id="Regular-S" transform="matrix(1.0,0.0,0.0,1.0,1421.3837706724353,617.6683403015137)">  <path fill-opacity="1" fill="#000000" version="1.1" stroke="none" xmlns:xlink="http://www.w3.org/1999/xlink" stroke-opacity="1" stroke-miterlimit="4" stroke-dasharray="none" stroke-width="1px" stroke-linecap="butt" stroke-linejoin="miter" fill-rule="nonzero" d="M51.989,0C56.133,0,59.492,3.373,59.492,7.533L59.492,78.67C59.492,82.831,56.133,86.203,51.989,86.203L7.504,86.203C3.359,86.203,0,82.831,0,78.67L0,7.533C0,3.373,3.359,0,7.504,0L51.989,0ZM31.999,68.222L10.002,68.222C7.928,68.222,6.247,69.907,6.247,71.985L6.247,76.287C6.247,78.365,7.928,80.05,10.002,80.05L31.999,80.05C34.074,80.05,35.755,78.365,35.755,76.287L35.755,71.985C35.755,69.907,34.074,68.222,31.999,68.222ZM49.617,68.222L45.333,68.222C43.263,68.222,41.585,69.907,41.585,71.985L41.585,76.287C41.585,78.365,43.263,80.05,45.333,80.05L49.617,80.05C51.687,80.05,53.365,78.365,53.365,76.287L53.365,71.985C53.365,69.907,51.687,68.222,49.617,68.222ZM14.278,52.391L9.995,52.391C7.925,52.391,6.247,54.076,6.247,56.155L6.247,60.456C6.247,62.534,7.925,64.219,9.995,64.219L14.278,64.219C16.348,64.219,18.026,62.534,18.026,60.456L18.026,56.155C18.026,54.076,16.348,52.391,14.278,52.391ZM31.947,52.391L27.664,52.391C25.594,52.391,23.916,54.076,23.916,56.155L23.916,60.456C23.916,62.534,25.594,64.219,27.664,64.219L31.947,64.219C34.017,64.219,35.695,62.534,35.695,60.456L35.695,56.155C35.695,54.076,34.017,52.391,31.947,52.391ZM49.617,52.391L45.333,52.391C43.263,52.391,41.585,54.076,41.585,56.155L41.585,60.456C41.585,62.534,43.263,64.219,45.333,64.219L49.617,64.219C51.687,64.219,53.365,62.534,53.365,60.456L53.365,56.155C53.365,54.076,51.687,52.391,49.617,52.391ZM14.278,36.739L9.995,36.739C7.925,36.739,6.247,38.424,6.247,40.503L6.247,44.804C6.247,46.883,7.925,48.568,9.995,48.568L14.278,48.568C16.348,48.568,18.026,46.883,18.026,44.804L18.026,40.503C18.026,38.424,16.348,36.739,14.278,36.739ZM31.947,36.56L27.664,36.56C25.594,36.56,23.916,38.245,23.916,40.324L23.916,44.625C23.916,46.704,25.594,48.389,27.664,48.389L31.947,48.389C34.017,48.389,35.695,46.704,35.695,44.625L35.695,40.324C35.695,38.245,34.017,36.56,31.947,36.56ZM49.617,36.56L45.333,36.56C43.263,36.56,41.585,38.245,41.585,40.324L41.585,44.625C41.585,46.704,43.263,48.389,45.333,48.389L49.617,48.389C51.687,48.389,53.365,46.704,53.365,44.625L53.365,40.324C53.365,38.245,51.687,36.56,49.617,36.56ZM50.688,4.899L8.924,4.899C6.854,4.899,5.176,6.584,5.176,8.662L5.176,25.867C5.176,27.946,6.854,29.631,8.924,29.631L50.688,29.631C52.758,29.631,54.436,27.946,54.436,25.867L54.436,8.662C54.436,6.584,52.758,4.899,50.688,4.899ZM50.688,4.899"/>
</g>
  <g id="Light-S" transform="matrix(1.0,0.0,0.0,1.0,1124.6737706724355,617.6683403015137)">  <path stroke-linejoin="miter" stroke-linecap="butt" stroke-dasharray="none" fill-opacity="1" fill-rule="nonzero" xmlns:xlink="http://www.w3.org/1999/xlink" stroke-opacity="1" stroke-width="1px" stroke="none" stroke-miterlimit="4" fill="#000000" version="1.1" d="M51.989,0C56.133,0,59.492,3.373,59.492,7.533L59.492,78.67C59.492,82.831,56.133,86.203,51.989,86.203L7.504,86.203C3.359,86.203,0,82.831,0,78.67L0,7.533C0,3.373,3.359,0,7.504,0L51.989,0ZM31.999,68.222L10.002,68.222C7.928,68.222,6.247,69.907,6.247,71.985L6.247,76.287C6.247,78.365,7.928,80.05,10.002,80.05L31.999,80.05C34.074,80.05,35.755,78.365,35.755,76.287L35.755,71.985C35.755,69.907,34.074,68.222,31.999,68.222ZM49.617,68.222L45.333,68.222C43.263,68.222,41.585,69.907,41.585,71.985L41.585,76.287C41.585,78.365,43.263,80.05,45.333,80.05L49.617,80.05C51.687,80.05,53.365,78.365,53.365,76.287L53.365,71.985C53.365,69.907,51.687,68.222,49.617,68.222ZM14.278,52.391L9.995,52.391C7.925,52.391,6.247,54.076,6.247,56.155L6.247,60.456C6.247,62.534,7.925,64.219,9.995,64.219L14.278,64.219C16.348,64.219,18.026,62.534,18.026,60.456L18.026,56.155C18.026,54.076,16.348,52.391,14.278,52.391ZM31.947,52.391L27.664,52.391C25.594,52.391,23.916,54.076,23.916,56.155L23.916,60.456C23.916,62.534,25.594,64.219,27.664,64.219L31.947,64.219C34.017,64.219,35.695,62.534,35.695,60.456L35.695,56.155C35.695,54.076,34.017,52.391,31.947,52.391ZM49.617,52.391L45.333,52.391C43.263,52.391,41.585,54.076,41.585,56.155L41.585,60.456C41.585,62.534,43.263,64.219,45.333,64.219L49.617,64.219C51.687,64.219,53.365,62.534,53.365,60.456L53.365,56.155C53.365,54.076,51.687,52.391,49.617,52.391ZM14.278,36.739L9.995,36.739C7.925,36.739,6.247,38.424,6.247,40.503L6.247,44.804C6.247,46.883,7.925,48.568,9.995,48.568L14.278,48.568C16.348,48.568,18.026,46.883,18.026,44.804L18.026,40.503C18.026,38.424,16.348,36.739,14.278,36.739ZM31.947,36.56L27.664,36.56C25.594,36.56,23.916,38.245,23.916,40.324L23.916,44.625C23.916,46.704,25.594,48.389,27.664,48.389L31.947,48.389C34.017,48.389,35.695,46.704,35.695,44.625L35.695,40.324C35.695,38.245,34.017,36.56,31.947,36.56ZM49.617,36.56L45.333,36.56C43.263,36.56,41.585,38.245,41.585,40.324L41.585,44.625C41.585,46.704,43.263,48.389,45.333,48.389L49.617,48.389C51.687,48.389,53.365,46.704,53.365,44.625L53.365,40.324C53.365,38.245,51.687,36.56,49.617,36.56ZM50.688,4.899L8.924,4.899C6.854,4.899,5.176,6.584,5.176,8.662L5.176,25.867C5.176,27.946,6.854,29.631,8.924,29.631L50.688,29.631C52.758,29.631,54.436,27.946,54.436,25.867L54.436,8.662C54.436,6.584,52.758,4.899,50.688,4.899ZM50.688,4.899"/>
</g>
  <g id="Thin-S" transform="matrix(1.0,0.0,0.0,1.0,827.9637706724355,617.6683403015137)">  <path stroke-opacity="1" xmlns:xlink="http://www.w3.org/1999/xlink" version="1.1" stroke="none" stroke-dasharray="none" stroke-miterlimit="4" stroke-linecap="butt" stroke-width="1px" stroke-linejoin="miter" fill="#000000" fill-opacity="1" fill-rule="nonzero" d="M51.989,0C56.133,0,59.492,3.373,59.492,7.533L59.492,78.67C59.492,82.831,56.133,86.203,51.989,86.203L7.504,86.203C3.359,86.203,0,82.831,0,78.67L0,7.533C0,3.373,3.359,0,7.504,0L51.989,0ZM31.999,68.222L10.002,68.222C7.928,68.222,6.247,69.907,6.247,71.985L6.247,76.287C6.247,78.365,7.928,80.05,10.002,80.05L31.999,80.05C34.074,80.05,35.755,78.365,35.755,76.287L35.755,71.985C35.755,69.907,34.074,68.222,31.999,68.222ZM49.617,68.222L45.333,68.222C43.263,68.222,41.585,69.907,41.585,71.985L41.585,76.287C41.585,78.365,43.263,80.05,45.333,80.05L49.617,80.05C51.687,80.05,53.365,78.365,53.365,76.287L53.365,71.985C53.365,69.907,51.687,68.222,49.617,68.222ZM14.278,52.391L9.995,52.391C7.925,52.391,6.247,54.076,6.247,56.155L6.247,60.456C6.247,62.534,7.925,64.219,9.995,64.219L14.278,64.219C16.348,64.219,18.026,62.534,18.026,60.456L18.026,56.155C18.026,54.076,16.348,52.391,14.278,52.391ZM31.947,52.391L27.664,52.391C25.594,52.391,23.916,54.076,23.916,56.155L23.916,60.456C23.916,62.534,25.594,64.219,27.664,64.219L31.947,64.219C34.017,64.219,35.695,62.534,35.695,60.456L35.695,56.155C35.695,54.076,34.017,52.391,31.947,52.391ZM49.617,52.391L45.333,52.391C43.263,52.391,41.585,54.076,41.585,56.155L41.585,60.456C41.585,62.534,43.263,64.219,45.333,64.219L49.617,64.219C51.687,64.219,53.365,62.534,53.365,60.456L53.365,56.155C53.365,54.076,51.687,52.391,49.617,52.391ZM14.278,36.739L9.995,36.739C7.925,36.739,6.247,38.424,6.247,40.503L6.247,44.804C6.247,46.883,7.925,48.568,9.995,48.568L14.278,48.568C16.348,48.568,18.026,46.883,18.026,44.804L18.026,40.503C18.026,38.424,16.348,36.739,14.278,36.739ZM31.947,36.56L27.664,36.56C25.594,36.56,23.916,38.245,23.916,40.324L23.916,44.625C23.916,46.704,25.594,48.389,27.664,48.389L31.947,48.389C34.017,48.389,35.695,46.704,35.695,44.625L35.695,40.324C35.695,38.245,34.017,36.56,31.947,36.56ZM49.617,36.56L45.333,36.56C43.263,36.56,41.585,38.245,41.585,40.324L41.585,44.625C41.585,46.704,43.263,48.389,45.333,48.389L49.617,48.389C51.687,48.389,53.365,46.704,53.365,44.625L53.365,40.324C53.365,38.245,51.687,36.56,49.617,36.56ZM50.688,4.899L8.924,4.899C6.854,4.899,5.176,6.584,5.176,8.662L5.176,25.867C5.176,27.946,6.854,29.631,8.924,29.631L50.688,29.631C52.758,29.631,54.436,27.946,54.436,25.867L54.436,8.662C54.436,6.584,52.758,4.899,50.688,4.899ZM50.688,4.899"/>
</g>
  <g id="Ultralight-S" transform="matrix(1.0,0.0,0.0,1.0,531.2537706724355,617.6683403015137)">  <path xmlns:xlink="http://www.w3.org/1999/xlink" stroke-opacity="1" fill-rule="nonzero" stroke-dasharray="none" stroke-linecap="butt" version="1.1" stroke-miterlimit="4" fill-opacity="1" stroke="none" stroke-width="1px" stroke-linejoin="miter" fill="#000000" d="M51.989,0C56.133,0,59.492,3.373,59.492,7.533L59.492,78.67C59.492,82.831,56.133,86.203,51.989,86.203L7.504,86.203C3.359,86.203,0,82.831,0,78.67L0,7.533C0,3.373,3.359,0,7.504,0L51.989,0ZM31.999,68.222L10.002,68.222C7.928,68.222,6.247,69.907,6.247,71.985L6.247,76.287C6.247,78.365,7.928,80.05,10.002,80.05L31.999,80.05C34.074,80.05,35.755,78.365,35.755,76.287L35.755,71.985C35.755,69.907,34.074,68.222,31.999,68.222ZM49.617,68.222L45.333,68.222C43.263,68.222,41.585,69.907,41.585,71.985L41.585,76.287C41.585,78.365,43.263,80.05,45.333,80.05L49.617,80.05C51.687,80.05,53.365,78.365,53.365,76.287L53.365,71.985C53.365,69.907,51.687,68.222,49.617,68.222ZM14.278,52.391L9.995,52.391C7.925,52.391,6.247,54.076,6.247,56.155L6.247,60.456C6.247,62.534,7.925,64.219,9.995,64.219L14.278,64.219C16.348,64.219,18.026,62.534,18.026,60.456L18.026,56.155C18.026,54.076,16.348,52.391,14.278,52.391ZM31.947,52.391L27.664,52.391C25.594,52.391,23.916,54.076,23.916,56.155L23.916,60.456C23.916,62.534,25.594,64.219,27.664,64.219L31.947,64.219C34.017,64.219,35.695,62.534,35.695,60.456L35.695,56.155C35.695,54.076,34.017,52.391,31.947,52.391ZM49.617,52.391L45.333,52.391C43.263,52.391,41.585,54.076,41.585,56.155L41.585,60.456C41.585,62.534,43.263,64.219,45.333,64.219L49.617,64.219C51.687,64.219,53.365,62.534,53.365,60.456L53.365,56.155C53.365,54.076,51.687,52.391,49.617,52.391ZM14.278,36.739L9.995,36.739C7.925,36.739,6.247,38.424,6.247,40.503L6.247,44.804C6.247,46.883,7.925,48.568,9.995,48.568L14.278,48.568C16.348,48.568,18.026,46.883,18.026,44.804L18.026,40.503C18.026,38.424,16.348,36.739,14.278,36.739ZM31.947,36.56L27.664,36.56C25.594,36.56,23.916,38.245,23.916,40.324L23.916,44.625C23.916,46.704,25.594,48.389,27.664,48.389L31.947,48.389C34.017,48.389,35.695,46.704,35.695,44.625L35.695,40.324C35.695,38.245,34.017,36.56,31.947,36.56ZM49.617,36.56L45.333,36.56C43.263,36.56,41.585,38.245,41.585,40.324L41.585,44.625C41.585,46.704,43.263,48.389,45.333,48.389L49.617,48.389C51.687,48.389,53.365,46.704,53.365,44.625L53.365,40.324C53.365,38.245,51.687,36.56,49.617,36.56ZM50.688,4.899L8.924,4.899C6.854,4.899,5.176,6.584,5.176,8.662L5.176,25.867C5.176,27.946,6.854,29.631,8.924,29.631L50.688,29.631C52.758,29.631,54.436,27.946,54.436,25.867L54.436,8.662C54.436,6.584,52.758,4.899,50.688,4.899ZM50.688,4.899"/>
</g>
 </g>
</svg>
