<?xml version="1.0" encoding="UTF-8"?>
<!--Generator: Apple Native CoreSVG 326-->
<!DOCTYPE svg
PUBLIC "-//W3C//DTD SVG 1.1//EN"
       "http://www.w3.org/Graphics/SVG/1.1/DTD/svg11.dtd">
<svg version="1.1" xmlns="http://www.w3.org/2000/svg" xmlns:xlink="http://www.w3.org/1999/xlink" viewBox="0 0 27.6346 22.9131">
 <g>
  <rect height="22.9131" opacity="0" width="27.6346" x="0" y="0"/>
  <path d="M13.6327 22.8955C19.9521 22.8955 25.0761 17.7715 25.0761 11.4521C25.0761 5.13281 19.9521 0 13.6327 0C7.31339 0 2.18937 5.13281 2.18937 11.4521L3.82413 11.4521C3.82413 6.0293 8.20988 1.64355 13.6327 1.64355C19.0556 1.64355 23.4413 6.0293 23.4413 11.4521C23.4413 16.875 19.0556 21.2607 13.6327 21.2607C10.2753 21.2607 7.27824 19.5557 5.56437 16.9893C5.27433 16.5938 4.8173 16.4707 4.413 16.7168C4.02628 16.9453 3.91202 17.4814 4.22843 17.9121C6.27628 20.9268 9.73917 22.8955 13.6327 22.8955ZM0.721595 9.3252C0.000891658 9.3252-0.201257 9.81738 0.211829 10.3887L2.70792 13.9395C3.04191 14.4229 3.52531 14.4141 3.8505 13.9395L6.34659 10.3799C6.7421 9.81738 6.54874 9.3252 5.83683 9.3252Z" fill="black" fill-opacity="0.85"/>
  <path d="M13.6239 13.4912C14.0985 13.4912 14.3798 13.21 14.3886 12.6914L14.5292 6.65332C14.538 6.14355 14.1425 5.76562 13.6151 5.76562C13.079 5.76562 12.7099 6.13477 12.7187 6.64453L12.8505 12.6914C12.8593 13.2012 13.1405 13.4912 13.6239 13.4912ZM13.6239 17.0684C14.2304 17.0684 14.7401 16.585 14.7401 15.9873C14.7401 15.3809 14.2392 14.9062 13.6239 14.9062C13.0175 14.9062 12.5165 15.3896 12.5165 15.9873C12.5165 16.5762 13.0263 17.0684 13.6239 17.0684Z" fill="black" fill-opacity="0.85"/>
 </g>
</svg>
