<?xml version="1.0" encoding="UTF-8"?>
<!--Generator: Apple Native CoreSVG 232.5-->
<!DOCTYPE svg
PUBLIC "-//W3C//DTD SVG 1.1//EN"
       "http://www.w3.org/Graphics/SVG/1.1/DTD/svg11.dtd">
<svg version="1.1" xmlns="http://www.w3.org/2000/svg" xmlns:xlink="http://www.w3.org/1999/xlink" width="36.1084" height="35.1929">
 <g>
  <rect height="35.1929" opacity="0" width="36.1084" x="0" y="0"/>
  <path d="M17.8833 5.82275C18.9819 5.82275 19.8486 4.84619 19.8486 3.58887C19.8486 2.30713 19.4458 1.46484 18.6768 0.561523C18.2007-0.0244141 17.627-0.0244141 17.1509 0.488281C16.3818 1.40381 15.918 2.24609 15.918 3.58887C15.918 4.84619 16.7969 5.82275 17.8833 5.82275ZM17.0776 13.0005L18.6279 13.0005L18.6279 4.3335L17.0776 4.3335ZM7.78809 20.6909L9.96094 20.6909L9.96094 16.6992C9.96094 15.1978 10.8276 14.3555 12.2803 14.3555L23.4863 14.3555C24.939 14.3555 25.8057 15.1978 25.8057 16.6992L25.8057 20.6909L27.9785 20.6909L27.9785 16.5894C27.9785 13.7207 26.4404 12.1948 23.5352 12.1948L12.2314 12.1948C9.33838 12.1948 7.78809 13.7207 7.78809 16.5894ZM2.47803 34.2407L4.63867 34.2407L4.63867 24.5972C4.63867 23.0957 5.50537 22.2534 6.95801 22.2534L28.8086 22.2534C30.2612 22.2534 31.1279 23.0957 31.1279 24.5972L31.1279 34.2407L33.2886 34.2407L33.2886 24.4873C33.2886 21.6064 31.7627 20.0928 28.8452 20.0928L6.92139 20.0928C4.01611 20.0928 2.47803 21.6064 2.47803 24.4873ZM17.8589 27.6611C19.2505 27.6611 20.3125 29.4189 22.583 29.4189C24.8047 29.4189 25.8057 27.6611 27.124 27.6611C28.4424 27.6611 29.4556 29.4189 31.8359 29.4189L32.1899 29.4189L32.1899 27.3193L31.8359 27.3193C30.2734 27.3193 29.2603 25.5615 27.124 25.5615C24.9756 25.5615 24.1577 27.3193 22.583 27.3193C20.7764 27.3193 20.0317 25.5615 17.8589 25.5615C15.686 25.5615 14.9292 27.3193 13.1226 27.3193C11.5479 27.3193 10.7422 25.5615 8.59375 25.5615C6.44531 25.5615 5.44434 27.3193 3.88184 27.3193L3.45459 27.3193L3.45459 29.4189L3.88184 29.4189C6.26221 29.4189 7.27539 27.6611 8.59375 27.6611C9.8999 27.6611 10.9009 29.4189 13.1226 29.4189C15.4053 29.4189 16.4673 27.6611 17.8589 27.6611ZM1.08643 35.1929L34.6802 35.1929C35.2661 35.1929 35.7544 34.7046 35.7544 34.1064C35.7544 33.5205 35.2661 33.0322 34.6802 33.0322L1.08643 33.0322C0.488281 33.0322 0 33.5205 0 34.1064C0 34.7046 0.488281 35.1929 1.08643 35.1929Z" fill="#000000" fill-opacity="0.85"/>
 </g>
</svg>
