<?xml version="1.0" encoding="UTF-8"?>
<!--Generator: Apple Native CoreSVG 232.5-->
<!DOCTYPE svg
PUBLIC "-//W3C//DTD SVG 1.1//EN"
       "http://www.w3.org/Graphics/SVG/1.1/DTD/svg11.dtd">
<svg version="1.1" xmlns="http://www.w3.org/2000/svg" xmlns:xlink="http://www.w3.org/1999/xlink" width="38.4277" height="16.5649">
 <g>
  <rect height="16.5649" opacity="0" width="38.4277" x="0" y="0"/>
  <path d="M38.0737 4.11377C38.0737 1.42822 36.6333 0 33.9111 0L4.12598 0C1.41602 0 0 1.42822 0 4.11377L0 12.4512C0 15.1367 1.42822 16.5649 4.13818 16.5649L33.9233 16.5649C36.6455 16.5649 38.0737 15.1367 38.0737 12.4512ZM35.8887 4.47998L35.8887 12.0972C35.8887 13.5986 35.0586 14.4043 33.606 14.4043L4.44336 14.4043C2.99072 14.4043 2.16064 13.5986 2.16064 12.0972L2.16064 4.47998C2.16064 2.97852 2.99072 2.16064 4.45557 2.16064L33.6182 2.16064C35.0586 2.16064 35.8887 2.97852 35.8887 4.47998ZM5.70068 1.3916L4.5166 1.3916L4.5166 9.5459C4.5166 9.8999 4.78516 10.1318 5.11475 10.1318C5.45654 10.1318 5.70068 9.8877 5.70068 9.53369ZM8.48389 1.3916L7.31201 1.3916L7.31201 6.79932C7.31201 7.15332 7.56836 7.38525 7.89795 7.38525C8.25195 7.38525 8.48389 7.14111 8.48389 6.78711ZM11.2671 1.3916L10.0952 1.3916L10.0952 6.79932C10.0952 7.15332 10.3516 7.38525 10.6812 7.38525C11.0352 7.38525 11.2671 7.14111 11.2671 6.78711ZM14.0381 1.3916L12.8662 1.3916L12.8662 6.79932C12.8662 7.15332 13.1226 7.38525 13.4521 7.38525C13.8062 7.38525 14.0381 7.14111 14.0381 6.78711ZM16.8335 1.3916L15.6616 1.3916L15.6616 6.79932C15.6616 7.15332 15.918 7.38525 16.2476 7.38525C16.6016 7.38525 16.8335 7.14111 16.8335 6.78711ZM19.6289 1.3916L18.457 1.3916L18.457 9.5459C18.457 9.8999 18.7134 10.1318 19.043 10.1318C19.397 10.1318 19.6289 9.8877 19.6289 9.53369ZM22.4121 1.3916L21.228 1.3916L21.228 6.79932C21.228 7.15332 21.4966 7.38525 21.8262 7.38525C22.168 7.38525 22.4121 7.14111 22.4121 6.78711ZM25.1953 1.3916L24.0234 1.3916L24.0234 6.79932C24.0234 7.15332 24.2798 7.38525 24.6094 7.38525C24.9634 7.38525 25.1953 7.14111 25.1953 6.78711ZM27.9785 1.3916L26.8066 1.3916L26.8066 6.79932C26.8066 7.15332 27.063 7.38525 27.3926 7.38525C27.7344 7.38525 27.9785 7.14111 27.9785 6.78711ZM30.7617 1.3916L29.5898 1.3916L29.5898 6.79932C29.5898 7.15332 29.8462 7.38525 30.1758 7.38525C30.5298 7.38525 30.7617 7.14111 30.7617 6.78711ZM33.5449 1.3916L32.373 1.3916L32.373 9.5459C32.373 9.8999 32.6294 10.1318 32.959 10.1318C33.313 10.1318 33.5449 9.8877 33.5449 9.53369Z" fill="#000000" fill-opacity="0.85"/>
 </g>
</svg>
