<?xml version="1.0" encoding="UTF-8"?>
<!--Generator: Apple Native CoreSVG 232.5-->
<!DOCTYPE svg
PUBLIC "-//W3C//DTD SVG 1.1//EN"
       "http://www.w3.org/Graphics/SVG/1.1/DTD/svg11.dtd">
<svg version="1.1" xmlns="http://www.w3.org/2000/svg" xmlns:xlink="http://www.w3.org/1999/xlink" width="29.0527" height="28.7231">
 <g>
  <rect height="28.7231" opacity="0" width="29.0527" x="0" y="0"/>
  <path d="M4.74854 28.7231L23.938 28.7231C27.0996 28.7231 28.6987 27.1362 28.6987 24.0234L28.6987 4.73633C28.6987 1.62354 27.0996 0.0366211 23.938 0.0366211L4.74854 0.0366211C1.59912 0.0366211 0 1.61133 0 4.73633L0 24.0234C0 27.1484 1.59912 28.7231 4.74854 28.7231ZM4.79736 26.5625C3.08838 26.5625 2.16064 25.6592 2.16064 23.9136L2.16064 4.84619C2.16064 3.10059 3.08838 2.19727 4.79736 2.19727L23.9014 2.19727C25.5737 2.19727 26.5381 3.10059 26.5381 4.84619L26.5381 23.9136C26.5381 25.6592 25.5737 26.5625 23.9014 26.5625Z" fill="#000000" fill-opacity="0.85"/>
  <path d="M10.6079 21.0327C13.6841 21.0327 14.563 17.4194 14.563 14.3555C14.563 11.2915 13.6841 7.67822 10.6079 7.67822C7.53174 7.67822 6.66504 11.2915 6.66504 14.3555C6.66504 17.4194 7.53174 21.0327 10.6079 21.0327ZM10.6079 19.3848C9.13086 19.3848 8.66699 16.9678 8.66699 14.3555C8.66699 11.731 9.13086 9.32617 10.6079 9.32617C12.085 9.32617 12.5488 11.731 12.5488 14.3555C12.5488 16.9678 12.085 19.3848 10.6079 19.3848ZM19.8364 20.8862C20.3735 20.8862 20.8252 20.4346 20.8252 19.873L20.8252 8.91113C20.8252 8.21533 20.3857 7.80029 19.6777 7.80029C19.104 7.80029 18.6279 8.10547 18.2983 8.37402L16.4551 9.82666C16.2109 10.022 16.0278 10.2783 16.0278 10.6323C16.0278 11.0718 16.3208 11.377 16.748 11.377C16.9678 11.377 17.1021 11.3037 17.2485 11.1938L18.811 9.93652L18.811 19.873C18.811 20.4346 19.2749 20.8862 19.8364 20.8862Z" fill="#000000" fill-opacity="0.85"/>
 </g>
</svg>
