<?xml version="1.0" encoding="UTF-8"?>
<!--Generator: Apple Native CoreSVG 326-->
<!DOCTYPE svg
PUBLIC "-//W3C//DTD SVG 1.1//EN"
       "http://www.w3.org/Graphics/SVG/1.1/DTD/svg11.dtd">
<svg version="1.1" xmlns="http://www.w3.org/2000/svg" xmlns:xlink="http://www.w3.org/1999/xlink" viewBox="0 0 70.1843 73.2605">
 <g>
  <rect height="73.2605" opacity="0" width="70.1843" x="0" y="0"/>
  <path d="M36.5936 69.9677L67.4286 39.0595C69.6747 36.8378 69.8456 35.6415 69.8456 32.3212L69.8456 20.3339C69.8456 17.16 69.162 16.2079 66.7694 13.8397L59.4696 6.51551C57.077 4.12293 56.1249 3.46375 52.9511 3.46375L40.9882 3.46375C37.6434 3.46375 36.4716 3.63465 34.2255 5.85633L3.29285 36.6913C-1.07726 41.037-1.12609 45.578 3.31727 49.9725L23.3124 69.9432C27.7557 74.3866 32.2479 74.3378 36.5936 69.9677ZM33.6884 66.745C31.247 69.1864 28.6835 69.2108 26.1932 66.7206L6.53992 47.0673C4.0741 44.577 4.09852 41.9891 6.51551 39.5966L37.2772 8.90809C38.0096 8.20008 38.7665 7.78504 39.8895 7.78504L53.1708 7.78504C54.245 7.78504 54.9774 8.17567 55.7343 8.90809L64.3768 17.5507C65.1337 18.3075 65.4999 19.0643 65.4999 20.1386L65.4999 33.3954C65.4999 34.5429 65.1093 35.2997 64.3768 36.0077ZM49.3622 27.9511C51.6327 27.9511 53.3661 26.1932 53.3661 23.9471C53.3661 21.7011 51.6327 19.9432 49.3622 19.9432C47.0673 19.9432 45.3339 21.7011 45.3339 23.9471C45.3339 26.1932 47.0673 27.9511 49.3622 27.9511Z" fill="black" fill-opacity="0.85"/>
 </g>
</svg>
