<?xml version="1.0" encoding="UTF-8"?>
<!--Generator: Apple Native CoreSVG 232.5-->
<!DOCTYPE svg
PUBLIC "-//W3C//DTD SVG 1.1//EN"
       "http://www.w3.org/Graphics/SVG/1.1/DTD/svg11.dtd">
<svg version="1.1" xmlns="http://www.w3.org/2000/svg" xmlns:xlink="http://www.w3.org/1999/xlink" width="31.9458" height="34.1645">
 <g>
  <rect height="34.1645" opacity="0" width="31.9458" x="0" y="0"/>
  <path d="M2.03857 26.7807L14.5508 33.812C15.4053 34.2758 16.1865 34.288 17.041 33.812L29.5532 26.7807C30.9204 26.0117 31.5918 25.2182 31.5918 23.2041L31.5918 10.3867C31.5918 8.97066 31.0425 8.07954 29.8706 7.42036L18.335 0.901809C16.6382-0.0747532 14.9536-0.0747532 13.2446 0.901809L1.72119 7.42036C0.549316 8.07954 0 8.97066 0 10.3867L0 23.2041C0 25.2182 0.671387 26.0117 2.03857 26.7807ZM3.2959 25.0351C2.34375 24.5102 2.0752 23.9975 2.0752 23.1186L2.0752 10.8505L14.7339 17.9917L14.7339 31.456ZM28.2959 25.0351L16.8579 31.456L16.8579 17.9917L29.5166 10.8505L29.5166 23.1186C29.5166 23.9975 29.248 24.5102 28.2959 25.0351ZM15.7959 16.0996L3.17383 9.03169L14.209 2.7939C15.2832 2.18355 16.3086 2.17134 17.3828 2.7939L28.418 9.03169Z" fill="#000000" fill-opacity="0.85"/>
 </g>
</svg>
