<?xml version="1.0" encoding="UTF-8"?>
<!--Generator: Apple Native CoreSVG 326-->
<!DOCTYPE svg
PUBLIC "-//W3C//DTD SVG 1.1//EN"
       "http://www.w3.org/Graphics/SVG/1.1/DTD/svg11.dtd">
<svg version="1.1" xmlns="http://www.w3.org/2000/svg" xmlns:xlink="http://www.w3.org/1999/xlink" viewBox="0 0 63.8916 54.9561">
 <g>
  <rect height="54.9561" opacity="0" width="63.8916" x="0" y="0"/>
  <path d="M0 31.7871C0 40.0391 3.24707 47.6318 8.49609 53.2959C9.69238 54.6143 11.7188 54.9316 13.3057 53.3447L18.2617 48.3887C19.1162 47.583 19.0918 46.167 18.2617 45.3369C17.4316 44.5068 16.04 44.4824 15.21 45.3369L11.084 49.4629C7.03125 44.7021 4.56543 38.5742 4.56543 31.7871C4.56543 16.6748 16.6748 4.54102 31.7627 4.54102C46.875 4.54102 58.96 16.6748 58.96 31.7871C58.96 38.5742 56.5186 44.7021 52.4658 49.4629L48.3398 45.3369C47.5098 44.4824 46.1182 44.5068 45.2637 45.3369C44.4336 46.167 44.4336 47.583 45.2637 48.3887L50.2441 53.3447C51.8311 54.9316 53.8574 54.6143 55.0293 53.2959C60.3027 47.6318 63.5498 40.0391 63.5498 31.7871C63.5498 14.3799 49.1699 0 31.7627 0C14.3799 0 0 14.3799 0 31.7871ZM10.498 29.6143L2.29492 29.6143L2.29492 33.96L10.498 33.96C11.6699 33.96 12.6465 32.959 12.6465 31.7871C12.6465 30.5908 11.6699 29.6143 10.498 29.6143ZM29.6143 10.4492C29.6143 11.6455 30.5908 12.6221 31.7627 12.6221C32.959 12.6221 33.9355 11.6455 33.9355 10.4492L33.9355 2.24609L29.6143 2.24609ZM45.3369 15.1611C44.5068 15.9912 44.5068 17.4072 45.3369 18.2373C46.1914 19.0674 47.583 19.0674 48.4131 18.2373L54.1992 12.4268L51.1475 9.375ZM53.125 29.6143C51.9531 29.6143 50.9766 30.5908 50.9766 31.7871C50.9766 32.959 51.9531 33.96 53.125 33.96L61.3281 33.96L61.3281 29.6143Z" fill="black" fill-opacity="0.85"/>
  <path d="M35.7178 35.5713C37.6221 33.6426 37.6221 30.835 35.7178 28.9307C35.376 28.5645 34.6436 28.0518 34.2041 27.71L18.8232 16.8457C18.1641 16.3818 17.5049 16.5039 17.0654 16.9189C16.6504 17.3584 16.5283 18.0176 16.9922 18.6523L27.8809 34.0576C28.1982 34.4971 28.7354 35.2295 29.0527 35.5713C30.9814 37.4756 33.7891 37.4756 35.7178 35.5713Z" fill="black" fill-opacity="0.85"/>
 </g>
</svg>
