<?xml version="1.0" encoding="UTF-8"?>
<!--Generator: Apple Native CoreSVG 326-->
<!DOCTYPE svg
PUBLIC "-//W3C//DTD SVG 1.1//EN"
       "http://www.w3.org/Graphics/SVG/1.1/DTD/svg11.dtd">
<svg version="1.1" xmlns="http://www.w3.org/2000/svg" xmlns:xlink="http://www.w3.org/1999/xlink" viewBox="0 0 59.1064 59.4482">
 <g>
  <rect height="59.4482" opacity="0" width="59.1064" x="0" y="0"/>
  <path d="M0 15.7715C0 16.8213 0.854492 17.6758 1.9043 17.6758L8.54492 17.6758L8.54492 24.3164C8.54492 25.3906 9.42383 26.2207 10.4736 26.2207C11.5479 26.2207 12.3779 25.3662 12.3779 24.3164L12.3779 17.6758L19.043 17.6758C20.1172 17.6758 20.9717 16.8213 20.9717 15.7715C20.9717 14.6973 20.1172 13.8428 19.043 13.8428L12.3779 13.8428L12.3779 7.17773C12.3779 6.12793 11.5234 5.27344 10.4736 5.27344C9.39941 5.27344 8.54492 6.12793 8.54492 7.17773L8.54492 13.8428L1.9043 13.8428C0.854492 13.8428 0 14.6973 0 15.7715ZM31.2012 30.835L49.3652 3.4668C49.7559 2.92969 49.9023 2.46582 49.9023 1.9043C49.9023 0.830078 48.9502 0 47.8516 0C46.875 0 46.3867 0.292969 45.6055 1.41602L27.5391 28.7354L9.44824 55.9082C9.08203 56.4453 8.91113 56.9092 8.91113 57.5195C8.91113 58.667 9.86328 59.4482 11.0596 59.4482C11.9629 59.4482 12.4756 59.082 13.1836 58.0566ZM37.8174 46.2158C37.8174 47.2656 38.6719 48.1201 39.7217 48.1201L56.8604 48.1201C57.9102 48.1201 58.7646 47.2656 58.7646 46.2158C58.7646 45.1416 57.9102 44.2871 56.8604 44.2871L39.7217 44.2871C38.6719 44.2871 37.8174 45.1416 37.8174 46.2158Z" fill="black" fill-opacity="0.85"/>
 </g>
</svg>
