<?xml version="1.0" encoding="UTF-8"?>
<!--Generator: Apple Native CoreSVG 232.5-->
<!DOCTYPE svg
PUBLIC "-//W3C//DTD SVG 1.1//EN"
       "http://www.w3.org/Graphics/SVG/1.1/DTD/svg11.dtd">
<svg version="1.1" xmlns="http://www.w3.org/2000/svg" xmlns:xlink="http://www.w3.org/1999/xlink" width="23.23" height="34.9243">
 <g>
  <rect height="34.9243" opacity="0" width="23.23" x="0" y="0"/>
  <path d="M19.043 5.70068L22.3999 5.70068C22.8882 5.70068 23.23 5.33447 23.23 4.90723C23.23 4.46777 22.8882 4.10156 22.3999 4.10156L19.043 4.10156C18.5547 4.10156 18.2129 4.46777 18.2129 4.90723C18.2129 5.33447 18.5547 5.70068 19.043 5.70068ZM19.043 10.1318L22.3999 10.1318C22.8882 10.1318 23.23 9.75342 23.23 9.32617C23.23 8.89893 22.8882 8.52051 22.3999 8.52051L19.043 8.52051C18.5547 8.52051 18.2129 8.89893 18.2129 9.32617C18.2129 9.75342 18.5547 10.1318 19.043 10.1318ZM19.043 14.5508L22.3999 14.5508C22.8882 14.5508 23.23 14.1846 23.23 13.7451C23.23 13.3179 22.8882 12.9517 22.3999 12.9517L19.043 12.9517C18.5547 12.9517 18.2129 13.3179 18.2129 13.7451C18.2129 14.1846 18.5547 14.5508 19.043 14.5508ZM19.043 18.9697L22.3999 18.9697C22.8882 18.9697 23.23 18.6035 23.23 18.1763C23.23 17.7368 22.8882 17.3706 22.3999 17.3706L19.043 17.3706C18.5547 17.3706 18.2129 17.7368 18.2129 18.1763C18.2129 18.6035 18.5547 18.9697 19.043 18.9697Z" fill="#000000" fill-opacity="0.85"/>
  <path d="M11.4502 34.8877C15.9058 34.8877 19.5068 31.2744 19.5068 26.8311C19.5068 24.4873 18.5303 22.4121 16.6382 20.752C16.272 20.4346 16.1987 20.2271 16.1987 19.7144L16.1987 5.13916C16.1987 2.0874 14.27 0 11.4502 0C8.61816 0 6.67725 2.0874 6.67725 5.13916L6.67725 19.7144C6.67725 20.2271 6.604 20.4346 6.23779 20.752C4.3457 22.4121 3.36914 24.4873 3.36914 26.8311C3.36914 31.2744 6.97021 34.8877 11.4502 34.8877ZM11.4502 32.9346C8.08105 32.9346 5.34668 30.188 5.34668 26.8311C5.34668 24.8535 6.26221 23.0591 7.95898 21.9116C8.47168 21.5576 8.66699 21.2036 8.66699 20.5444L8.66699 5.2124C8.66699 3.2959 9.80225 1.97754 11.4502 1.97754C13.0737 1.97754 14.209 3.2959 14.209 5.2124L14.209 20.5444C14.209 21.2036 14.4043 21.5576 14.917 21.9116C16.6138 23.0591 17.5293 24.8535 17.5293 26.8311C17.5293 30.188 14.7949 32.9346 11.4502 32.9346Z" fill="#000000" fill-opacity="0.85"/>
  <path d="M11.438 30.8105C13.6353 30.8105 15.4053 29.0405 15.4053 26.8188C15.4053 25.2808 14.5508 24.0112 13.2812 23.3276C12.7441 23.0469 12.5732 22.8394 12.5732 22.0459L12.5732 13.6475C12.5732 12.9028 12.0728 12.3901 11.438 12.3901C10.8032 12.3901 10.3027 12.9028 10.3027 13.6475L10.3027 22.0459C10.3027 22.8394 10.1318 23.0469 9.59473 23.3276C8.3252 24.0112 7.4707 25.2808 7.4707 26.8188C7.4707 29.0405 9.24072 30.8105 11.438 30.8105Z" fill="#000000" fill-opacity="0.85"/>
 </g>
</svg>
