<?xml version="1.0" encoding="UTF-8"?>
<!--Generator: Apple Native CoreSVG 326-->
<!DOCTYPE svg
PUBLIC "-//W3C//DTD SVG 1.1//EN"
       "http://www.w3.org/Graphics/SVG/1.1/DTD/svg11.dtd">
<svg version="1.1" xmlns="http://www.w3.org/2000/svg" xmlns:xlink="http://www.w3.org/1999/xlink" viewBox="0 0 38.4033 71.4111">
 <g>
  <rect height="71.4111" opacity="0" width="38.4033" x="0" y="0"/>
  <path d="M3.44238 62.915L19.0918 62.915C29.4678 62.915 38.0615 58.3008 38.0615 47.876C38.0615 40.332 32.6172 35.1074 24.8047 34.2529L24.8047 33.8867C30.9082 32.8369 35.1807 27.6123 35.1807 21.5332C35.1807 12.8418 27.9785 8.03223 18.9453 8.03223L3.44238 8.03223C1.36719 8.03223 0 9.39941 0 11.4502L0 59.4727C0 61.4258 1.24512 62.915 3.44238 62.915ZM5.29785 32.3242L5.29785 12.6465L17.7734 12.6465C24.5361 12.6465 29.8584 15.6006 29.8584 22.0703C29.8584 29.3945 23.6328 32.3242 16.3086 32.3242ZM5.29785 58.2764L5.29785 36.9141L17.5537 36.9141C25.6104 36.9141 32.6904 39.6484 32.6904 47.6318C32.6904 55.3467 26.1963 58.2764 18.2861 58.2764ZM7.91016 10.6201L11.5234 10.6201L11.5234 1.75781C11.5234 0.756836 10.7666 0 9.7168 0C8.66699 0 7.91016 0.756836 7.91016 1.75781ZM17.627 10.6201L21.1914 10.6201L21.1914 1.75781C21.1914 0.756836 20.459 0 19.4336 0C18.3838 0 17.627 0.756836 17.627 1.75781ZM7.91016 60.083L7.91016 69.5557C7.91016 70.6055 8.66699 71.3623 9.7168 71.3623C10.7666 71.3623 11.5234 70.6055 11.5234 69.5557L11.5234 60.083ZM17.627 60.083L17.627 69.5557C17.627 70.6055 18.3838 71.3623 19.4336 71.3623C20.459 71.3623 21.1914 70.6055 21.1914 69.5557L21.1914 60.083Z" fill="black" fill-opacity="0.85"/>
 </g>
</svg>
