<?xml version="1.0" encoding="UTF-8"?>
<!--Generator: Apple Native CoreSVG 232.5-->
<!DOCTYPE svg
PUBLIC "-//W3C//DTD SVG 1.1//EN"
       "http://www.w3.org/Graphics/SVG/1.1/DTD/svg11.dtd">
<svg version="1.1" xmlns="http://www.w3.org/2000/svg" xmlns:xlink="http://www.w3.org/1999/xlink" width="29.0527" height="28.7231">
 <g>
  <rect height="28.7231" opacity="0" width="29.0527" x="0" y="0"/>
  <path d="M4.74854 28.7231L23.938 28.7231C27.0996 28.7231 28.6987 27.1362 28.6987 24.0234L28.6987 4.73633C28.6987 1.62354 27.0996 0.0366211 23.938 0.0366211L4.74854 0.0366211C1.59912 0.0366211 0 1.61133 0 4.73633L0 24.0234C0 27.1484 1.59912 28.7231 4.74854 28.7231ZM4.79736 26.5625C3.08838 26.5625 2.16064 25.6592 2.16064 23.9136L2.16064 4.84619C2.16064 3.10059 3.08838 2.19727 4.79736 2.19727L23.9014 2.19727C25.5737 2.19727 26.5381 3.10059 26.5381 4.84619L26.5381 23.9136C26.5381 25.6592 25.5737 26.5625 23.9014 26.5625Z" fill="#000000" fill-opacity="0.85"/>
  <path d="M21.1182 14.0991C21.6431 14.0991 22.0825 13.6719 22.0825 13.147L22.0825 7.73926C22.0825 6.95801 21.6675 6.64062 20.9717 6.64062L15.5884 6.64062C15.0513 6.64062 14.624 7.06787 14.624 7.59277C14.624 8.11768 15.0513 8.55713 15.5884 8.55713L16.5161 8.54492L18.9941 8.42285L15.21 12.0483C14.8193 12.439 14.8071 13.0981 15.1978 13.4888C15.6006 13.8916 16.2476 13.9038 16.6504 13.4766L20.2881 9.68018L20.166 12.2681L20.166 13.147C20.166 13.6719 20.5933 14.0991 21.1182 14.0991ZM13.1226 22.0825C13.6597 22.0825 14.0869 21.6553 14.0869 21.1182C14.0869 20.5933 13.6597 20.166 13.1226 20.166L12.1948 20.1782L9.7168 20.3003L13.501 16.6626C13.8916 16.2842 13.9038 15.625 13.5132 15.2222C13.1104 14.8193 12.4756 14.8071 12.0728 15.2344L8.42285 19.043L8.55713 16.4551L8.55713 15.5762C8.55713 15.0391 8.11768 14.6118 7.59277 14.6118C7.06787 14.6118 6.64062 15.0391 6.64062 15.5762L6.64062 20.9717C6.64062 21.7651 7.05566 22.0825 7.73926 22.0825Z" fill="#000000" fill-opacity="0.85"/>
 </g>
</svg>
