<?xml version="1.0" encoding="UTF-8"?>
<!--Generator: Apple Native CoreSVG 326-->
<!DOCTYPE svg
PUBLIC "-//W3C//DTD SVG 1.1//EN"
       "http://www.w3.org/Graphics/SVG/1.1/DTD/svg11.dtd">
<svg version="1.1" xmlns="http://www.w3.org/2000/svg" xmlns:xlink="http://www.w3.org/1999/xlink" viewBox="0 0 57.7393 57.3975">
 <g>
  <rect height="57.3975" opacity="0" width="57.7393" x="0" y="0"/>
  <path d="M9.49707 57.3975L47.876 57.3975C54.1992 57.3975 57.3975 54.1992 57.3975 47.998L57.3975 9.42383C57.3975 3.19824 54.1992 0 47.876 0L9.49707 0C3.19824 0 0 3.17383 0 9.42383L0 47.998C0 54.248 3.19824 57.3975 9.49707 57.3975ZM9.59473 53.0762C6.17676 53.0762 4.32129 51.2695 4.32129 47.7539L4.32129 9.64355C4.32129 6.15234 6.17676 4.32129 9.59473 4.32129L47.8027 4.32129C51.1475 4.32129 53.0762 6.15234 53.0762 9.64355L53.0762 47.7539C53.0762 51.2695 51.1475 53.0762 47.8027 53.0762Z" fill="black" fill-opacity="0.85"/>
  <path d="M42.2363 28.1738C43.2861 28.1738 44.165 27.3193 44.165 26.2695L44.165 15.4541C44.165 13.8916 43.335 13.2568 41.9434 13.2568L31.1768 13.2568C30.1025 13.2568 29.248 14.1113 29.248 15.1611C29.248 16.2109 30.1025 17.0898 31.1768 17.0898L33.0322 17.0654L37.9883 16.8213L30.4199 24.0723C29.6387 24.8535 29.6143 26.1719 30.3955 26.9531C31.2012 27.7588 32.4951 27.7832 33.3008 26.9287L40.5762 19.3359L40.332 24.5117L40.332 26.2695C40.332 27.3193 41.1865 28.1738 42.2363 28.1738ZM26.2451 44.1406C27.3193 44.1406 28.1738 43.2861 28.1738 42.2119C28.1738 41.1621 27.3193 40.3076 26.2451 40.3076L24.3896 40.332L19.4336 40.5762L27.002 33.3008C27.7832 32.5439 27.8076 31.2256 27.0264 30.4199C26.2207 29.6143 24.9512 29.5898 24.1455 30.4443L16.8457 38.0615L17.1143 32.8857L17.1143 31.1279C17.1143 30.0537 16.2354 29.1992 15.1855 29.1992C14.1357 29.1992 13.2812 30.0537 13.2812 31.1279L13.2812 41.9189C13.2812 43.5059 14.1113 44.1406 15.4785 44.1406Z" fill="black" fill-opacity="0.85"/>
 </g>
</svg>
