<?xml version="1.0" encoding="UTF-8"?>
<!--Generator: Apple Native CoreSVG 232.5-->
<!DOCTYPE svg
PUBLIC "-//W3C//DTD SVG 1.1//EN"
       "http://www.w3.org/Graphics/SVG/1.1/DTD/svg11.dtd">
<svg version="1.1" xmlns="http://www.w3.org/2000/svg" xmlns:xlink="http://www.w3.org/1999/xlink" width="34.436" height="33.5907">
 <g>
  <rect height="33.5907" opacity="0" width="34.436" x="0" y="0"/>
  <path d="M17.0288 31.5964C17.4316 31.5964 17.8345 31.5842 18.2251 31.5475L19.0552 33.1222C19.2261 33.4763 19.5557 33.6472 19.9951 33.5739C20.4102 33.5007 20.6543 33.2321 20.7031 32.8049L20.9717 31.0715C21.7285 30.8639 22.4854 30.5832 23.2056 30.2658L24.4995 31.4133C24.7925 31.6696 25.1709 31.7551 25.5737 31.5475C25.9155 31.3522 26.0742 30.986 25.9644 30.571L25.6226 28.862C26.2451 28.4103 26.8799 27.8976 27.4414 27.3483L29.0283 28.0075C29.4312 28.1662 29.7852 28.0807 30.1025 27.7389C30.3589 27.4216 30.3711 27.0431 30.1636 26.6891L29.2358 25.1999C29.6875 24.5651 30.0781 23.8571 30.4321 23.1369L32.1777 23.2101C32.5806 23.2346 32.9224 23.0392 33.0444 22.612C33.1909 22.2336 33.0566 21.8796 32.7393 21.6232L31.3843 20.5246C31.5796 19.7678 31.7139 18.9865 31.7871 18.1686L33.4229 17.6315C33.8501 17.4972 34.082 17.2043 34.082 16.7892C34.082 16.362 33.8501 16.069 33.4229 15.9347L31.7871 15.4098C31.7139 14.592 31.5796 13.8107 31.3843 13.0417L32.7393 11.9553C33.0322 11.7111 33.1787 11.3693 33.0444 10.9787C32.9224 10.5514 32.5806 10.3561 32.1777 10.3805L30.4321 10.4416C30.0781 9.70916 29.6875 9.02557 29.2358 8.3786L30.1636 6.87713C30.3711 6.54754 30.3589 6.16912 30.1025 5.85174C29.7852 5.49774 29.4312 5.42449 29.0405 5.58319L27.4414 6.21795C26.8799 5.69305 26.2451 5.16815 25.6226 4.71649L25.9644 3.01971C26.062 2.58026 25.9155 2.22625 25.5737 2.04315C25.1709 1.83563 24.8047 1.88446 24.4995 2.16522L23.2056 3.30047C22.4854 2.9953 21.7285 2.72674 20.9717 2.50701L20.7031 0.785823C20.6543 0.358577 20.3979 0.0900221 19.9829 0.0167799C19.5557-0.0564623 19.2261 0.114436 19.0552 0.444026L18.2251 2.03094C17.8345 1.99432 17.4316 1.9699 17.0288 1.9699C16.626 1.9699 16.2354 1.99432 15.8325 2.03094L15.0024 0.444026C14.8315 0.114436 14.502-0.0564623 14.0747 0.0167799C13.6475 0.0900221 13.4277 0.358577 13.3545 0.785823L13.0859 2.50701C12.3291 2.72674 11.5845 2.98309 10.8398 3.30047L9.57031 2.17742C9.25293 1.88446 8.88672 1.83563 8.48389 2.04315C8.14209 2.22625 8.00781 2.58026 8.09326 3.01971L8.43506 4.71649C7.8125 5.16815 7.17773 5.69305 6.61621 6.21795L5.01709 5.58319C4.62646 5.42449 4.27246 5.49774 3.95508 5.85174C3.71094 6.16912 3.67432 6.54754 3.89404 6.87713L4.82178 8.3786C4.38232 9.02557 4.00391 9.70916 3.62549 10.4416L1.89209 10.3805C1.47705 10.3561 1.14746 10.5514 1.01318 10.9787C0.878906 11.3693 1.00098 11.6989 1.31836 11.9553L2.68555 13.0417C2.47803 13.8107 2.34375 14.592 2.29492 15.4098L0.622559 15.9347C0.20752 16.069 0 16.362 0 16.7892C0 17.2165 0.20752 17.4972 0.622559 17.6315L2.29492 18.1686C2.34375 18.9865 2.47803 19.7678 2.68555 20.5246L1.31836 21.6232C1.00098 21.8552 0.878906 22.2214 1.01318 22.612C1.13525 23.0392 1.47705 23.2346 1.89209 23.2101L3.62549 23.1369C3.9917 23.8571 4.38232 24.5651 4.80957 25.1999L3.90625 26.6891C3.69873 27.0431 3.69873 27.4216 3.95508 27.7389C4.27246 28.0807 4.62646 28.1662 5.0293 28.0075L6.61621 27.3483C7.17773 27.8976 7.8125 28.4103 8.43506 28.862L8.09326 30.571C8.02002 30.986 8.14209 31.3522 8.48389 31.5475C8.88672 31.7551 9.26514 31.6696 9.57031 31.4133L10.8398 30.2658C11.5845 30.5832 12.3291 30.8639 13.0859 31.0715L13.3545 32.8049C13.4277 33.2321 13.6475 33.5007 14.0747 33.5739C14.502 33.6472 14.8315 33.4763 15.0024 33.1222L15.8325 31.5475C16.2231 31.5842 16.626 31.5964 17.0288 31.5964ZM17.0288 29.4357C9.98535 29.4357 4.55322 23.8449 4.55322 16.8014C4.55322 9.74578 9.98535 4.13055 17.0288 4.13055C24.0845 4.13055 29.541 9.74578 29.541 16.8014C29.541 23.8449 24.0845 29.4357 17.0288 29.4357ZM14.4897 14.3967L16.1133 13.3957L10.8032 4.27703L9.11865 5.21698ZM20.3979 17.6926L30.9692 17.6926L30.9692 15.8005L20.3979 15.8005ZM16.1743 20.2072L14.5752 19.1818L9.00879 28.3127L10.6689 29.2892ZM17.0166 20.7077C19.1772 20.7077 20.9229 18.9743 20.9229 16.8137C20.9229 14.653 19.1772 12.8952 17.0166 12.8952C14.856 12.8952 13.1104 14.653 13.1104 16.8137C13.1104 18.9743 14.856 20.7077 17.0166 20.7077ZM17.0166 18.6813C15.9546 18.6813 15.1367 17.8879 15.1367 16.8137C15.1367 15.7394 15.9546 14.9216 17.0166 14.9216C18.0786 14.9216 18.9087 15.7394 18.9087 16.8137C18.9087 17.8879 18.0786 18.6813 17.0166 18.6813Z" fill="#000000" fill-opacity="0.85"/>
 </g>
</svg>
