<?xml version="1.0" encoding="UTF-8"?>
<!--Generator: Apple Native CoreSVG 326-->
<!DOCTYPE svg
PUBLIC "-//W3C//DTD SVG 1.1//EN"
       "http://www.w3.org/Graphics/SVG/1.1/DTD/svg11.dtd">
<svg version="1.1" xmlns="http://www.w3.org/2000/svg" xmlns:xlink="http://www.w3.org/1999/xlink" viewBox="0 0 46.8262 69.8486">
 <g>
  <rect height="69.8486" opacity="0" width="46.8262" x="0" y="0"/>
  <path d="M38.4521 11.4014L45.166 11.4014C46.1426 11.4014 46.8262 10.6689 46.8262 9.81445C46.8262 8.93555 46.1426 8.20312 45.166 8.20312L38.4521 8.20312C37.4756 8.20312 36.792 8.93555 36.792 9.81445C36.792 10.6689 37.4756 11.4014 38.4521 11.4014ZM38.4521 20.2637L45.166 20.2637C46.1426 20.2637 46.8262 19.5068 46.8262 18.6523C46.8262 17.7979 46.1426 17.041 45.166 17.041L38.4521 17.041C37.4756 17.041 36.792 17.7979 36.792 18.6523C36.792 19.5068 37.4756 20.2637 38.4521 20.2637ZM38.4521 29.1016L45.166 29.1016C46.1426 29.1016 46.8262 28.3691 46.8262 27.4902C46.8262 26.6357 46.1426 25.9033 45.166 25.9033L38.4521 25.9033C37.4756 25.9033 36.792 26.6357 36.792 27.4902C36.792 28.3691 37.4756 29.1016 38.4521 29.1016ZM38.4521 37.9395L45.166 37.9395C46.1426 37.9395 46.8262 37.207 46.8262 36.3525C46.8262 35.4736 46.1426 34.7412 45.166 34.7412L38.4521 34.7412C37.4756 34.7412 36.792 35.4736 36.792 36.3525C36.792 37.207 37.4756 37.9395 38.4521 37.9395Z" fill="black" fill-opacity="0.85"/>
  <path d="M23.2666 69.7754C32.1777 69.7754 39.3799 62.5488 39.3799 53.6621C39.3799 48.9746 37.4268 44.8242 33.6426 41.5039C32.9102 40.8691 32.7637 40.4541 32.7637 39.4287L32.7637 10.2783C32.7637 4.1748 28.9062 0 23.2666 0C17.6025 0 13.7207 4.1748 13.7207 10.2783L13.7207 39.4287C13.7207 40.4541 13.5742 40.8691 12.8418 41.5039C9.05762 44.8242 7.10449 48.9746 7.10449 53.6621C7.10449 62.5488 14.3066 69.7754 23.2666 69.7754ZM23.2666 65.8691C16.5283 65.8691 11.0596 60.376 11.0596 53.6621C11.0596 49.707 12.8906 46.1182 16.2842 43.8232C17.3096 43.1152 17.7002 42.4072 17.7002 41.0889L17.7002 10.4248C17.7002 6.5918 19.9707 3.95508 23.2666 3.95508C26.5137 3.95508 28.7842 6.5918 28.7842 10.4248L28.7842 41.0889C28.7842 42.4072 29.1748 43.1152 30.2002 43.8232C33.5938 46.1182 35.4248 49.707 35.4248 53.6621C35.4248 60.376 29.9561 65.8691 23.2666 65.8691Z" fill="black" fill-opacity="0.85"/>
  <path d="M23.2422 61.6211C27.6367 61.6211 31.1768 58.0811 31.1768 53.6377C31.1768 50.5615 29.4678 48.0225 26.9287 46.6553C25.8545 46.0938 25.5127 45.6787 25.5127 44.0918L25.5127 27.2949C25.5127 25.8057 24.5117 24.7803 23.2422 24.7803C21.9727 24.7803 20.9717 25.8057 20.9717 27.2949L20.9717 44.0918C20.9717 45.6787 20.6299 46.0938 19.5557 46.6553C17.0166 48.0225 15.3076 50.5615 15.3076 53.6377C15.3076 58.0811 18.8477 61.6211 23.2422 61.6211Z" fill="black" fill-opacity="0.85"/>
 </g>
</svg>
