<?xml version="1.0" encoding="UTF-8"?>
<!--Generator: Apple Native CoreSVG 232.5-->
<!DOCTYPE svg
PUBLIC "-//W3C//DTD SVG 1.1//EN"
       "http://www.w3.org/Graphics/SVG/1.1/DTD/svg11.dtd">
<svg version="1.1" xmlns="http://www.w3.org/2000/svg" xmlns:xlink="http://www.w3.org/1999/xlink" width="19.0796" height="35.9253">
 <g>
  <rect height="35.9253" opacity="0" width="19.0796" x="0" y="0"/>
  <path d="M1.64795 31.9214L9.36279 31.9214C15.1855 31.9214 18.7256 29.0894 18.7256 24.3774C18.7256 20.52 16.0278 17.9321 12.1704 17.4927L12.1704 17.3706C15.1611 16.8213 17.2974 14.209 17.2974 11.1084C17.2974 7.03125 14.0625 4.30908 9.28955 4.30908L1.64795 4.30908C0.646973 4.30908 0 4.94385 0 5.96924L0 30.2734C0 31.2866 0.646973 31.9214 1.64795 31.9214ZM2.53906 16.5771L2.53906 6.55518L8.74023 6.55518C12.4634 6.55518 14.7461 8.3252 14.7461 11.3525C14.7461 14.6606 12.2437 16.5771 8.03223 16.5771ZM2.53906 29.6753L2.53906 18.8232L8.63037 18.8232C13.4399 18.8232 16.1499 20.752 16.1499 24.2798C16.1499 27.7466 13.5376 29.6753 8.99658 29.6753ZM5.67627 5.78613L5.67627 1.41602C5.67627 0.927734 5.27344 0.524902 4.77295 0.524902C4.28467 0.524902 3.88184 0.927734 3.88184 1.41602L3.88184 5.78613ZM10.4248 5.78613L10.4248 1.41602C10.4248 0.927734 10.022 0.524902 9.53369 0.524902C9.0332 0.524902 8.63037 0.927734 8.63037 1.41602L8.63037 5.78613ZM5.67627 30.4688L3.88184 30.4688L3.88184 35.022C3.88184 35.5103 4.28467 35.9253 4.77295 35.9253C5.27344 35.9253 5.67627 35.5103 5.67627 35.022ZM10.4248 30.4688L8.63037 30.4688L8.63037 35.022C8.63037 35.5103 9.0332 35.9253 9.53369 35.9253C10.022 35.9253 10.4248 35.5103 10.4248 35.022Z" fill="#000000" fill-opacity="0.85"/>
 </g>
</svg>
