<?xml version="1.0" encoding="UTF-8"?>
<!--Generator: Apple Native CoreSVG 232.5-->
<!DOCTYPE svg
PUBLIC "-//W3C//DTD SVG 1.1//EN"
       "http://www.w3.org/Graphics/SVG/1.1/DTD/svg11.dtd">
<svg version="1.1" xmlns="http://www.w3.org/2000/svg" xmlns:xlink="http://www.w3.org/1999/xlink" width="32.1533" height="31.8237">
 <g>
  <rect height="31.8237" opacity="0" width="32.1533" x="0" y="0"/>
  <path d="M15.8936 31.7993C24.5972 31.7993 31.7993 24.5972 31.7993 15.9058C31.7993 7.20215 24.585 0 15.8813 0C7.18994 0 0 7.20215 0 15.9058C0 24.5972 7.20215 31.7993 15.8936 31.7993ZM15.8936 29.5288C8.34961 29.5288 2.28271 23.4497 2.28271 15.9058C2.28271 8.34961 8.3374 2.28271 15.8813 2.28271C23.4375 2.28271 29.5166 8.34961 29.5166 15.9058C29.5166 23.4497 23.4497 29.5288 15.8936 29.5288Z" fill="#000000" fill-opacity="0.85"/>
  <path d="M10.8032 15.9058C10.8032 19.104 12.5122 21.2036 15.1733 21.5332L15.1733 22.7417C15.1733 23.1445 15.4663 23.4375 15.8691 23.4375C16.272 23.4375 16.5771 23.1445 16.5771 22.7417L16.5771 21.5454C18.5303 21.3379 19.9463 20.2148 20.4102 18.7866C20.4468 18.6279 20.4956 18.457 20.4956 18.2861C20.4956 17.7979 20.1416 17.4683 19.6655 17.4683C19.2749 17.4683 19.0186 17.7002 18.8599 18.0908C18.4937 19.0552 17.7002 19.7388 16.5771 19.9219L16.5771 11.8896C17.688 12.0728 18.4814 12.7686 18.8354 13.7085C19.0186 14.1479 19.2871 14.3433 19.6777 14.3433C20.1538 14.3433 20.4712 14.0259 20.4712 13.5376C20.4712 13.3667 20.4346 13.208 20.3979 13.0493C19.9341 11.6211 18.5059 10.4858 16.5771 10.2783L16.5771 9.08203C16.5771 8.6792 16.272 8.38623 15.8691 8.38623C15.4663 8.38623 15.1733 8.6792 15.1733 9.08203L15.1733 10.2905C12.5122 10.6201 10.8032 12.7319 10.8032 15.9058ZM12.5366 15.9058C12.5366 13.7085 13.5498 12.2681 15.1733 11.9141L15.1733 19.8975C13.5498 19.5679 12.5366 18.1396 12.5366 15.9058Z" fill="#000000" fill-opacity="0.85"/>
 </g>
</svg>
