<?xml version="1.0" encoding="UTF-8"?>
<svg width="49px" height="71px" viewBox="0 0 49 71" version="1.1" xmlns="http://www.w3.org/2000/svg" xmlns:xlink="http://www.w3.org/1999/xlink">
    <title>Shape</title>
    <g id="Page-1" stroke="none" stroke-width="1" fill="none" fill-rule="evenodd">
        <g id="Shape" fill="#000000">
            <path d="M42.8198198,0 C46.2330391,0 49,2.77795854 49,6.20474407 L49,64.7952559 C49,68.2220416 46.2330391,71 42.8198198,71 L6.18018017,71 C2.76696091,71 0,68.2220416 0,64.7952559 L0,6.20474407 C0,2.77795854 2.76696091,0 6.18018017,0 L42.8198198,0 Z M26.3557636,56.1898822 L8.23823638,56.1898822 C6.52988911,56.1898822 5.145,57.5777063 5.145,59.2896743 L5.145,62.8322938 C5.145,64.5442618 6.52988911,65.9320859 8.23823638,65.9320859 L26.3557636,65.9320859 C28.0641109,65.9320859 29.449,64.5442618 29.449,62.8322938 L29.449,59.2896743 C29.449,57.5777063 28.0641109,56.1898822 26.3557636,56.1898822 Z M40.866,56.1898822 L37.338,56.1898822 C35.633097,56.1898822 34.251,57.5777063 34.251,59.2896743 L34.251,62.8322938 C34.251,64.5442618 35.633097,65.9320859 37.338,65.9320859 L40.866,65.9320859 C42.570903,65.9320859 43.953,64.5442618 43.953,62.8322938 L43.953,59.2896743 C43.953,57.5777063 42.570903,56.1898822 40.866,56.1898822 Z M11.76,43.1510742 L8.232,43.1510742 C6.52709699,43.1510742 5.145,44.5388984 5.145,46.2508663 L5.145,49.7934858 C5.145,51.5054537 6.52709699,52.8932779 8.232,52.8932779 L11.76,52.8932779 C13.464903,52.8932779 14.847,51.5054537 14.847,49.7934858 L14.847,46.2508663 C14.847,44.5388984 13.464903,43.1510742 11.76,43.1510742 Z M26.313,43.1510742 L22.785,43.1510742 C21.080097,43.1510742 19.698,44.5388984 19.698,46.2508663 L19.698,49.7934858 C19.698,51.5054537 21.080097,52.8932779 22.785,52.8932779 L26.313,52.8932779 C28.017903,52.8932779 29.4,51.5054537 29.4,49.7934858 L29.4,46.2508663 C29.4,44.5388984 28.017903,43.1510742 26.313,43.1510742 Z M40.866,43.1510742 L37.338,43.1510742 C35.633097,43.1510742 34.251,44.5388984 34.251,46.2508663 L34.251,49.7934858 C34.251,51.5054537 35.633097,52.8932779 37.338,52.8932779 L40.866,52.8932779 C42.570903,52.8932779 43.953,51.5054537 43.953,49.7934858 L43.953,46.2508663 C43.953,44.5388984 42.570903,43.1510742 40.866,43.1510742 Z M11.76,30.2598753 L8.232,30.2598753 C6.52709699,30.2598753 5.145,31.6476995 5.145,33.3596674 L5.145,36.9022869 C5.145,38.6142548 6.52709699,40.002079 8.232,40.002079 L11.76,40.002079 C13.464903,40.002079 14.847,38.6142548 14.847,36.9022869 L14.847,33.3596674 C14.847,31.6476995 13.464903,30.2598753 11.76,30.2598753 Z M26.313,30.1122661 L22.785,30.1122661 C21.080097,30.1122661 19.698,31.5000903 19.698,33.2120582 L19.698,36.7546778 C19.698,38.4666456 21.080097,39.8544699 22.785,39.8544699 L26.313,39.8544699 C28.017903,39.8544699 29.4,38.4666456 29.4,36.7546778 L29.4,33.2120582 C29.4,31.5000903 28.017903,30.1122661 26.313,30.1122661 Z M40.866,30.1122661 L37.338,30.1122661 C35.633097,30.1122661 34.251,31.5000903 34.251,33.2120582 L34.251,36.7546778 C34.251,38.4666456 35.633097,39.8544699 37.338,39.8544699 L40.866,39.8544699 C42.570903,39.8544699 43.953,38.4666456 43.953,36.7546778 L43.953,33.2120582 C43.953,31.5000903 42.570903,30.1122661 40.866,30.1122661 Z M41.748,4.03465003 L7.35,4.03465003 C5.64509699,4.03465003 4.263,5.42247424 4.263,7.13444213 L4.263,21.3049203 C4.263,23.0168882 5.64509699,24.4047124 7.35,24.4047124 L41.748,24.4047124 C43.452903,24.4047124 44.835,23.0168882 44.835,21.3049203 L44.835,7.13444213 C44.835,5.42247424 43.452903,4.03465003 41.748,4.03465003 Z" fill-rule="nonzero"></path>
        </g>
    </g>
</svg>