<?xml version="1.0" encoding="UTF-8"?>
<!--Generator: Apple Native CoreSVG 232.5-->
<!DOCTYPE svg
PUBLIC "-//W3C//DTD SVG 1.1//EN"
       "http://www.w3.org/Graphics/SVG/1.1/DTD/svg11.dtd">
<svg version="1.1" xmlns="http://www.w3.org/2000/svg" xmlns:xlink="http://www.w3.org/1999/xlink" width="31.6284" height="28.7231">
 <g>
  <rect height="28.7231" opacity="0" width="31.6284" x="0" y="0"/>
  <path d="M4.74854 28.7231L26.5137 28.7231C29.6753 28.7231 31.2744 27.1362 31.2744 24.0234L31.2744 4.73633C31.2744 1.62354 29.6753 0.0366211 26.5137 0.0366211L4.74854 0.0366211C1.59912 0.0366211 0 1.61133 0 4.73633L0 24.0234C0 27.1484 1.59912 28.7231 4.74854 28.7231ZM4.57764 26.5625C3.01514 26.5625 2.16064 25.7324 2.16064 24.1211L2.16064 9.55811C2.16064 7.93457 3.01514 7.1167 4.57764 7.1167L26.6724 7.1167C28.2227 7.1167 29.1016 7.93457 29.1016 9.55811L29.1016 24.1211C29.1016 25.7324 28.2227 26.5625 26.6724 26.5625ZM12.5244 12.7319L13.4521 12.7319C13.9771 12.7319 14.1235 12.5854 14.1235 12.0728L14.1235 11.1572C14.1235 10.6445 13.9771 10.5103 13.4521 10.5103L12.5244 10.5103C12.0117 10.5103 11.8652 10.6445 11.8652 11.1572L11.8652 12.0728C11.8652 12.5854 12.0117 12.7319 12.5244 12.7319ZM17.8345 12.7319L18.7622 12.7319C19.2749 12.7319 19.4214 12.5854 19.4214 12.0728L19.4214 11.1572C19.4214 10.6445 19.2749 10.5103 18.7622 10.5103L17.8345 10.5103C17.3096 10.5103 17.1631 10.6445 17.1631 11.1572L17.1631 12.0728C17.1631 12.5854 17.3096 12.7319 17.8345 12.7319ZM23.1323 12.7319L24.0601 12.7319C24.5728 12.7319 24.7314 12.5854 24.7314 12.0728L24.7314 11.1572C24.7314 10.6445 24.5728 10.5103 24.0601 10.5103L23.1323 10.5103C22.6196 10.5103 22.4609 10.6445 22.4609 11.1572L22.4609 12.0728C22.4609 12.5854 22.6196 12.7319 23.1323 12.7319ZM7.22656 17.9443L8.1543 17.9443C8.66699 17.9443 8.82568 17.8101 8.82568 17.2974L8.82568 16.3696C8.82568 15.8691 8.66699 15.7227 8.1543 15.7227L7.22656 15.7227C6.71387 15.7227 6.55518 15.8691 6.55518 16.3696L6.55518 17.2974C6.55518 17.8101 6.71387 17.9443 7.22656 17.9443ZM12.5244 17.9443L13.4521 17.9443C13.9771 17.9443 14.1235 17.8101 14.1235 17.2974L14.1235 16.3696C14.1235 15.8691 13.9771 15.7227 13.4521 15.7227L12.5244 15.7227C12.0117 15.7227 11.8652 15.8691 11.8652 16.3696L11.8652 17.2974C11.8652 17.8101 12.0117 17.9443 12.5244 17.9443ZM17.8345 17.9443L18.7622 17.9443C19.2749 17.9443 19.4214 17.8101 19.4214 17.2974L19.4214 16.3696C19.4214 15.8691 19.2749 15.7227 18.7622 15.7227L17.8345 15.7227C17.3096 15.7227 17.1631 15.8691 17.1631 16.3696L17.1631 17.2974C17.1631 17.8101 17.3096 17.9443 17.8345 17.9443ZM23.1323 17.9443L24.0601 17.9443C24.5728 17.9443 24.7314 17.8101 24.7314 17.2974L24.7314 16.3696C24.7314 15.8691 24.5728 15.7227 24.0601 15.7227L23.1323 15.7227C22.6196 15.7227 22.4609 15.8691 22.4609 16.3696L22.4609 17.2974C22.4609 17.8101 22.6196 17.9443 23.1323 17.9443ZM7.22656 23.1689L8.1543 23.1689C8.66699 23.1689 8.82568 23.0347 8.82568 22.522L8.82568 21.5942C8.82568 21.0815 8.66699 20.9473 8.1543 20.9473L7.22656 20.9473C6.71387 20.9473 6.55518 21.0815 6.55518 21.5942L6.55518 22.522C6.55518 23.0347 6.71387 23.1689 7.22656 23.1689ZM12.5244 23.1689L13.4521 23.1689C13.9771 23.1689 14.1235 23.0347 14.1235 22.522L14.1235 21.5942C14.1235 21.0815 13.9771 20.9473 13.4521 20.9473L12.5244 20.9473C12.0117 20.9473 11.8652 21.0815 11.8652 21.5942L11.8652 22.522C11.8652 23.0347 12.0117 23.1689 12.5244 23.1689ZM17.8345 23.1689L18.7622 23.1689C19.2749 23.1689 19.4214 23.0347 19.4214 22.522L19.4214 21.5942C19.4214 21.0815 19.2749 20.9473 18.7622 20.9473L17.8345 20.9473C17.3096 20.9473 17.1631 21.0815 17.1631 21.5942L17.1631 22.522C17.1631 23.0347 17.3096 23.1689 17.8345 23.1689Z" fill="#000000" fill-opacity="0.85"/>
 </g>
</svg>
