<?xml version="1.0" encoding="UTF-8"?>
<!--Generator: Apple Native CoreSVG 326-->
<!DOCTYPE svg
PUBLIC "-//W3C//DTD SVG 1.1//EN"
       "http://www.w3.org/Graphics/SVG/1.1/DTD/svg11.dtd">
<svg version="1.1" xmlns="http://www.w3.org/2000/svg" xmlns:xlink="http://www.w3.org/1999/xlink" viewBox="0 0 62.5244 69.812">
 <g>
  <rect height="69.812" opacity="0" width="62.5244" x="0" y="0"/>
  <path d="M3.36914 54.7668L27.7344 68.8782C29.8828 70.1233 32.3242 70.1233 34.4482 68.8782L58.8379 54.7668C60.9375 53.5461 62.1826 51.4221 62.1826 48.9563L62.1826 20.8069C62.1826 18.3655 60.9375 16.217 58.8379 14.9963L34.4482 0.933838C32.3242-0.311279 29.8828-0.311279 27.7344 0.933838L3.36914 14.9963C1.24512 16.217 0 18.3655 0 20.8069L0 48.9563C0 51.4221 1.24512 53.5461 3.36914 54.7668ZM28.9307 64.5325C28.7109 64.4348 28.6377 64.386 28.3936 64.2395L6.0791 51.3245C4.98047 50.6897 4.32129 49.5667 4.32129 48.2971L4.32129 23.2239L28.9307 37.0422ZM31.1035 33.2336L5.63965 18.8782C5.81055 18.6584 5.93262 18.5364 6.25 18.3411L29.3457 4.98657C30.4443 4.35181 31.7383 4.35181 32.8369 4.98657L55.9326 18.3411C56.25 18.5364 56.3965 18.6584 56.543 18.8782ZM33.252 64.5325L33.252 37.0422L57.8613 23.2239L57.8613 48.2971C57.8613 49.5667 57.2266 50.6897 56.1035 51.3245L33.9355 64.1663C33.6182 64.3372 33.5449 64.386 33.252 64.5325Z" fill="black" fill-opacity="0.85"/>
 </g>
</svg>
