<?xml version="1.0" encoding="UTF-8"?>
<!--Generator: Apple Native CoreSVG 326-->
<!DOCTYPE svg
PUBLIC "-//W3C//DTD SVG 1.1//EN"
       "http://www.w3.org/Graphics/SVG/1.1/DTD/svg11.dtd">
<svg version="1.1" xmlns="http://www.w3.org/2000/svg" xmlns:xlink="http://www.w3.org/1999/xlink" viewBox="0 0 67.749 58.5205">
 <g>
  <rect height="58.5205" opacity="0" width="67.749" x="0" y="0"/>
  <path d="M65.5762 10.3271L61.2549 28.54C60.8643 29.9072 59.6191 30.4688 58.6426 29.5166L53.1494 23.999L39.6484 37.5732C38.3301 38.916 37.0361 39.5508 35.6445 39.5508C34.2529 39.5508 32.9102 38.916 31.6162 37.5732L19.6289 25.4639C19.2383 25.0732 18.8721 24.8779 18.5059 24.8779C18.1396 24.8779 17.7734 25.0732 17.3828 25.4639L4.32129 38.6199L4.32129 32.1584L14.502 21.9238C15.8691 20.5566 17.1143 19.9707 18.5059 19.9707C19.8975 19.9707 21.2158 20.5811 22.5098 21.9238L34.5215 34.0576C34.9121 34.4482 35.2783 34.6191 35.6445 34.6191C36.0107 34.6191 36.377 34.4238 36.7676 34.0576L49.9023 20.752L44.4336 15.2588C43.457 14.3066 44.0186 13.0615 45.3857 12.6953L63.5986 8.34961C64.8438 8.03223 65.8936 9.0332 65.5762 10.3271Z" fill="black" fill-opacity="0.85"/>
  <path d="M0 56.25C0 57.6172 0.90332 58.5205 2.27051 58.5205L65.2344 58.5205C66.4062 58.5205 67.4072 57.5928 67.4072 56.3721C67.4072 55.1514 66.4062 54.2236 65.2344 54.2236L5.12695 54.2236C4.5166 54.2236 4.32129 54.0283 4.32129 53.418L4.32129 2.46582C4.32129 1.31836 3.39355 0.292969 2.17285 0.292969C0.952148 0.292969 0 1.31836 0 2.46582Z" fill="black" fill-opacity="0.85"/>
 </g>
</svg>
