<?xml version="1.0" encoding="UTF-8"?>
<!--Generator: Apple Native CoreSVG 326-->
<!DOCTYPE svg
PUBLIC "-//W3C//DTD SVG 1.1//EN"
       "http://www.w3.org/Graphics/SVG/1.1/DTD/svg11.dtd">
<svg version="1.1" xmlns="http://www.w3.org/2000/svg" xmlns:xlink="http://www.w3.org/1999/xlink" viewBox="0 0 57.7393 57.3975">
 <g>
  <rect height="57.3975" opacity="0" width="57.7393" x="0" y="0"/>
  <path d="M9.49707 57.3975L47.876 57.3975C54.1992 57.3975 57.3975 54.1992 57.3975 47.998L57.3975 9.42383C57.3975 3.19824 54.1992 0 47.876 0L9.49707 0C3.19824 0 0 3.17383 0 9.42383L0 47.998C0 54.248 3.19824 57.3975 9.49707 57.3975ZM9.59473 53.0762C6.17676 53.0762 4.32129 51.2695 4.32129 47.7539L4.32129 9.64355C4.32129 6.15234 6.17676 4.32129 9.59473 4.32129L47.8027 4.32129C51.1475 4.32129 53.0762 6.15234 53.0762 9.64355L53.0762 47.7539C53.0762 51.2695 51.1475 53.0762 47.8027 53.0762Z" fill="black" fill-opacity="0.85"/>
  <path d="M21.2158 42.041C27.3682 42.041 29.126 34.8145 29.126 28.6865C29.126 22.5586 27.3682 15.332 21.2158 15.332C15.0635 15.332 13.3301 22.5586 13.3301 28.6865C13.3301 34.8145 15.0635 42.041 21.2158 42.041ZM21.2158 38.7451C18.2617 38.7451 17.334 33.9111 17.334 28.6865C17.334 23.4375 18.2617 18.6279 21.2158 18.6279C24.1699 18.6279 25.0977 23.4375 25.0977 28.6865C25.0977 33.9111 24.1699 38.7451 21.2158 38.7451ZM39.6729 41.748C40.7471 41.748 41.6504 40.8447 41.6504 39.7217L41.6504 17.7979C41.6504 16.4062 40.7715 15.5762 39.3555 15.5762C38.208 15.5762 37.2559 16.1865 36.5967 16.7236L32.9102 19.6289C32.4219 20.0195 32.0557 20.5322 32.0557 21.2402C32.0557 22.1191 32.6416 22.7295 33.4961 22.7295C33.9355 22.7295 34.2041 22.583 34.4971 22.3633L37.6221 19.8486L37.6221 39.7217C37.6221 40.8447 38.5498 41.748 39.6729 41.748Z" fill="black" fill-opacity="0.85"/>
 </g>
</svg>
