<?xml version="1.0" encoding="UTF-8"?>
<!--Generator: Apple Native CoreSVG 232.5-->
<!DOCTYPE svg
PUBLIC "-//W3C//DTD SVG 1.1//EN"
       "http://www.w3.org/Graphics/SVG/1.1/DTD/svg11.dtd">
<svg version="1.1" xmlns="http://www.w3.org/2000/svg" xmlns:xlink="http://www.w3.org/1999/xlink" width="29.7363" height="29.7241">
 <g>
  <rect height="29.7241" opacity="0" width="29.7363" x="0" y="0"/>
  <path d="M0 7.88574C0 8.41064 0.427246 8.83789 0.952148 8.83789L4.27246 8.83789L4.27246 12.1582C4.27246 12.6953 4.71191 13.1104 5.23682 13.1104C5.77393 13.1104 6.18896 12.6831 6.18896 12.1582L6.18896 8.83789L9.52148 8.83789C10.0586 8.83789 10.4858 8.41064 10.4858 7.88574C10.4858 7.34863 10.0586 6.92139 9.52148 6.92139L6.18896 6.92139L6.18896 3.58887C6.18896 3.06396 5.76172 2.63672 5.23682 2.63672C4.69971 2.63672 4.27246 3.06396 4.27246 3.58887L4.27246 6.92139L0.952148 6.92139C0.427246 6.92139 0 7.34863 0 7.88574ZM15.6006 15.4175L24.6826 1.7334C24.8779 1.46484 24.9512 1.23291 24.9512 0.952148C24.9512 0.415039 24.4751 0 23.9258 0C23.4375 0 23.1934 0.146484 22.8027 0.708008L13.7695 14.3677L4.72412 27.9541C4.54102 28.2227 4.45557 28.4546 4.45557 28.7598C4.45557 29.3335 4.93164 29.7241 5.52979 29.7241C5.98145 29.7241 6.23779 29.541 6.5918 29.0283ZM18.9087 23.1079C18.9087 23.6328 19.3359 24.0601 19.8608 24.0601L28.4302 24.0601C28.9551 24.0601 29.3823 23.6328 29.3823 23.1079C29.3823 22.5708 28.9551 22.1436 28.4302 22.1436L19.8608 22.1436C19.3359 22.1436 18.9087 22.5708 18.9087 23.1079Z" fill="#000000" fill-opacity="0.85"/>
 </g>
</svg>
