<?xml version="1.0" encoding="UTF-8"?>
<!--Generator: Apple Native CoreSVG 232.5-->
<!DOCTYPE svg
PUBLIC "-//W3C//DTD SVG 1.1//EN"
       "http://www.w3.org/Graphics/SVG/1.1/DTD/svg11.dtd">
<svg version="1.1" xmlns="http://www.w3.org/2000/svg" xmlns:xlink="http://www.w3.org/1999/xlink" width="32.1289" height="27.478">
 <g>
  <rect height="27.478" opacity="0" width="32.1289" x="0" y="0"/>
  <path d="M0 15.8936C0 20.0195 1.62354 23.8159 4.24805 26.6479C4.84619 27.3071 5.85938 27.4658 6.65283 26.6724L9.13086 24.1943C9.55811 23.7915 9.5459 23.0835 9.13086 22.6685C8.71582 22.2534 8.02002 22.2412 7.60498 22.6685L5.54199 24.7314C3.51562 22.3511 2.28271 19.2871 2.28271 15.8936C2.28271 8.3374 8.3374 2.27051 15.8813 2.27051C23.4375 2.27051 29.48 8.3374 29.48 15.8936C29.48 19.2871 28.2593 22.3511 26.2329 24.7314L24.1699 22.6685C23.7549 22.2412 23.0591 22.2534 22.6318 22.6685C22.2168 23.0835 22.2168 23.7915 22.6318 24.1943L25.1221 26.6724C25.9155 27.4658 26.9287 27.3071 27.5146 26.6479C30.1514 23.8159 31.7749 20.0195 31.7749 15.8936C31.7749 7.18994 24.585 0 15.8813 0C7.18994 0 0 7.18994 0 15.8936ZM5.24902 14.8071L1.14746 14.8071L1.14746 16.98L5.24902 16.98C5.83496 16.98 6.32324 16.4795 6.32324 15.8936C6.32324 15.2954 5.83496 14.8071 5.24902 14.8071ZM14.8071 5.22461C14.8071 5.82275 15.2954 6.31104 15.8813 6.31104C16.4795 6.31104 16.9678 5.82275 16.9678 5.22461L16.9678 1.12305L14.8071 1.12305ZM22.6685 7.58057C22.2534 7.99561 22.2534 8.70361 22.6685 9.11865C23.0957 9.53369 23.7915 9.53369 24.2065 9.11865L27.0996 6.21338L25.5737 4.6875ZM26.5625 14.8071C25.9766 14.8071 25.4883 15.2954 25.4883 15.8936C25.4883 16.4795 25.9766 16.98 26.5625 16.98L30.6641 16.98L30.6641 14.8071Z" fill="#000000" fill-opacity="0.85"/>
  <path d="M17.8589 17.7856C18.811 16.8213 18.811 15.4175 17.8589 14.4653C17.688 14.2822 17.3218 14.0259 17.1021 13.855L9.41162 8.42285C9.08203 8.19092 8.75244 8.25195 8.53271 8.45947C8.3252 8.6792 8.26416 9.00879 8.49609 9.32617L13.9404 17.0288C14.0991 17.2485 14.3677 17.6147 14.5264 17.7856C15.4907 18.7378 16.8945 18.7378 17.8589 17.7856Z" fill="#000000" fill-opacity="0.85"/>
 </g>
</svg>
