<?xml version="1.0" encoding="UTF-8"?>
<!--Generator: Apple Native CoreSVG 232.5-->
<!DOCTYPE svg
PUBLIC "-//W3C//DTD SVG 1.1//EN"
       "http://www.w3.org/Graphics/SVG/1.1/DTD/svg11.dtd">
<svg version="1.1" xmlns="http://www.w3.org/2000/svg" xmlns:xlink="http://www.w3.org/1999/xlink" width="31.1575" height="32.8491">
 <g>
  <rect height="32.8491" opacity="0" width="31.1575" x="0" y="0"/>
  <path d="M0.228432 27.9053C-0.565025 31.0547 0.728921 32.8369 3.79289 32.8369L27.0107 32.8369C30.0746 32.8369 31.3808 31.0547 30.5873 27.9053L27.0595 13.8672C26.498 11.5967 24.911 10.3271 22.6772 10.3271L8.12638 10.3271C5.89249 10.3271 4.31779 11.5967 3.74406 13.8672ZM2.32804 28.0151L5.77042 14.563C6.13664 13.1714 6.95451 12.4878 8.29728 12.4878L22.5185 12.4878C23.8612 12.4878 24.6791 13.1714 25.0331 14.563L28.4877 28.0151C28.9394 29.7729 28.3046 30.6763 26.7787 30.6763L4.03703 30.6763C2.49894 30.6763 1.87638 29.7729 2.32804 28.0151ZM14.3276 11.8286L16.4882 11.8286L16.4882 7.70264L14.3276 7.70264ZM15.4018 8.77686C17.8066 8.77686 19.8085 6.79932 19.8085 4.40674C19.8085 1.98975 17.7944 0 15.4018 0C13.0092 0 11.0072 2.00195 11.0072 4.40674C11.0072 6.79932 13.0092 8.77686 15.4018 8.77686ZM15.4018 6.88477C14.0468 6.88477 12.9115 5.76172 12.9115 4.40674C12.9115 3.03955 14.0346 1.89209 15.4018 1.89209C16.769 1.89209 17.9042 3.03955 17.9042 4.40674C17.9042 5.74951 16.769 6.88477 15.4018 6.88477Z" fill="#000000" fill-opacity="0.85"/>
 </g>
</svg>
