<?xml version="1.0" encoding="UTF-8"?>
<!--Generator: Apple Native CoreSVG 326-->
<!DOCTYPE svg
PUBLIC "-//W3C//DTD SVG 1.1//EN"
       "http://www.w3.org/Graphics/SVG/1.1/DTD/svg11.dtd">
<svg version="1.1" xmlns="http://www.w3.org/2000/svg" xmlns:xlink="http://www.w3.org/1999/xlink" viewBox="0 0 63.9404 63.6475">
 <g>
  <rect height="63.6475" opacity="0" width="63.9404" x="0" y="0"/>
  <path d="M31.7871 63.5986C49.3408 63.5986 63.5986 49.3652 63.5986 31.8115C63.5986 14.2578 49.3408 0 31.7871 0C14.2334 0 0 14.2578 0 31.8115C0 49.3652 14.2334 63.5986 31.7871 63.5986ZM31.7871 59.0576C16.7236 59.0576 4.54102 46.875 4.54102 31.8115C4.54102 16.748 16.7236 4.56543 31.7871 4.56543C46.8506 4.56543 59.0332 16.748 59.0332 31.8115C59.0332 46.875 46.8506 59.0576 31.7871 59.0576Z" fill="black" fill-opacity="0.85"/>
  <path d="M14.8926 35.0098L31.7627 35.0098C32.8369 35.0098 33.667 34.1797 33.667 33.1055L33.667 11.3281C33.667 10.2783 32.8369 9.44824 31.7627 9.44824C30.7373 9.44824 29.8828 10.2783 29.8828 11.3281L29.8828 31.2256L14.8926 31.2256C13.8184 31.2256 13.0127 32.0557 13.0127 33.1055C13.0127 34.1797 13.8184 35.0098 14.8926 35.0098Z" fill="black" fill-opacity="0.85"/>
 </g>
</svg>
