<?xml version="1.0" encoding="UTF-8"?>
<!--Generator: Apple Native CoreSVG 232.5-->
<!DOCTYPE svg
PUBLIC "-//W3C//DTD SVG 1.1//EN"
       "http://www.w3.org/Graphics/SVG/1.1/DTD/svg11.dtd">
<svg version="1.1" xmlns="http://www.w3.org/2000/svg" xmlns:xlink="http://www.w3.org/1999/xlink" width="32.605" height="27.356">
 <g>
  <rect height="27.356" opacity="0" width="32.605" x="0" y="0"/>
  <path d="M5.5542 27.356C6.78711 27.356 7.43408 26.4893 7.77588 25.3784L14.8193 2.39258L30.9814 2.39258C31.7383 2.39258 32.251 1.9165 32.251 1.19629C32.251 0.488281 31.7383 0.0244141 30.9814 0.0244141L14.7827 0.0244141C13.4399 0.0244141 12.8296 0.524902 12.4634 1.67236L5.71289 24.1821L5.48096 24.1821L2.45361 13.5986C2.24609 12.8662 1.85547 12.5244 1.2207 12.5244C0.524902 12.5244 0 13.0249 0 13.6841C0 13.9404 0.0610352 14.1846 0.134277 14.4043L3.49121 25.5249C3.8208 26.5991 4.41895 27.356 5.5542 27.356ZM17.8345 24.3164C18.3228 24.3164 18.5791 24.1455 18.9575 23.6206L22.7417 18.1641L22.8149 18.1641L26.5747 23.6206C26.9531 24.1455 27.2095 24.3164 27.6978 24.3164C28.3691 24.3164 28.8574 23.8647 28.8574 23.23C28.8574 22.9248 28.7842 22.7051 28.5889 22.4365L24.2798 16.4429L28.6255 10.4248C28.833 10.144 28.9062 9.91211 28.9062 9.63135C28.9062 9.04541 28.4302 8.59375 27.7832 8.59375C27.3071 8.59375 27.0264 8.76465 26.6846 9.25293L23.0103 14.7217L22.937 14.7217L19.1895 9.24072C18.8477 8.76465 18.5669 8.59375 18.0542 8.59375C17.4194 8.59375 16.8945 9.08203 16.8945 9.70459C16.8945 10.022 16.98 10.2417 17.2119 10.5469L21.3623 16.3818L17.0044 22.522C16.7969 22.7905 16.7358 22.9858 16.7358 23.291C16.7358 23.8647 17.2119 24.3164 17.8345 24.3164Z" fill="#000000" fill-opacity="0.85"/>
 </g>
</svg>
