<?xml version="1.0" encoding="UTF-8"?>
<!--Generator: Apple Native CoreSVG 326-->
<!DOCTYPE svg
PUBLIC "-//W3C//DTD SVG 1.1//EN"
       "http://www.w3.org/Graphics/SVG/1.1/DTD/svg11.dtd">
<svg version="1.1" xmlns="http://www.w3.org/2000/svg" xmlns:xlink="http://www.w3.org/1999/xlink" viewBox="0 0 73.8281 53.0029">
 <g>
  <rect height="53.0029" opacity="0" width="73.8281" x="0" y="0"/>
  <path d="M0 39.3311C0 46.9971 5.98145 53.0029 14.2578 53.0029L59.2529 53.0029C67.5049 53.0029 73.4863 46.9971 73.4863 39.3311C73.4863 37.0605 72.8027 34.9854 72.0215 33.0566L60.9863 7.2998C58.9844 2.53906 54.9805 0.0732422 49.6826 0.0732422L23.8037 0.0732422C18.5303 0.0732422 14.5264 2.53906 12.5244 7.2998L1.46484 33.0566C0.683594 34.9609 0 37.0605 0 39.3311ZM4.32129 39.3311C4.32129 34.0576 8.37402 30.0049 14.2578 30.0049L59.2529 30.0049C65.1123 30.0049 69.165 34.0576 69.165 39.3311C69.165 45.0928 65.1123 48.6572 59.2529 48.6572L14.2578 48.6572C8.37402 48.6572 4.32129 44.6045 4.32129 39.3311ZM9.05762 26.7578L16.6748 8.44727C17.9443 5.41992 20.459 3.88184 23.9502 3.88184L49.5605 3.88184C53.0273 3.88184 55.5664 5.41992 56.8115 8.44727L64.4043 26.7334C62.8662 26.0742 61.1084 25.6592 59.2529 25.6592L14.2578 25.6592C12.3779 25.6592 10.6201 26.0742 9.05762 26.7578ZM55.2979 39.3311C55.2979 41.5039 57.0801 43.1641 59.2041 43.1641C61.2549 43.1641 63.0127 41.4551 63.0127 39.3311C63.0127 37.2803 61.2549 35.498 59.2041 35.498C57.0801 35.498 55.2979 37.2803 55.2979 39.3311Z" fill="black" fill-opacity="0.85"/>
 </g>
</svg>
