<?xml version="1.0" encoding="UTF-8"?>
<!--Generator: Apple Native CoreSVG 326-->
<!DOCTYPE svg
PUBLIC "-//W3C//DTD SVG 1.1//EN"
       "http://www.w3.org/Graphics/SVG/1.1/DTD/svg11.dtd">
<svg version="1.1" xmlns="http://www.w3.org/2000/svg" xmlns:xlink="http://www.w3.org/1999/xlink" viewBox="0 0 61.9489 65.6982">
 <g>
  <rect height="65.6982" opacity="0" width="61.9489" x="0" y="0"/>
  <path d="M0.456865 55.8105C-1.13005 62.1094 1.45784 65.6738 7.58577 65.6738L54.0213 65.6738C60.1492 65.6738 62.7616 62.1094 61.1746 55.8105L54.119 27.7344C52.9959 23.1934 49.8221 20.6543 45.3543 20.6543L16.2528 20.6543C11.785 20.6543 8.63558 23.1934 7.48811 27.7344ZM4.65608 56.0303L11.5408 29.126C12.2733 26.3428 13.909 24.9756 16.5946 24.9756L45.0369 24.9756C47.7225 24.9756 49.3582 26.3428 50.0662 29.126L56.9754 56.0303C57.8787 59.5459 56.6092 61.3525 53.5575 61.3525L8.07405 61.3525C4.99788 61.3525 3.75276 59.5459 4.65608 56.0303ZM28.6551 23.6572L32.9764 23.6572L32.9764 15.4053L28.6551 15.4053ZM30.8035 17.5537C35.6131 17.5537 39.617 13.5986 39.617 8.81348C39.617 3.97949 35.5887 0 30.8035 0C26.0184 0 22.0145 4.00391 22.0145 8.81348C22.0145 13.5986 26.0184 17.5537 30.8035 17.5537ZM30.8035 13.7695C28.0936 13.7695 25.8231 11.5234 25.8231 8.81348C25.8231 6.0791 28.0692 3.78418 30.8035 3.78418C33.5379 3.78418 35.8084 6.0791 35.8084 8.81348C35.8084 11.499 33.5379 13.7695 30.8035 13.7695Z" fill="black" fill-opacity="0.85"/>
 </g>
</svg>
