<?xml version="1.0" encoding="UTF-8"?>
<!--Generator: Apple Native CoreSVG 232.5-->
<!DOCTYPE svg
PUBLIC "-//W3C//DTD SVG 1.1//EN"
       "http://www.w3.org/Graphics/SVG/1.1/DTD/svg11.dtd">
<svg version="1.1" xmlns="http://www.w3.org/2000/svg" xmlns:xlink="http://www.w3.org/1999/xlink" width="20.0439" height="35.5103">
 <g>
  <rect height="35.5103" opacity="0" width="20.0439" x="0" y="0"/>
  <path d="M9.92432 31.7505C15.3076 31.7505 19.6899 28.9307 19.6899 24.0479C19.6899 20.2271 17.2241 17.9443 11.7188 16.626L8.72803 15.918C4.94385 15.0391 3.18604 13.4766 3.18604 11.0474C3.18604 8.34961 5.82275 6.12793 9.8999 6.12793C13.3911 6.12793 15.8936 7.83691 16.6748 10.7788C16.8823 11.4746 17.3096 11.8408 17.9932 11.8408C18.7866 11.8408 19.2139 11.3281 19.2139 10.5591C19.2139 10.3271 19.1772 10.0708 19.1162 9.79004C18.2251 6.20117 14.5264 3.75977 9.8999 3.75977C4.55322 3.75977 0.610352 6.82373 0.610352 11.1938C0.610352 14.8438 3.06396 17.1143 8.31299 18.3838L11.2915 19.0918C15.4419 20.0928 17.1143 21.5454 17.1143 24.2188C17.1143 27.417 14.3799 29.3945 9.94873 29.3945C5.94482 29.3945 3.23486 27.5757 2.55127 24.4385C2.33154 23.7305 1.89209 23.3643 1.23291 23.3643C0.439453 23.3643 0 23.9014 0 24.6704C0 24.9146 0.0366211 25.1709 0.0976562 25.4272C1.02539 29.3823 5.12695 31.7505 9.92432 31.7505ZM9.86328 35.5103C10.437 35.5103 10.8887 35.0586 10.8887 34.4971L10.8887 1.2207C10.8887 0.646973 10.437 0.195312 9.86328 0.195312C9.30176 0.195312 8.8501 0.646973 8.8501 1.2207L8.8501 34.4971C8.8501 35.0586 9.30176 35.5103 9.86328 35.5103Z" fill="#000000" fill-opacity="0.85"/>
 </g>
</svg>
